<svg xmlns="http://www.w3.org/2000/svg" viewBox="0 0 158.8 159.32"><defs><style>.cls-1{fill:#f6a31d;}.cls-2{fill:#fff;}</style></defs><title>e-mandate</title><g id="Layer_202" data-name="Layer 202"><path class="cls-1" d="M37.21,179.35H150.37a17.82,17.82,0,0,0,17.8-17.79v-7.77a9.64,9.64,0,0,0,10.05-9.62V121.28a9.62,9.62,0,0,0-9.62-9.62h-.43V88.32a17.82,17.82,0,0,0-17.8-17.79H132.29l-50-50a1.92,1.92,0,0,0-2.64,0L63.34,36.88h0L51.49,48.73h0L35.16,65.06a1.86,1.86,0,0,0,0,2.64L38,70.53c-11.4,0-18.56,8.55-18.56,17.79v73.24A17.81,17.81,0,0,0,37.21,179.35Zm131.39-64a5.89,5.89,0,0,1,5.89,5.89v22.89a5.89,5.89,0,0,1-5.89,5.88h-46a17.33,17.33,0,1,1,0-34.66ZM81,24.51,94.62,38.14a21.27,21.27,0,0,1-27.26,0ZM64.71,40.79a25,25,0,0,0,32.56,0L127,70.53h-6.9c-2-6.86-26.76-13.8-36.36,0H61.1A24.83,24.83,0,0,0,55.4,50.1Zm50.18,29.74H89.11A21.27,21.27,0,0,1,114.89,70.53ZM52.75,52.75a21.13,21.13,0,0,1,4.54,17.78H43.22c-.18-.26-3.88-3.93-4.1-4.15ZM23.16,88.32A14.07,14.07,0,0,1,37.21,74.26H150.37a14.08,14.08,0,0,1,14.06,14.06v23.34H122.64a21.07,21.07,0,1,0,0,42.13h41.79v7.77a14.07,14.07,0,0,1-14.06,14.05H37.21a14.06,14.06,0,0,1-14-14.05Z" transform="translate(-19.42 -20.02)"/><path class="cls-2" d="M111.71,132.72A12.27,12.27,0,1,0,124,120.46,12.28,12.28,0,0,0,111.71,132.72ZM124,124.19a8.53,8.53,0,1,1-8.52,8.53A8.54,8.54,0,0,1,124,124.19Z" transform="translate(-19.42 -20.02)"/></g></svg>