<?xml version="1.0" encoding="utf-8"?>
<!-- Generator: Adobe Illustrator 16.0.0, SVG Export Plug-In . SVG Version: 6.00 Build 0)  -->
<!DOCTYPE svg PUBLIC "-//W3C//DTD SVG 1.1//EN" "http://www.w3.org/Graphics/SVG/1.1/DTD/svg11.dtd">
<svg version="1.1" id="Layer_1" xmlns="http://www.w3.org/2000/svg" xmlns:xlink="http://www.w3.org/1999/xlink" x="0px" y="0px"
	 width="595.203px" height="594.727px" viewBox="0.038 123.582 595.203 594.727"
	 enable-background="new 0.038 123.582 595.203 594.727" xml:space="preserve">
<g>
	<g>
		<g>
			<path fill-rule="evenodd" clip-rule="evenodd" fill="#F7A30A" d="M595.176,503.379c0.007-8.348,0.014-16.694,0.014-25.04
				c0-85.088,0-198.519-0.013-283.615c0-0.594,0.016-1.194,0.031-1.796c0.053-2.057,0.106-4.184-0.394-6.283
				c-4.502-18.786-18.732-30.046-38.068-30.12c-14.706-0.062-42.04-0.092-83.563-0.092c-26.482,0-54.197,0.012-77.104,0.022
				c-16.133,0.007-15.707,0.013-24.958,0.013l-1.232-0.009c-0.198,0-0.434,0.003-0.678,0.012h-5.281
				c-4.299,0-7.783,3.485-7.783,7.784c0,4.299,3.484,7.784,7.783,7.784h17.914c0.247,0,0.49-0.015,0.73-0.037
				c20.148,0.002,46.403,0.003,72.837,0.004c40.623,0.001,81.649,0.002,101.499,0.009c0.597,0,1.198-0.015,1.799-0.029
				c0.566-0.014,1.134-0.029,1.699-0.029c1.159,0,2.516,0.052,3.782,0.436c10.279,3.142,15.951,10.918,15.971,21.898
				c0.028,14.787,0.032,57.911,0.032,72.698c-0.003,42.86-0.012,85.719-0.021,128.579l-0.011,49.88
				c0,4.035-0.004,8.071-0.007,12.107c-0.011,11.335-0.021,23.057,0.052,34.587c0.012,1.495-0.227,1.753-0.229,1.755
				s-0.253,0.207-1.334,0.207l-0.143-0.002c-4.665-0.063-9.723-0.097-15.4-0.104v-0.005l-2.147,0.003
				c-3.507,0.005-7.01,0.018-10.517,0.044l-0.513,0.004c-1.639,0.013-3.28,0.024-4.895,0.045c-0.298,0-0.566-0.008-0.809-0.035
				l-0.118-0.014h-31.611l-0.147,0.021c-0.2,0.028-0.454,0.042-0.778,0.042l-0.124-0.001c-1.497-0.026-2.994-0.048-4.497-0.062
				c-2.427-0.021-4.854-0.028-7.281-0.028h-0.003h-0.001l-1.174,0.001l-0.884,0.001h-0.001c-2.077,0-4.156,0.007-6.233,0.014
				c-2.076,0.007-4.15,0.015-6.225,0.015l-40.536,0.002c-6.174-0.01-12.348-0.013-18.521-0.013l-12.555,0.004v-0.077
				c-0.354,0-0.732,0-1.052-0.007c0.004-0.315,0.018-0.656,0.026-0.877c0.314-7.908-1.315-15.815-4.982-24.176
				c-3.839-8.739-9.582-16.242-17.069-22.301c-5.889-4.76-12.661-8.421-20.13-10.88c-0.338-0.111-0.663-0.165-0.948-0.202
				c-0.104-0.563-0.373-0.953-0.611-1.198l-0.703-0.684h-0.91c-0.476,0-1.149,0.146-1.792,0.798
				c-0.056-0.01-0.112-0.021-0.161-0.031c-0.243-0.047-0.487-0.093-0.716-0.118c-0.993-0.119-1.974-0.28-3.011-0.451
				c-2.051-0.337-4.172-0.686-6.457-0.686c-13.927,0.017-27.854,0.021-41.781,0.021l-52.429-0.008l-19.996,0.004
				c-3.018,0-5.746,0.058-8.564,0.77c-1.375,0.347-2.844,0.668-4.263,0.668c-0.634,0-1.214-0.063-1.771-0.19l-0.247-0.081h-0.353
				c-0.813,0-1.332,0.427-1.619,0.661l-2.558,1.813c-12.152,4.592-21.718,12.089-29.142,22.812
				c-6.338,9.164-9.792,20.219-10.562,33.8c-0.01,0.188-0.024,0.425-0.043,0.626h-39.713v0.033l-19.746,0.002
				c-6.444-0.044-12.891-0.061-19.339-0.061c-6.881,0-13.763,0.019-20.67,0.039c-0.423,0-0.663-0.044-0.785-0.075
				c-0.013-0.097-0.024-0.262-0.005-0.524c0.059-0.776,0.031-1.515,0.005-2.23l-0.021-0.632c-0.25-10.782-10.203-20.24-21.302-20.24
				c-0.872,0-1.749,0.061-2.604,0.18c-11.054,1.53-18.918,10.355-19.568,21.963c-0.065,1.186-0.279,1.437-0.278,1.437
				c-0.002,0.002-0.213,0.152-1.088,0.152l-0.187-0.002c-2.207-0.05-4.593-0.072-7.507-0.072c-1.739,0-3.479,0.008-5.219,0.016
				c-1.733,0.008-3.467,0.016-5.201,0.016c-1.315,0-2.67,0-3.253-0.11c-0.104-0.565-0.104-1.851-0.104-3.101v-116.21
				c0-50.55,0-129.441-0.009-179.987c0-4.945,1.024-9.021,3.135-12.461c4.277-6.973,10.57-10.221,19.875-10.221
				c28.833,0.064,72.525,0.067,114.778,0.069c21.099,0.001,41.639,0.002,59.446,0.011c0.061,0.001,0.118,0.009,0.179,0.009h13.352
				c3.737,0.003-6.854,0.007-3.497,0.011c0.246,0,0.499-0.004,0.756-0.011h7.303c4.299,0,7.784-3.485,7.784-7.784
				c0-4.299-3.485-7.784-7.784-7.784h-17.913c-0.017,0-0.033,0.002-0.051,0.002c-53.423-0.005-131.365-0.005-174.971-0.005
				c-4.201,0-8.679,0.87-13.307,2.585c-15.123,5.609-24.147,19.014-24.141,35.86c0.047,80.715,0.043,191.13,0.04,270.498
				l-0.001,97.877c0,4.316,0,8.779,1.196,13.311c3.075,11.591,10.22,19.956,21.235,24.866c5.841,2.595,11.72,2.807,18.248,2.807
				l2.116-0.002c24.665,0.014,49.331,0.017,73.998,0.017h75.263c3.225,0.007,6.452,0.012,9.676,0.012l13.871-0.009
				c9.438-0.005,18.874-0.011,28.339-0.048c-0.429,1.761-0.833,3.526-1.238,5.292c-0.442,1.93-0.885,3.86-1.358,5.782
				c-2.212,8.947-4.447,17.892-6.682,26.834l-2.242,8.979c-0.543,2.178-1.101,4.354-1.657,6.529
				c-1.303,5.094-2.65,10.36-3.809,15.592c-0.305,1.386-0.477,1.585-2.426,1.585l-0.127-0.001
				c-6.022-0.039-12.047-0.047-18.069-0.047l-12.961,0.004c-3.012,0-6.023-0.002-9.094-0.009c-5.312,0-10.217,1.363-14.578,4.053
				c-10.419,6.408-16.209,22.292-12.392,33.99c1.104,3.384,3.797,5.485,7.027,5.485c0.496,0,1.003-0.051,1.511-0.151
				c3.814-0.767,6.033-3.49,6.086-7.47c0.024-1.559,0.022-3.116,0.021-4.676c-0.001-1.095-0.002-2.19,0.006-3.287
				c0.065-8.312,4.104-12.354,12.348-12.358c16.061-0.009,32.122-0.011,48.185-0.011h99.904c24.8,0,49.591,0.003,74.393,0.016
				c7.342,0,11.594,4.1,11.662,11.252c0.014,1.134,0.008,2.267,0.002,3.401c-0.009,1.715-0.018,3.488,0.039,5.248
				c0.145,4.534,2.979,7.741,7.052,7.979c0.179,0.011,0.355,0.016,0.53,0.016c4.035,0,6.721-2.722,7.184-7.284
				c0.624-6.187,0.348-11.69-0.846-16.825c-2.514-10.793-13.822-19.294-25.746-19.353l-3.206-0.015
				c-5.426-0.024-10.854-0.05-16.28-0.05c-7.124,0-13.044,0.044-18.627,0.136l-0.13,0.002c-1.897,0-2.479-0.496-2.964-2.528
				c-0.801-3.354-1.594-6.71-2.386-10.065c-1.358-5.75-2.763-11.696-4.191-17.533c-2.969-12.137-6.037-24.452-9.005-36.363
				l-0.824-3.306c-0.04-0.164-0.132-0.532-0.19-0.853c0.119-0.008,0.265-0.014,0.441-0.014h0.001
				c7.705,0.06,15.76,0.088,24.627,0.088c8.246,0,16.49-0.024,24.73-0.062h0.229c1.754,0,3.626,0.052,5.247,0.1l0.181,0.003
				c0.642,0,1.28-0.091,1.897-0.18c0.556-0.078,1.08-0.152,1.534-0.152c0.685,0,0.95,0.075,1.246,0.921l0.953,2.722l2.332-1.696
				c0.56-0.407,0.861-0.914,1.021-1.408c0.962,0.165,1.979,0.247,3.074,0.247c1.512,0,2.989-0.151,4.417-0.298
				c1.38-0.142,2.683-0.275,4.033-0.275h0.001c24.75,0.055,49.911,0.056,74.244,0.057c18.957,0.001,37.913,0.002,56.955,0.026
				c11.834,0,20.571-3.096,27.497-9.739c7.763-7.433,11.676-16.574,11.635-27.172C595.142,546.061,595.158,524.363,595.176,503.379z
				 M258.053,444.22c0.593,0,1.33,0,2.089,1.993c3.308,8.688,9.437,15.481,18.219,20.19c5.632,3.01,11.615,4.592,17.784,4.701
				l0.15,0.001c3.586,0,6.272-2.278,6.39-5.423c0.102-2.959-2.803-5.678-6.216-5.82c-11.076-0.456-19.519-5.677-25.1-15.515
				c3.777-0.005,7.555-0.007,11.332-0.007l14.643,0.003c0,0,21.066,0,25.397,0.004c-2.943,5.729-7.459,10.05-13.43,12.848
				c-1.034,0.48-2.219,1.124-3.154,2.237c-1.722,2.047-1.778,4.651-0.145,6.638c1.303,1.58,2.8,2.381,4.449,2.381
				c0.697,0,1.408-0.147,2.117-0.439c4.567-1.896,8.847-4.775,12.717-8.558c4.115-4.018,7.254-8.849,9.323-14.347
				c0.15-0.289,1.016-0.808,1.953-0.946c-2.076,5.125-4.373,9.145-7.203,12.61c-5.512,6.755-12.196,11.438-19.869,13.924
				c-4.099,1.327-8.277,2-12.422,2c-2.891,0-5.85-0.328-8.791-0.972c-8.875-1.954-16.374-6.479-22.924-13.83
				c-3.104-3.493-5.634-7.705-8.151-13.59C257.523,444.248,257.805,444.22,258.053,444.22z M193.242,492.718
				c0.185-11.798,4.128-22.299,11.721-31.213c7.152-8.396,15.921-13.649,26.809-16.062c4.315-0.958,8.639-1.068,13.447-1.107
				c0.067,0,0.121,0.002,0.161,0.006c0.035,0.071,0.085,0.188,0.146,0.373c3.178,9.697,8.162,17.808,14.815,24.108
				c8.563,8.115,17.888,12.796,28.51,14.31c2.92,0.416,5.809,0.627,8.588,0.627c15.788,0,29.487-6.803,40.718-20.218
				c4.163-4.981,7.366-10.98,10.082-18.883c0.052-0.155,0.096-0.25,0.125-0.305c0.063-0.013,0.177-0.028,0.36-0.036
				c0.96-0.041,1.918-0.063,2.871-0.063c8.719,0,16.283,1.738,23.126,5.313c10.048,5.25,17.534,13.033,22.249,23.132
				c2.979,6.386,4.503,13.206,4.662,20.854c0.004,0.169,0,0.301-0.007,0.403l-12.782,0.002c-3.957-0.007-7.914-0.009-11.871-0.009
				l-182.549,0.006c-0.404,0-0.839,0-1.189-0.01C193.228,493.57,193.236,493.104,193.242,492.718z M53.417,496.873
				c-0.013-1.529-0.025-3.11,0.02-4.643c0.085-2.848,1.194-6.275,5.991-6.432l0.286-0.005c3.86,0,6.892,2.551,7.052,5.938
				c0.249,5.121,0.245,10.27-0.013,15.303c-0.172,3.358-3.063,5.988-6.581,5.988l-0.132-0.001c-3.867-0.085-6.455-2.597-6.591-6.399
				c-0.063-1.719-0.048-3.491-0.033-5.206c0.006-0.771,0.013-1.54,0.013-2.311C53.429,498.361,53.423,497.617,53.417,496.873z
				 M349.954,671.096l0.83,3.119c0.061,0.231,0.092,0.406,0.107,0.533c-0.187,0.032-0.488,0.063-0.96,0.063c0,0,0,0-0.001,0
				c-5.264-0.02-10.526-0.025-15.788-0.025l-18.958,0.008h-71.47c-0.358,0-1.106-0.002-1.68-0.038
				c0.063-0.334,0.163-0.774,0.3-1.319c1.91-7.637,3.85-15.264,5.79-22.89c1.685-6.625,3.369-13.249,5.035-19.88
				c2.124-8.493,4.19-16.821,6.123-25.347c0.191-0.846,0.333-1.041,0.329-1.047c0.009-0.005,0.21-0.112,1.012-0.112h0.001
				c13.103,0.064,26.02,0.098,38.394,0.098c11.215,0,22.35-0.027,33.149-0.08c1.317,0,1.317,0,1.608,1.236
				c3.801,15.933,7.761,32.276,12.104,49.969C347.172,660.648,348.586,665.959,349.954,671.096z M580.413,563.075
				c-0.166,1.444-0.336,2.938-0.277,4.384c0.194,4.747-1.183,9.194-4.092,13.219c-4.015,5.542-9.418,8.485-15.625,8.513
				c-18.281,0.074-37.706,0.108-62.982,0.108c-11.299,0-22.597-0.007-33.894-0.014c-11.299-0.006-22.597-0.013-33.896-0.013
				c-3.137,0-15.673,0.014-18.807,0.014l-151.09-0.007c-65.687,0-143.396,0.011-221.753,0.093
				c-10.246,0.001-18.556-5.585-21.685-14.578c-1.788-5.145-1.471-10.58-1.134-16.334c0.035-0.599,0.07-1.198,0.106-1.829
				c0.01,0,0.02,0,0.029,0c0.24,0,0.484,0.015,0.723,0.028c0.299,0.017,0.59,0.03,0.901,0.03c0.002,0,0.003,0,0.005,0
				c7.673-0.022,15.348-0.027,23.021-0.027l16.041,0.003c0.628,0,1.256,0.005,1.883,0.009c0.639,0.006,1.276,0.01,1.914,0.01
				c1.441,0,2.555-0.025,3.606-0.085c6.575-0.363,8.956-3.98,8.992-7.245c0.021-1.905-0.677-3.629-2.018-4.985
				c-1.72-1.739-4.358-2.698-7.429-2.701l-8.246-0.015c-5.072-0.01-10.146-0.021-15.218-0.021c-8.657,0-15.729,0.031-22.25,0.097
				l-0.139,0.001c-1.537,0-1.815-0.267-1.826-0.277c-0.012-0.012-0.281-0.305-0.249-1.818c0.214-9.892,0.131-19.919,0.035-28.54
				c-0.012-1.11,0.174-1.388,0.171-1.388c0.01-0.007,0.243-0.16,1.109-0.16l0.146,0.001c3.433,0.068,6.816,0.104,10.058,0.104
				c3.365,0,6.694-0.038,9.896-0.111l0.164-0.002c1.72,0,2.12,0.586,2.327,1.82c1.564,9.219,11.382,16.279,19.213,16.852
				c0.582,0.043,1.159,0.064,1.732,0.064c8.935,0,16.528-5.146,20.322-13.781l0.092-0.2c0.228-0.479,0.571-1.2,0.479-2.116
				c-0.092-0.859-0.018-1.527,0.202-1.785c0.375-0.442,1.843-0.525,2.915-0.585c0.433-0.024,0.86-0.05,1.27-0.088
				c1.228-0.117,2.544-0.168,4.271-0.168c0.826,0,1.654,0.012,2.482,0.023c0.848,0.012,1.695,0.022,2.543,0.022
				c50.87-0.008,101.74-0.008,152.611-0.008l2.145-0.004h72.707l0.093-0.008c0.198-0.018,0.408-0.019,0.626-0.019
				c11.326,0.003,22.655,0.011,33.983,0.019l11.227,0.008c0,0,36.519,0.005,48.505,0.005c31.117,0,62.234-0.013,93.356-0.041
				c0.224,0,0.434,0.011,0.634,0.028l0.093,0.008h32.587l0.131-0.017c0.25-0.031,0.521-0.047,0.811-0.047l0.178,0.002
				c1.609,0.025,3.215,0.048,4.82,0.062c3.672,0.035,7.347,0.058,11.02,0.058h0.003h0.001l1.058-0.001l0.797-0.001
				c4.917-0.004,10.148-0.036,16.459-0.1l0.115-0.001c1.343,0,1.589,0.234,1.592,0.237c0.002,0.002,0.235,0.275,0.214,1.521
				c-0.174,10.063-0.171,19.401,0.009,28.551c0.025,1.309-0.214,1.591-0.217,1.593c-0.01,0.011-0.273,0.261-1.909,0.261
				c-27.519-0.04-55.048-0.051-82.569-0.051c-16.271,0-32.537,0.004-48.807,0.008l-79.195,0.004c-69.864,0-139.721,0-209.582-0.01
				h-0.544c-2.628,0-6.599,0-8.815,4.147c-1.043,1.938-1.17,4.192-0.347,6.189c0.798,1.937,2.413,3.399,4.435,4.014
				c2.211,0.668,4.466,0.668,6.534,0.668c23.947-0.007,47.897-0.007,71.844-0.007l203.061-0.002
				c45.169,0,90.331,0.006,135.514,0.036c1.236,0,2.523-0.14,3.769-0.274c1.209-0.132,2.351-0.255,3.399-0.255
				c2.03,0,2.752,0.504,3.122,0.884C580.977,558.142,580.702,560.538,580.413,563.075z"/>
			<path fill-rule="evenodd" clip-rule="evenodd" fill="#F7A30A" d="M121.061,541.703c-1.93-0.041-4.012-0.06-6.55-0.06
				c-1.558,0-3.115,0.007-4.674,0.014c-1.554,0.007-3.107,0.014-4.661,0.014l-1.884,0.016c-0.932-0.002-1.863-0.005-2.795-0.008
				c-1.563-0.005-3.127-0.011-4.69-0.011c-2.278,0-4.558,0.011-6.838,0.048c-3.716,0.062-6.397,1.946-7.547,5.306
				c-0.999,2.914-0.086,5.719,2.565,7.896c2.106,1.735,4.721,1.735,6.45,1.735l0.597-0.001c4.345,0.01,8.688,0.016,13.031,0.016
				c5.12,0,10.241-0.009,15.361-0.029c1.334-0.004,2.803-0.18,4.364-0.521c3.211-0.701,5.129-3.074,5.261-6.504
				c0.087-2.137-0.579-4.023-1.928-5.457C125.664,542.604,123.568,541.755,121.061,541.703z"/>
			<path fill-rule="evenodd" clip-rule="evenodd" fill="#F7A30A" d="M226.413,297.244c-4.293,9.372-6.295,18.794-5.791,27.253
				c0.056,6.276,0.292,10.817,1.327,15.425c1.771,7.869,4.818,15.331,9.056,22.175c0.301,0.487,0.465,0.957,0.564,1.621
				c1.14,7.587,3.245,14.646,6.259,20.979c6.622,13.921,16.188,24.63,28.438,31.829c8.855,5.202,18.643,8.125,29.086,8.688
				c0.727,0.039,1.452,0.058,2.178,0.058c3.183,0,6.338-0.365,8.729-0.683c10.691-1.416,20.563-5.523,29.338-12.207
				c14.223-10.838,23.497-25.622,27.564-43.938c0.201-0.903,0.328-1.794,0.453-2.657c0.222-1.547,0.432-3.008,1.032-4.254
				c5-10.367,7.546-19.286,8.008-28.027c0.016-0.087,0.047-0.172,0.072-0.259c0.085-0.292,0.164-0.588,0.207-0.88
				c0.725-4.867,0.756-10.183,0.093-16.254c-0.121-1.089-0.124-1.413,0.09-1.784c3.387-5.907,5.708-12.605,6.901-19.907
				c0.833-5.085,0.749-10.206,0.668-15.158l-0.016-0.955c-0.08-5.143-2.983-6.976-5.675-6.976c-1.296,0-2.704,0.407-4.185,1.208
				c-3.426,1.851-6.847,2.789-10.169,2.789c-2.774,0-5.541-0.658-8.222-1.958c-1.787-0.866-3.563-1.755-5.335-2.644
				c-5.662-2.838-11.515-5.771-17.761-7.863c-9.545-3.199-19.553-5.134-30.594-5.917c-1.664-0.118-3.377-0.177-5.091-0.177
				c-6.073,0-12.483,0.732-19.598,2.239c-6.595,1.398-12.733,3.636-18.245,6.652C242.608,272.878,232.722,283.503,226.413,297.244z
				 M353.111,349.329l-0.003,0.123c0.027,16.907-4.229,30.388-13.395,42.424c-7.092,9.311-16.092,15.733-26.75,19.088
				c-5.208,1.641-10.362,2.473-15.325,2.473c-2.385,0-4.777-0.191-7.112-0.57c-11.484-1.862-21.511-7.098-29.799-15.562
				c-7.63-7.787-12.984-17.418-16.368-29.444c-1.715-6.104-2.141-12.464-1.265-18.905c1.689-12.438,7.396-20.36,17.449-24.221
				c3.098-1.189,6.384-1.768,10.047-1.768c2.396,0,4.925,0.246,7.731,0.753c6.074,1.098,12.106,2.974,17.94,4.788
				c1.568,0.487,3.137,0.975,4.708,1.45c7.19,2.17,13.939,3.676,20.633,4.604c3.68,0.515,7.261,0.775,10.645,0.775
				c1.883,0,3.754-0.08,5.562-0.239c5.014-0.441,9.113-1.239,12.855-2.504C351.865,337.441,353.375,344.312,353.111,349.329z
				 M267.533,273.207c3.401-1.389,7.122-2.421,11.376-3.153c5.197-0.895,9.785-1.33,14.026-1.33c0.386,0,0.772,0.004,1.157,0.011
				c14.587,0.289,28.323,3.333,40.826,9.049c2.063,0.944,4.12,2.043,6.111,3.107c2.091,1.118,4.255,2.273,6.49,3.29
				c3.979,1.804,8.281,2.718,12.79,2.718c2.792,0,5.654-0.332,8.727-1.012c-1.081,9.869-2.9,20.072-10.229,28.088
				c-3.364,3.68-7.666,6.267-12.787,7.687c-4.045,1.124-8.368,1.67-13.219,1.67c-3.737,0-7.818-0.322-12.848-1.012
				c-7.619-1.047-15.19-3.442-22.51-5.758c-1.386-0.438-2.771-0.875-4.157-1.306c-4.6-1.425-9.596-2.577-16.2-3.735
				c-2.124-0.373-4.269-0.561-6.374-0.561c-6.37,0-12.676,1.679-19.278,5.132c-8.683,4.547-14.652,11.825-17.773,21.657
				c-0.323-1.457-0.577-2.838-0.797-4.124c-0.649-3.79-0.861-7.192-0.646-10.399c0.865-12.811,4.905-23.614,12.353-33.027
				C250.56,282.627,258.072,277.069,267.533,273.207z"/>
			<path fill-rule="evenodd" clip-rule="evenodd" fill="#F7A30A" d="M302.658,312.292c1.187,0.681,2.433,1,3.529,1.281
				c0.368,0.094,0.734,0.188,1.096,0.295c7.299,2.178,14.508,4.133,22.454,4.133c0.258,0,0.519-0.002,0.778-0.006
				c0.412,0.032,0.853,0.049,1.311,0.049c1.662,0,3.429-0.216,5.137-0.425l0.748-0.09c1.626-0.197,3.015-0.949,3.909-2.12
				c0.794-1.042,1.125-2.334,0.933-3.637c-0.357-2.452-2.471-4.099-5.257-4.099c-0.245,0-0.497,0.012-0.752,0.04
				c-1.699,0.18-3.525,0.267-5.585,0.267c-1.891,0-3.793-0.075-5.238-0.141c-3.657-0.165-7.206-1.058-10.528-1.958
				c-1.425-0.386-2.84-0.808-4.256-1.23c-1.583-0.472-3.223-0.962-4.867-1.395c-0.488-0.127-0.974-0.191-1.443-0.191
				c-2.109,0-3.801,1.251-4.524,3.348C299.628,307.786,299.329,310.374,302.658,312.292z"/>
			<path fill-rule="evenodd" clip-rule="evenodd" fill="#F7A30A" d="M348.858,312.058c1.026,0,2.042-0.378,2.938-1.095
				c3.145-2.522,5.573-5.905,7.425-10.342c0.601-1.442,0.437-3.03-0.447-4.358c-0.95-1.423-2.555-2.273-4.297-2.273l-0.228,0.007
				c-1.65,0.133-3.019,1.017-3.662,2.365c-1.491,3.13-3.708,5.77-5.47,7.719c-1.754,1.936-1.638,4.453,0.293,6.412
				C346.417,311.516,347.61,312.058,348.858,312.058z"/>
		</g>
		<g>
			<path fill-rule="evenodd" clip-rule="evenodd" fill="#F7A30A" d="M297.721,222.393c-6.714,0-13.548-0.031-20.314-0.091
				c-7.511-0.07-12.415-4.818-12.799-12.392c-0.108-2.102-0.085-4.191-0.062-6.212c0.019-1.697,0.037-3.299-0.017-4.905
				c-0.081-2.267,0.479-3.995,1.715-5.274c1.203-1.247,2.92-1.879,5.101-1.879c0.135,0,0.272,0.002,0.414,0.007
				c1.536,0.048,3.207,0.07,5.258,0.07c1.283,0,2.576-0.008,3.889-0.017c0.188-0.001,0.375-0.002,0.563-0.004v-6.431
				c-0.139-0.008-0.277-0.017-0.416-0.025c-2.712-0.165-5.516-0.335-8.283-0.894c-14.909-3.005-25.659-17.016-24.472-31.897
				c1.274-15.983,14.06-28.298,29.739-28.646c6.69-0.146,13.361-0.22,19.826-0.22c6.562,0,13.108,0.076,19.46,0.226
				c16.407,0.384,29.753,14.141,29.748,30.665c-0.002,16.464-13.555,30.209-30.211,30.64c-0.817,0.021-1.637,0.028-2.468,0.028
				c-0.179,0-0.356,0-0.536,0v6.555c0.201,0.001,0.402,0.003,0.603,0.004c1.32,0.009,2.622,0.018,3.911,0.018
				c2.037,0,3.697-0.023,5.227-0.072c0.139-0.004,0.274-0.007,0.406-0.007c2.161,0,3.866,0.63,5.066,1.873
				c1.238,1.282,1.802,3.023,1.723,5.324c-0.058,1.661-0.041,3.316-0.024,5.068c0.018,1.814,0.036,3.69-0.035,5.574
				c-0.298,7.957-5.105,12.751-12.859,12.825C311.215,222.362,304.435,222.393,297.721,222.393z M274.88,202.468
				c-0.055,2.766-0.105,5.379,0.12,7.872c0.055,0.595,0.156,1.708,2.295,1.717c6.621,0.03,13.243,0.042,19.864,0.042
				c6.948,0,13.896-0.013,20.843-0.034c2.08-0.006,2.188-1.014,2.225-1.345c0.282-2.64,0.218-5.382,0.15-8.286
				c-0.003-0.119-0.006-0.239-0.008-0.358h-45.481C274.885,202.206,274.882,202.337,274.88,202.468z M292.004,191.601
				c1.695,0.06,3.538,0.088,5.805,0.088c1.373,0,2.746-0.01,4.12-0.02l1.352-0.008c-0.301-1.677-0.013-3.305,0.245-4.756
				c0.086-0.485,0.202-1.143,0.242-1.614c-1.424-0.322-3.053-0.473-5.102-0.473c-1.519,0-3.091,0.08-4.757,0.164
				c-0.646,0.033-1.3,0.066-1.962,0.095C291.926,187.343,291.909,189.508,292.004,191.601z M297.441,133.997
				c-6.332,0-12.693,0.039-18.906,0.114c-11.048,0.136-19.979,9.361-19.906,20.564c0.067,10.94,9.027,19.951,19.974,20.088
				c2.392,0.029,4.783,0.039,7.175,0.039c1.863,0,3.727-0.005,5.589-0.011c1.87-0.005,3.739-0.011,5.608-0.011
				c0,0,10.169,0.018,12.14,0.018c2.42,0,4.84-0.007,7.259-0.029c11.157-0.102,20.272-9.144,20.32-20.155
				c0.048-11.179-8.911-20.376-19.973-20.503C310.26,134.035,303.774,133.997,297.441,133.997z"/>
			<path fill-rule="evenodd" clip-rule="evenodd" fill="#F7A30A" d="M310.257,181.523c0,4.757,0,9.071,0,13.757
				c4.702,0,9.083,0.104,13.456-0.038c2.589-0.083,3.569,0.916,3.481,3.468c-0.123,3.538,0.074,7.091-0.06,10.629
				c-0.222,5.918-3.456,9.306-9.296,9.361c-13.462,0.123-26.936,0.121-40.4,0c-5.672-0.053-8.95-3.34-9.236-8.975
				c-0.189-3.676,0.049-7.375-0.075-11.056c-0.092-2.585,0.969-3.51,3.517-3.428c4.369,0.137,8.743,0.038,13.425,0.038
				c0-4.72,0-9.036,0-13.368c-4.03-0.359-7.885-0.348-11.586-1.096c-13.228-2.666-22.635-15.06-21.597-28.083
				c1.113-13.954,12.33-25.025,26.23-25.333c13.034-0.284,26.09-0.302,39.122,0.006c14.559,0.341,26.237,12.64,26.233,27.065
				c-0.002,14.598-11.903,26.659-26.704,27.042C314.669,181.569,312.569,181.523,310.257,181.523z M297.267,178.38
				c6.382,0,12.762,0.046,19.138-0.011c13.184-0.121,23.832-10.732,23.888-23.74c0.057-13.089-10.432-23.969-23.531-24.119
				c-12.756-0.15-25.519-0.156-38.271,0c-13.073,0.161-23.546,11.089-23.463,24.187c0.08,12.838,10.649,23.504,23.529,23.665
				C284.796,178.44,291.031,178.378,297.267,178.38z M271.331,198.475c0,4.354-0.269,8.299,0.084,12.189
				c0.295,3.228,2.631,4.979,5.865,4.992c13.575,0.062,27.155,0.048,40.732,0.009c3.046-0.009,5.472-1.58,5.793-4.559
				c0.44-4.121,0.11-8.323,0.11-12.631C306.214,198.475,289.126,198.475,271.331,198.475z M288.369,181.564
				c0,4.104-0.137,7.736,0.102,11.347c0.058,0.825,1.391,2.2,2.187,2.238c4.647,0.215,9.312,0.123,13.97,0.104
				c2.97-0.015,2.641-2.414,2.253-3.967c-0.808-3.219,2.713-8.295-2.067-9.448C299.781,180.625,294.236,181.564,288.369,181.564z"/>
			<path fill-rule="evenodd" clip-rule="evenodd" fill="#F7A30A" d="M297.76,172.222c-9.866,0.038-17.83-7.834-17.888-17.669
				c-0.057-9.848,7.833-17.819,17.685-17.861c9.885-0.044,17.843,7.815,17.891,17.659
				C315.496,164.192,307.587,172.185,297.76,172.222z M297.412,169.085c8.135,0.094,14.718-6.169,14.898-14.169
				c0.187-8.323-6.183-14.994-14.406-15.078c-8.329-0.085-14.873,6.321-14.903,14.583
				C282.975,162.482,289.373,168.995,297.412,169.085z"/>
			<path fill-rule="evenodd" clip-rule="evenodd" fill="#F7A30A" d="M297.704,162.307c-4.359,0.017-7.879-3.462-7.904-7.807
				c-0.024-4.352,3.461-7.874,7.814-7.892c4.367-0.02,7.884,3.453,7.905,7.803C305.541,158.758,302.046,162.29,297.704,162.307z"/>
		</g>
	</g>
</g>
</svg>
