<svg xmlns="http://www.w3.org/2000/svg" viewBox="0 0 104.69 160.27"><defs><style>.cls-1,.cls-2,.cls-4{fill:none;stroke-width:3px;}.cls-1{stroke:#f5a31e;}.cls-1,.cls-2{stroke-miterlimit:10;}.cls-2{stroke:#fff;}.cls-3{fill:#fff;}.cls-4{stroke:#f6a31d;stroke-linejoin:round;}</style></defs><title>mini_statement</title><g id="Layer_201" data-name="Layer 201"><rect class="cls-1" x="1.5" y="1.5" width="80.29" height="10.88" rx="2.94"/><path class="cls-1" d="M59.38,34.21v82.17s0,11,7.6,11a9.18,9.18,0,0,0,5.4-1.1c2.17-1.27,4.17-3.91,4.17-9.31V71.36s1.12-8,8-8H143s7.88.7,7.88,9.71V176.89s.19,2-1.69.09-6-8.63-6-8.63-1.32-1.31-2.44-.19-5.26,8.82-5.26,8.82a2,2,0,0,1-3.37,0c-1.88-2.06-7.13-8.25-7.13-8.25a2.45,2.45,0,0,0-3.38,0c-1.59,1.59-7.69,8.25-7.69,8.25s-1.13,2.25-3,0-8.35-8.35-8.35-8.35a2,2,0,0,0-2.91,0c-1.45,1.46-7.88,8.35-7.88,8.35V71.36s-.07-5.7-2.81-6.68c0,0-2.32-1.34-3.73-1.27" transform="translate(-47.66 -20.52)"/><line class="cls-1" x1="43.1" y1="105.85" x2="24.67" y2="105.85"/><line class="cls-1" x1="70.82" y1="12.29" x2="70.82" y2="42.68"/><line class="cls-2" x1="57.87" y1="55.34" x2="89.11" y2="55.34"/><line class="cls-3" x1="57.87" y1="68.57" x2="89.11" y2="68.57"/><rect class="cls-3" x="60.41" y="79.73" width="5.25" height="5.25"/><rect class="cls-3" x="70.88" y="79.73" width="5.25" height="5.25"/><rect class="cls-3" x="81.93" y="79.73" width="5.25" height="5.25"/><polyline class="cls-4" points="71.54 113.93 63.13 113.92 77.64 131.32"/><line class="cls-4" x1="61.68" y1="105.22" x2="84.88" y2="105.22"/><line class="cls-4" x1="61.68" y1="96.52" x2="84.88" y2="96.52"/><path class="cls-4" d="M119.2,117a8.71,8.71,0,0,1,0,17.41" transform="translate(-47.66 -20.52)"/></g></svg>