<svg xmlns="http://www.w3.org/2000/svg" viewBox="0 0 158.99 153.77"><defs><style>.cls-1,.cls-2{fill:none;stroke-miterlimit:10;stroke-width:3px;}.cls-1{stroke:#f4a31f;}.cls-2{stroke:#fff;}</style></defs><title>accounts_hover</title><g id="Layer_344" data-name="Layer 344"><g id="HOVER"><path class="cls-1" d="M151.78,152.48v10.9a12,12,0,0,1-12,12H34a12,12,0,0,1-12-12V56.61a12,12,0,0,1,12-12H139.78a12,12,0,0,1,12,12h0V117.2" transform="translate(-20.5 -23.11)"/><path class="cls-1" d="M134.64,44.61H157a12,12,0,0,1,12,12h0V117.2H114.74s-19.14.37-19.14,17.27c0,0,.37,15.39,14.64,17.27l58.81.75v10.9a12,12,0,0,1-12,12H137.26" transform="translate(-20.5 -23.11)"/><path class="cls-1" d="M169.86,152.48S178,151.35,178,144V123.57s-1-6.57-9-6.37" transform="translate(-20.5 -23.11)"/><circle class="cls-2" cx="93.91" cy="111.68" r="9.43"/><path class="cls-1" d="M38,43.14v-16s.85-2.53,4.79-2.53h91.79s2.25.28,2.25,3.38V44.27" transform="translate(-20.5 -23.11)"/><path class="cls-1" d="M114.56,44s-5.92-7.88-6.77-11.27H38" transform="translate(-20.5 -23.11)"/></g></g></svg>