<svg xmlns="http://www.w3.org/2000/svg" viewBox="0 0 158.2 158.7"><defs><style>.cls-1,.cls-2,.cls-4{fill:none;}.cls-1,.cls-3,.cls-4{stroke:#f5a31e;}.cls-1,.cls-2,.cls-3,.cls-4{stroke-miterlimit:10;}.cls-2{stroke:#fff;}.cls-2,.cls-4{stroke-width:3px;}.cls-3{fill:#f6a31d;stroke-width:0;}</style></defs><title>tasc_normal</title><g id="Layer_342" data-name="Layer 342"><path class="cls-1" d="M36.68,134.37" transform="translate(-21.71 -22.05)"/><path class="cls-2" d="M42.53,133.37l22.64,29.06s1.7,2.83-.19,4.71L53.1,178.28s-2.34,3-5.48-1.51L24.41,146.39s-2.83-2.65.19-4.34l12.08-7.68S40.78,131,42.53,133.37Z" transform="translate(-21.71 -22.05)"/><path class="cls-2" d="M45.17,134.69s9.62-4.44,13.87-12.08c0,0,14.44-14.15,33.4-7.64,0,0,12.17,6.79,21,6.79,0,0,27.83-4.06,20.09,12.74,0,0-9.62,7.73-20.38,4.24,0,0-15-3.11-20.94,1.14" transform="translate(-21.71 -22.05)"/><path class="cls-2" d="M64.42,160.73s9.34-7.27,19.53-4.15c0,0,30.29,9,47.27,1.69,0,0,15-8.49,20.38-15.28,0,0,19.91-17.74,24.82-21.39a4.06,4.06,0,0,0,1.26-1.53c1-2.24,2-8.12-5-7.9-.27,0-.54,0-.81,0-2.92.29-20.38,2.62-30.32,17.31" transform="translate(-21.71 -22.05)"/><path class="cls-3" d="M58,165.94a3.65,3.65,0,1,1-3.65-3.65A3.65,3.65,0,0,1,58,165.94Z" transform="translate(-21.71 -22.05)"/><path class="cls-2" d="M151.56,53.15a39.61,39.61,0,1,1-66.41,1.12" transform="translate(-21.71 -22.05)"/><line class="cls-2" x1="96.73" y1="69.82" x2="96.73" y2="92.85"/><line class="cls-2" x1="96.73" y1="36.54" x2="96.73" y2="40.57"/><line class="cls-2" x1="58.28" y1="51.9" x2="80.61" y2="51.9"/><line class="cls-2" x1="113.42" y1="51.9" x2="135.75" y2="51.9"/><path class="cls-2" d="M88,100.13s17.74-4.47,29.84-4.31c0,0,22.25.17,30.13,4.31" transform="translate(-21.71 -22.05)"/><path class="cls-2" d="M136.15,58.12a72.65,72.65,0,0,1,2,17.24c0,21.61-8.76,39.13-19.56,39.13S99,97,99,75.36a72.92,72.92,0,0,1,1.88-16.78" transform="translate(-21.71 -22.05)"/><path class="cls-2" d="M83.8,40.16v8.17a5.52,5.52,0,0,0,3.66,3.38S126.6,61,150,50.58a3.62,3.62,0,0,0,2-3.38l-.28-7" transform="translate(-21.71 -22.05)"/><path class="cls-2" d="M163.39,31.37,120,23.55a44.17,44.17,0,0,0-6.19.56L75,31.25s-4.69.93.19,2.25l40.54,7.69s5.26.19,7.51-.37l37.17-6.76S167.9,32.81,163.39,31.37Z" transform="translate(-21.71 -22.05)"/><circle class="cls-4" cx="145.72" cy="32.13" r="3.85"/><line class="cls-4" x1="145.62" y1="14.64" x2="145.62" y2="29.28"/><line class="cls-4" x1="145.62" y1="39.6" x2="145.62" y2="48.99"/><line class="cls-4" x1="150.27" y1="37.6" x2="150.27" y2="46.99"/><line class="cls-4" x1="141.4" y1="37.6" x2="141.4" y2="46.99"/><path class="cls-4" d="M108.11,74.8v5.26s-.26.67,1.18.67h5.6a.77.77,0,0,1,.85.85v6.19a1.61,1.61,0,0,0,1.27.59h4.49a1.23,1.23,0,0,0,.68-1V80.82a2,2,0,0,1,1.1-.25h6s.6-.17.6-1.11V74.55a2.1,2.1,0,0,0-1.45-.43H122.6s-.5-.08-.5-1V67.17s.08-.93-.77-.93h-5.08s-.6.08-.6,1v6.19s.26.68-.84.68h-6S108.11,73.78,108.11,74.8Z" transform="translate(-21.71 -22.05)"/></g></svg>