<svg xmlns="http://www.w3.org/2000/svg" viewBox="0 0 160.11 130.55"><defs><style>.cls-1,.cls-2{fill:none;stroke:#fff;stroke-miterlimit:10;}.cls-1{stroke-width:3px;}.cls-3{fill:#f3a41f;}</style></defs><title>trade_forex_services_normal</title><g id="Forex_Services" data-name="Forex Services"><g id="Normal"><path class="cls-1" d="M171.07,52.4s8.23-11.71-6.23-14.64A64.63,64.63,0,0,0,126.71,49" transform="translate(-19.94 -34.72)"/><path class="cls-1" d="M27,126.6s-14,15.62,2.49,21.19c0,0,7.73,3.9,29.91-6.35,0,0,58.07-26.11,79.72-50.27" transform="translate(-19.94 -34.72)"/><path class="cls-1" d="M132.64,54.9A65.64,65.64,0,0,0,86.57,36.22c-36,0-65.13,28.55-65.13,63.78A62.74,62.74,0,0,0,37,141.37s20-9.81,29-8.83" transform="translate(-19.94 -34.72)"/><path class="cls-1" d="M151.38,93.48a64.4,64.4,0,0,1,.33,6.52c0,35.22-29.16,63.77-65.14,63.77A65.64,65.64,0,0,1,47,150.65" transform="translate(-19.94 -34.72)"/><line class="cls-1" x1="66.31" y1="85.13" x2="66.31" y2="1.5"/><line class="cls-1" x1="66.31" y1="129.06" x2="66.31" y2="100.91"/><path class="cls-1" d="M39.13,58.51C38.23,57.85,83.75,81,130,61.44" transform="translate(-19.94 -34.72)"/><ellipse class="cls-1" cx="133.56" cy="35.63" rx="25.05" ry="24.53"/><path class="cls-1" d="M58.44,132.73a108.29,108.29,0,0,1-4.76-32.57c0-34.78,14.8-63,33.07-63s33.06,28.19,33.06,63H21.44" transform="translate(-19.94 -34.72)"/><path class="cls-1" d="M118.81,115.62c-3.62,27.29-16.61,47.51-32.06,47.51-8.68,0-16.57-6.36-22.47-16.77" transform="translate(-19.94 -34.72)"/><path class="cls-1" d="M93.56,130.27s35.89,3.9,40.88,10.74" transform="translate(-19.94 -34.72)"/><path class="cls-2" d="M151.71,100" transform="translate(-19.94 -34.72)"/><line class="cls-1" x1="116.16" y1="65.66" x2="130.61" y2="65.66"/><path class="cls-3" d="M143,58.68l9.94,13.68a1.3,1.3,0,0,0,1.79.39,1.32,1.32,0,0,0,.39-.39l10.09-13.68c1-1.31-1.22-2.57-2.18-1.27L153,71.08h2.18l-10-13.67C144.23,56.11,142.05,57.41,143,58.68Z" transform="translate(-19.94 -34.72)"/><path class="cls-3" d="M155.35,87.41V71.72a1.27,1.27,0,0,0-2.53,0V87.41a1.27,1.27,0,0,0,2.53,0Z" transform="translate(-19.94 -34.72)"/><path class="cls-3" d="M147.23,76.24H161a1.26,1.26,0,1,0,0-2.52H147.23a1.26,1.26,0,0,0,0,2.52Z" transform="translate(-19.94 -34.72)"/><path class="cls-3" d="M147.23,81.26H161a1.27,1.27,0,0,0,0-2.53H147.23a1.27,1.27,0,0,0,0,2.53Z" transform="translate(-19.94 -34.72)"/></g></g></svg>