<svg xmlns="http://www.w3.org/2000/svg" viewBox="0 0 138.5 156.93"><defs><style>.cls-1,.cls-3,.cls-4{fill:none;}.cls-1{stroke:#832626;stroke-miterlimit:10;}.cls-1,.cls-4{stroke-width:3px;}.cls-2{fill:#832626;}.cls-3{stroke:#f6a31d;stroke-width:2px;}.cls-3,.cls-4{stroke-linejoin:round;}.cls-4{stroke:#f2a31e;stroke-linecap:round;}</style></defs><title>choice_of_fund_options</title><g id="Layer_325" data-name="Layer 325"><line class="cls-1" x1="68.25" y1="155.05" x2="68.25" y2="53.49"/><ellipse class="cls-1" cx="84.91" cy="101.41" rx="8.07" ry="13.82" transform="matrix(0.5, -0.87, 0.87, 0.5, -76.12, 101.95)"/><ellipse class="cls-1" cx="84.91" cy="139.55" rx="8.07" ry="13.82" transform="matrix(0.5, -0.87, 0.87, 0.5, -109.15, 121.02)"/><ellipse class="cls-1" cx="111.94" cy="101.32" rx="13.82" ry="8.07" transform="translate(-66.42 47.25) rotate(-30)"/><ellipse class="cls-1" cx="111.94" cy="138.99" rx="13.82" ry="8.07" transform="translate(-85.25 52.3) rotate(-30)"/><circle class="cls-1" cx="68.25" cy="31.48" r="21.46"/><circle class="cls-2" cx="40.78" cy="19.49" r="2.35"/><circle class="cls-2" cx="60.92" cy="2.64" r="2.35"/><circle class="cls-2" cx="73.89" cy="2.35" r="2.35"/><circle class="cls-2" cx="85.9" cy="7.61" r="2.35"/><circle class="cls-2" cx="94.57" cy="19.05" r="2.35"/><circle class="cls-2" cx="97.34" cy="31.92" r="2.35"/><circle class="cls-2" cx="94.14" cy="44.15" r="2.35"/><circle class="cls-2" cx="86.24" cy="55.09" r="2.35"/><circle class="cls-2" cx="74.33" cy="60.25" r="2.35"/><circle class="cls-2" cx="49.6" cy="8.84" r="2.35"/><circle class="cls-2" cx="37.08" cy="31.73" r="2.35"/><circle class="cls-2" cx="40.24" cy="45.71" r="2.35"/><circle class="cls-2" cx="49.45" cy="55.05" r="2.35"/><circle class="cls-2" cx="60.45" cy="60.92" r="2.35"/><polyline class="cls-3" points="67.97 33 61.77 32.99 72.46 45.74"/><line class="cls-3" x1="60.7" y1="26.61" x2="77.8" y2="26.61"/><line class="cls-3" x1="60.7" y1="20.23" x2="77.8" y2="20.23"/><path class="cls-3" d="M98.72,42.52a6.39,6.39,0,0,1,0,12.77" transform="translate(-30.75 -22.29)"/><line class="cls-4" x1="1.5" y1="155.43" x2="137" y2="155.43"/></g></svg>