<svg xmlns="http://www.w3.org/2000/svg" viewBox="0 0 160.5 134.95"><defs><style>.cls-1,.cls-2,.cls-7{fill:none;stroke-miterlimit:10;}.cls-1,.cls-7{stroke:#832626;}.cls-1,.cls-2{stroke-width:3px;}.cls-2{stroke:#f5a31e;}.cls-3,.cls-4{fill:#832626;}.cls-4{font-size:18px;font-family:MyriadPro-Bold, Myriad Pro;font-weight:700;}.cls-5{letter-spacing:-0.01em;}.cls-6{letter-spacing:0em;}.cls-7{stroke-width:2px;}</style></defs><title>ease_of_access</title><g id="Layer_319" data-name="Layer 319"><path class="cls-1" d="M40.64,119.35l-.1-2.77c0-17.75,12.94-32.14,28.9-32.14s28.9,14.39,28.9,32.14l0,2.72" transform="translate(-19.75 -32.71)"/><circle class="cls-2" cx="69.5" cy="63.54" r="20.14" transform="translate(-27.64 84.47) rotate(-77.17)"/><path class="cls-1" d="M31.15,34.22H168.29s10.46-.57,10.46,11.31v81.15s.28,11.59-10.46,11.59H33.13s-11.87,1.41-11.87-12.73V45.81S20.69,34.22,31.15,34.22Z" transform="translate(-19.75 -32.71)"/><line class="cls-1" x1="2.92" y1="88.03" x2="157.58" y2="88.03"/><path class="cls-3" d="M162.77,130.21a3.54,3.54,0,1,1-3.53-3.53A3.53,3.53,0,0,1,162.77,130.21Z" transform="translate(-19.75 -32.71)"/><path class="cls-3" d="M134.92,130.89h16.54a1.25,1.25,0,0,0,0-2.5H134.92a1.25,1.25,0,0,0,0,2.5Z" transform="translate(-19.75 -32.71)"/><line class="cls-1" x1="70.5" y1="105.93" x2="70.5" y2="132.89"/><line class="cls-1" x1="90.29" y1="106.31" x2="90.29" y2="131.95"/><path class="cls-3" d="M71.59,167.66h56.55a1.88,1.88,0,0,0,0-3.75H71.59a1.88,1.88,0,0,0,0,3.75Z" transform="translate(-19.75 -32.71)"/><text class="cls-4" transform="translate(88.61 37.13)"><tspan class="cls-5">L</tspan><tspan class="cls-6" x="9.04" y="0">o</tspan><tspan x="19.48" y="0">gin</tspan></text><line class="cls-7" x1="91.08" y1="51.09" x2="146.83" y2="51.09"/><line class="cls-7" x1="91.08" y1="67.99" x2="146.83" y2="67.99"/></g></svg>