<svg xmlns="http://www.w3.org/2000/svg" viewBox="0 0 155.43 160.69"><defs><style>.cls-1,.cls-2{fill:none;stroke-linejoin:round;stroke-width:3px;}.cls-1{stroke:#832626;}.cls-2{stroke:#f6a31d;}</style></defs><title>fund_transfer</title><g id="Fund_Transfer" data-name="Fund Transfer"><g id="Layer_7" data-name="Layer 7"><path class="cls-1" d="M114,173" transform="translate(-22.22 -16.35)"/><path class="cls-1" d="M86.17,172.62c-40.35-8.83-62.45-41.05-62.45-75.76,0-36.87,25-67.8,61.39-74.49l1.09-.2" transform="translate(-22.22 -16.35)"/><path class="cls-1" d="M67.68,175.45l19.19-1.31s3.38.4-1.47-3.62-12.71-9.13-12.71-9.13" transform="translate(-22.22 -16.35)"/></g><polyline class="cls-2" points="74.25 83.91 56.71 83.88 86.96 119.97"/><line class="cls-2" x1="53.68" y1="65.83" x2="102.07" y2="65.83"/><line class="cls-2" x1="53.68" y1="47.78" x2="102.07" y2="47.78"/><path class="cls-2" d="M96.47,64.13a18.07,18.07,0,0,1,0,36.13" transform="translate(-22.22 -16.35)"/><g id="Layer_7-2" data-name="Layer 7"><path class="cls-1" d="M90.7,24.51" transform="translate(-22.22 -16.35)"/><path class="cls-1" d="M103.65,25c40,0,72.51,33.91,72.51,75.74,0,37.89-26.65,69.29-61.43,74.86" transform="translate(-22.22 -16.35)"/><path class="cls-1" d="M120,17.76l-18,6.66s-3.35.56,2.43,3.06,14.77,5.18,14.77,5.18" transform="translate(-22.22 -16.35)"/></g></g></svg>