<svg xmlns="http://www.w3.org/2000/svg" viewBox="0 0 159.18 156.81"><defs><style>.cls-1{fill:#842726;}.cls-2{fill:#f6a41c;}.cls-3{font-size:10px;fill:#231f20;font-family:MyriadPro-SemiboldCond, Myriad Pro;font-weight:600;letter-spacing:0.06em;}.cls-4{letter-spacing:0.1em;}.cls-5{letter-spacing:0.06em;}.cls-6{letter-spacing:0.08em;}.cls-7,.cls-9{fill:none;stroke-miterlimit:10;}.cls-7{stroke:#f6a41c;stroke-width:2px;}.cls-8{fill:#f5a31e;}.cls-9{stroke:#f6a31d;stroke-width:3px;}</style></defs><title>FASTAG</title><g id="Layer_218" data-name="Layer 218"><path class="cls-1" d="M146.64,95H52.12c-17.91,0-27.28,17-27.28,26.09v27.81c0,8.5,20.8,13.87,26,13.87h97.08c5.21,0,26-5.37,26-13.87V121C173.93,111,166.52,95,146.64,95Zm23.56,53.9c0,4.69-16.9,10.14-22.28,10.14H50.84c-5.41,0-22.27-5.47-22.27-10.14V121c0-6.36,7-22.36,23.55-22.36h94.52c19.33,0,23.56,16.14,23.56,22.36Z" transform="translate(-19.8 -22.87)"/><path class="cls-1" d="M45.91,92.78,53.2,71.71l0-.09C55.21,64.8,62.29,60,70.45,60h57.87c8.16,0,15.24,4.76,17.22,11.58a.29.29,0,0,0,0,.09l7.3,21.07a1.86,1.86,0,0,0,3.52-1.23l-7.28-21c-2.45-8.37-11-14.22-20.78-14.22H70.45c-9.79,0-18.33,5.85-20.78,14.22l-7.29,21A1.87,1.87,0,0,0,45.91,92.78Z" transform="translate(-19.8 -22.87)"/><path class="cls-1" d="M124.63,62.9H74.14C65.5,62.9,58,67.65,55.79,74.43l-5.14,15.4A1.86,1.86,0,0,0,54.18,91l5.15-15.42c1.69-5.28,7.77-9,14.81-9h50.49c7,0,13.12,3.68,14.81,9a.31.31,0,0,0,0,.08l5.79,15.71a1.86,1.86,0,0,0,3.5-1.28L143,74.41C140.79,67.63,133.25,62.9,124.63,62.9Z" transform="translate(-19.8 -22.87)"/><path class="cls-1" d="M26.7,157a1.86,1.86,0,0,0-1.86,1.86V172.7a7,7,0,0,0,7,7H43.35a7,7,0,0,0,7-7V167a1.87,1.87,0,1,0-3.73,0v5.72A3.26,3.26,0,0,1,43.35,176H31.83a3.26,3.26,0,0,1-3.26-3.26V158.81A1.87,1.87,0,0,0,26.7,157Z" transform="translate(-19.8 -22.87)"/><path class="cls-1" d="M172.07,157a1.87,1.87,0,0,0-1.87,1.86V172.7a3.26,3.26,0,0,1-3.26,3.26H155.42a3.26,3.26,0,0,1-3.26-3.26V167a1.87,1.87,0,1,0-3.73,0v5.72a7,7,0,0,0,7,7h11.52a7,7,0,0,0,7-7V158.81A1.86,1.86,0,0,0,172.07,157Z" transform="translate(-19.8 -22.87)"/><path class="cls-2" d="M43.93,110.72c-5.69,2.08-7.94,9.36-5.48,16.07s8.93,10.79,14.57,8.72,7.94-9.37,5.48-16.08S49.62,108.63,43.93,110.72ZM51.74,132c-3.83,1.4-8.13-2-9.79-6.51-1.79-4.87-.32-10,3.26-11.28s8,1.58,9.79,6.5S55.32,130.69,51.74,132Z" transform="translate(-19.8 -22.87)"/><path class="cls-2" d="M154.84,110.72c-5.69-2.09-12.12,2-14.57,8.71s-.21,14,5.48,16.08c5.89,2.16,12.2-2.26,14.57-8.72C162.78,120.08,160.53,112.8,154.84,110.72Zm2,14.78c-1.79,4.88-6.21,7.82-9.79,6.51s-5.05-6.42-3.26-11.29,6.22-7.81,9.79-6.5C157.49,115.66,158.42,121.13,156.82,125.5Z" transform="translate(-19.8 -22.87)"/><path class="cls-1" d="M71.6,129.43h54.66a1.87,1.87,0,0,0,0-3.73H71.6a1.87,1.87,0,0,0,0,3.73Z" transform="translate(-19.8 -22.87)"/><path class="cls-1" d="M133.82,137.52H64a1.87,1.87,0,0,0,0,3.73h69.78a1.87,1.87,0,0,0,0-3.73Z" transform="translate(-19.8 -22.87)"/><path class="cls-1" d="M159.51,89.33c3.17,12.18,22.1,8.55,19.15-2.77C175.9,76,157.34,81,159.51,89.33Zm3.61-.94c-.88-3.35,10.43-6.66,11.93-.89C176.71,93.84,165.08,95.92,163.12,88.39Z" transform="translate(-19.8 -22.87)"/><path class="cls-1" d="M39.26,89.33C41.42,81,22.87,76,20.11,86.56,17.15,97.9,36.09,101.49,39.26,89.33ZM23.72,87.5c1.49-5.74,12.81-2.47,11.93.89C33.68,96,22.07,93.81,23.72,87.5Z" transform="translate(-19.8 -22.87)"/><text class="cls-3" transform="translate(66.18 57.85)">F<tspan class="cls-4" x="4.31" y="0">AS</tspan><tspan class="cls-5" x="14.58" y="0">T</tspan><tspan class="cls-6" x="18.95" y="0">A</tspan><tspan class="cls-4" x="24.25" y="0">G</tspan></text><rect class="cls-7" x="61.92" y="47.96" width="36.58" height="12.69" rx="3.7"/><circle class="cls-8" cx="79.83" cy="28.89" r="1.5"/><path class="cls-9" d="M106.9,41.77A10.72,10.72,0,0,0,91.75,41" transform="translate(-19.8 -22.87)"/><path class="cls-9" d="M102.9,46.51a5.4,5.4,0,0,0-7.64-.38" transform="translate(-19.8 -22.87)"/><path class="cls-9" d="M110.29,36.88a15,15,0,0,0-21.16-1.05" transform="translate(-19.8 -22.87)"/><path class="cls-9" d="M114.58,31.16a20.64,20.64,0,0,0-29.16-1.44" transform="translate(-19.8 -22.87)"/></g></svg>