<svg xmlns="http://www.w3.org/2000/svg" viewBox="0 0 160.11 117.07"><defs><style>.cls-1{fill:none;stroke:#832725;stroke-miterlimit:10;stroke-width:3px;}.cls-2{font-size:46.24px;fill:#f6a31d;font-family:ABeeZee-Regular, ABeeZee;}.cls-3{fill:#842726;}</style></defs><title>lost_card_liability</title><g id="lost_card_liability" data-name="lost card liability"><path class="cls-1" d="M96.66,67.38h66.23s15.78-2.44,15.78,15.47V144s-1.39,12.63-12.8,12.63H62.6s-14,.12-14-15.13v-22.9" transform="translate(-20.06 -41.03)"/><circle class="cls-1" cx="126.51" cy="53.38" r="16.28"/><circle class="cls-1" cx="35.57" cy="35.57" r="34.07"/><text class="cls-2" transform="translate(24.29 53.1)">?</text><path class="cls-3" d="M66.58,138.93a1.8,1.8,0,1,0,0,3.58H91.15a1.8,1.8,0,1,0,0-3.58Z" transform="translate(-20.06 -41.03)"/><path class="cls-3" d="M103.07,140.72a1.88,1.88,0,0,0,2,1.79h50.69a1.8,1.8,0,1,0,0-3.58H105A1.88,1.88,0,0,0,103.07,140.72Z" transform="translate(-20.06 -41.03)"/><path class="cls-3" d="M132.31,129.77a1.8,1.8,0,1,0,0,3.58h23.41a1.8,1.8,0,1,0,0-3.58Z" transform="translate(-20.06 -41.03)"/></g></svg>