<svg xmlns="http://www.w3.org/2000/svg" viewBox="0 0 161.57 134.45"><defs><style>.cls-1{fill:none;stroke:#832626;stroke-miterlimit:10;stroke-width:3px;}.cls-2{fill:#f6a31d;}.cls-3{fill:#832626;}</style></defs><title>movie_ticket</title><g id="movie_tickets" data-name="movie tickets"><path class="cls-1" d="M20.6,119.38l88.68-84.57,5.1,5.33s-4.54,4.44-1.74,8.2c0,0,2.23,5.45,9.13.19l5,4.51s-3.73,6-1.87,8.46c0,0,2.8,5.07,9.51.37L139.28,67s-3.35,4.69-2.05,8.08c0,0,3.54,5.45,9.88.19l4.65,4.88L62.89,165l-4.65-4.7s4.28-4.7,1.3-8.45c0,0-4.1-4.89-9.13-.19l-5-5.26s4.84-5.08,1.3-7.9c0,0-1.67-4.51-9.31-.75l-4.1-4.7s3.91-4.88,1.49-7.51c0,0-3.54-5.64-9.87-.94Z" transform="translate(-18.56 -32.69)"/><path class="cls-1" d="M142,62.72l13-5.06,2.41,5.67s-5.86,4.85-3.41,8.9c0,0,2.41,3.64,8,2.42l2.61,5.87s-5.82,3.64-3.81,8.69c0,0,2.4,3.24,7.82,2l3.2,5.26s-6.34,3.94-4.24,8.74c0,0,2.1,3.66,8.24,2.67l2.38,6.36L79.66,155.83" transform="translate(-18.56 -32.69)"/><path class="cls-2" d="M110.36,95.73,67.55,136.82a1.66,1.66,0,0,1-2.37-.06l-.2-.21a1.7,1.7,0,0,1,.06-2.39l42.81-41.09a1.67,1.67,0,0,1,2.37.06l.2.21A1.7,1.7,0,0,1,110.36,95.73Z" transform="translate(-18.56 -32.69)"/><path class="cls-2" d="M107.49,109.48,81.71,134.23a1.68,1.68,0,0,1-2.37-.06l-.2-.21a1.71,1.71,0,0,1,.06-2.39L105,106.82a1.68,1.68,0,0,1,2.37.06l.2.21A1.7,1.7,0,0,1,107.49,109.48Z" transform="translate(-18.56 -32.69)"/><polygon class="cls-2" points="34.28 74.43 36.16 71.72 35.39 68.53 38.51 69.47 41.29 67.72 41.33 71 43.82 73.11 40.73 74.2 39.48 77.26 38.18 74.84 34.28 74.43"/><polygon class="cls-2" points="44.98 64.26 46.87 61.55 46.1 58.36 49.22 59.31 52 57.55 52.04 60.84 54.53 62.94 51.43 64.03 50.19 67.09 48.89 64.68 44.98 64.26"/><polygon class="cls-2" points="55.71 54.01 57.59 51.3 56.82 48.11 59.94 49.05 62.72 47.3 62.76 50.59 65.25 52.69 62.16 53.78 60.92 56.84 59.62 54.42 55.71 54.01"/><path class="cls-3" d="M96.94,56.45a2.38,2.38,0,0,0,3.39.09h0a2.44,2.44,0,0,0,.09-3.42l-.48-.51a2.39,2.39,0,0,0-3.4-.09A2.46,2.46,0,0,0,96.46,56Z" transform="translate(-18.56 -32.69)"/><path class="cls-3" d="M102.1,61.94l.47.51a2.39,2.39,0,0,0,3.4.09,2.45,2.45,0,0,0,.09-3.43l-.48-.51a2.41,2.41,0,0,0-3.4-.09A2.46,2.46,0,0,0,102.1,61.94Z" transform="translate(-18.56 -32.69)"/><path class="cls-3" d="M111.7,65.11l-.48-.51a2.39,2.39,0,0,0-3.4-.09,2.45,2.45,0,0,0-.08,3.42l.47.51a2.39,2.39,0,0,0,3.4.09A2.44,2.44,0,0,0,111.7,65.11Z" transform="translate(-18.56 -32.69)"/><path class="cls-3" d="M117.34,71.1l-.48-.51a2.41,2.41,0,0,0-3.4-.09,2.47,2.47,0,0,0-.09,3.43l.48.51a2.39,2.39,0,0,0,3.4.09A2.45,2.45,0,0,0,117.34,71.1Z" transform="translate(-18.56 -32.69)"/><path class="cls-3" d="M123,77.1l-.48-.51a2.39,2.39,0,0,0-3.4-.09,2.46,2.46,0,0,0-.09,3.42l.48.51a2.39,2.39,0,0,0,3.4.09A2.44,2.44,0,0,0,123,77.1Z" transform="translate(-18.56 -32.69)"/><path class="cls-3" d="M128.62,83.09l-.48-.51a2.4,2.4,0,0,0-3.4-.09,2.45,2.45,0,0,0-.09,3.43l.48.51a2.41,2.41,0,0,0,3.4.09A2.45,2.45,0,0,0,128.62,83.09Z" transform="translate(-18.56 -32.69)"/><path class="cls-3" d="M133.78,88.58a2.39,2.39,0,0,0-3.4-.09h0a2.44,2.44,0,0,0-.09,3.42l.48.51a2.39,2.39,0,0,0,3.4.09,2.44,2.44,0,0,0,.09-3.42Z" transform="translate(-18.56 -32.69)"/><polygon class="cls-3" points="41.53 85.9 40.03 84.3 33.15 90.88 34.66 92.48 37.06 90.18 43.48 97.01 45.52 95.06 39.09 88.24 41.53 85.9"/><polygon class="cls-3" points="42.09 82.33 50.01 90.76 52.05 88.81 44.12 80.39 42.09 82.33"/><path class="cls-3" d="M77.73,114.92a8.57,8.57,0,0,0,2-2.56L78,111.17a7.39,7.39,0,0,1-1.42,1.89c-1.81,1.72-3.87,1.68-5.46,0a3.65,3.65,0,0,1,.23-5.52,6.35,6.35,0,0,1,2-1.31l-1-1.91A7.82,7.82,0,0,0,69.76,106c-2.71,2.59-3.38,6.28-.68,9.16C71.34,117.6,74.64,117.88,77.73,114.92Z" transform="translate(-18.56 -32.69)"/><path class="cls-3" d="M84.23,108.47l-2.59-2.75-.07-1.62,5.62,1.54,2.36-2.26-7.67-1.86-.42-6.42L79,97.48l.6,4.74c.09.49.16,1,.26,1.51l0,0L76.3,100l-2,1.92,7.93,8.43Z" transform="translate(-18.56 -32.69)"/><polygon class="cls-3" points="72.79 68.96 78.5 63.49 77.03 61.93 73.35 65.45 71.47 63.45 74.76 60.3 73.3 58.75 70.01 61.9 68.36 60.15 71.86 56.81 70.39 55.24 64.86 60.53 72.79 68.96"/><polygon class="cls-3" points="76.23 52.69 82.66 59.52 84.69 57.57 78.26 50.75 80.71 48.41 79.2 46.81 72.32 53.39 73.83 54.99 76.23 52.69"/></g></svg>