<svg xmlns="http://www.w3.org/2000/svg" viewBox="0 0 160.14 107.79"><defs><style>.cls-1{fill:none;stroke:#832826;stroke-miterlimit:10;stroke-width:3px;}.cls-2{fill:#f6a31d;}</style></defs><title>personal_accident</title><g id="personal_accident" data-name="personal accident"><path class="cls-1" d="M36.49,136.15s-15.94.57-15.94-13.1V71.51S21.4,56.42,30.8,56.42h89.41s5.41-1.43,11.39,6.26c0,0,37.87,32.75,42.71,40.44,0,0,10.82,27-6.26,33" transform="translate(-19.05 -45.52)"/><path class="cls-1" d="M99.71,55.85V50.72s-.76-3.7,6-3.7h3.7s4.27-.28,4.27,3.7v5.41" transform="translate(-19.05 -45.52)"/><circle class="cls-1" cx="33.77" cy="91.11" r="15.19"/><circle class="cls-1" cx="33.77" cy="91.11" r="7.17"/><circle class="cls-1" cx="129.85" cy="91.11" r="15.19"/><circle class="cls-1" cx="129.85" cy="91.11" r="7.17"/><line class="cls-1" x1="58.87" y1="90.73" x2="113.69" y2="90.73"/><path class="cls-1" d="M176.59,111.56h-6.83s-2.85,0-2.85,2.66v5.7s0,2.28,4.18,2.28H177" transform="translate(-19.05 -45.52)"/><path class="cls-1" d="M132.74,64.11V88.78s.19,8.36,6.45,8.36h29.24" transform="translate(-19.05 -45.52)"/><path class="cls-2" d="M62.91,113H74.78a1.92,1.92,0,0,0,1.93-1.92V99.45H88.35a1.92,1.92,0,0,0,1.93-1.92V85.65a1.93,1.93,0,0,0-1.93-1.93H76.71V72.08a1.93,1.93,0,0,0-1.93-1.93H62.91A1.94,1.94,0,0,0,61,72.08V83.72H49.34a1.93,1.93,0,0,0-1.93,1.93V97.53a1.92,1.92,0,0,0,1.93,1.92H61V111.1A1.93,1.93,0,0,0,62.91,113ZM51.27,95.6v-8H62.91a1.93,1.93,0,0,0,1.93-1.93V74h8V85.65a1.92,1.92,0,0,0,1.92,1.93H86.43v8H74.78a1.92,1.92,0,0,0-1.92,1.93v11.64h-8V97.53a1.93,1.93,0,0,0-1.93-1.93Z" transform="translate(-19.05 -45.52)"/></g></svg>