<svg xmlns="http://www.w3.org/2000/svg" viewBox="0 0 153.31 160.57"><defs><style>.cls-1,.cls-2{fill:none;stroke-miterlimit:10;stroke-width:3px;}.cls-1{stroke:#f6a31d;}.cls-2{stroke:#832626;}</style></defs><title>adult</title><g id="Nomination_facility" data-name="Nomination facility"><polygon class="cls-1" points="84.17 98.84 68.78 98.84 70.36 113.65 81.9 113.65 84.17 98.84"/><polyline class="cls-1" points="67.94 156.65 70.22 123.33 82.32 123.05 84.6 156.36"/><path class="cls-2" d="M139.13,109.91s36-2.89,36,42.57c0,0-.57,20.22-1.56,27.05" transform="translate(-23.35 -19.19)"/><path class="cls-2" d="M60.87,109.91s-36-2.89-36,42.57c0,0,.57,20.22,1.56,27.05" transform="translate(-23.35 -19.19)"/><path class="cls-2" d="M99.6,109.86s15.37-1.33,27-22.78c0,0,7.79-11,4.56-40.43,0,0,0-20.32-18.6-24.68,0,0-19.75-5.13-35.5,5.12,0,0-10.45,7.41-9.12,30.76,0,0-2.08,20.88,9.69,36.07C77.58,93.92,91.43,110.43,99.6,109.86Z" transform="translate(-23.35 -19.19)"/><path class="cls-2" d="M69.6,48.92s7.41-9.3,8.92-9.68c0,0,5.32-2.66,8.74,3A30,30,0,0,0,110,51.2s15-1,19.17-4.36" transform="translate(-23.35 -19.19)"/></g></svg>