<svg xmlns="http://www.w3.org/2000/svg" viewBox="0 0 159.78 126.36"><defs><style>.cls-1{fill:#832826;}.cls-2,.cls-3{fill:none;stroke-miterlimit:10;}.cls-2{stroke:#f6a31d;stroke-width:3px;}.cls-3{stroke:#832626;stroke-width:2px;}</style></defs><title>no_need_signup</title><g id="Layer_91" data-name="Layer 91"><path class="cls-1" d="M179,32.56V158.92H19.19V32.56Zm-4.35,121.31v-105H23.84v105ZM46.68,37.67a3.19,3.19,0,0,0-3.14,3.17,3.09,3.09,0,0,0,3.05,3.07,3.21,3.21,0,0,0,3.25-3.07A3.25,3.25,0,0,0,46.68,37.67ZM31.54,40.8a3.17,3.17,0,1,0-3.05,3.1A3.18,3.18,0,0,0,31.54,40.8Zm9.24,0a3.25,3.25,0,0,0-3.19-3.16,3,3,0,0,0-3,3,3.09,3.09,0,1,0,6.17.19Z" transform="translate(-19.19 -32.56)"/><circle class="cls-2" cx="78.03" cy="48.65" r="15.86"/><path class="cls-2" d="M67.66,130.92l7.13-26.66A3,3,0,0,1,77.61,102h10s1.31.56,1.5,1.32c0,0,1.88,6.66,7.41,6.85a8.53,8.53,0,0,0,8.36-6.39s.28-1.78,1.4-1.78l10-.19s1.87-.47,2.25.85l.56,2.34" transform="translate(-19.19 -32.56)"/><circle class="cls-3" cx="105.86" cy="87.14" r="16.47"/><path class="cls-1" d="M126.27,120.52l6.29-6.29a.87.87,0,0,0,0-1.23.86.86,0,0,0-1.22,0l-6.3,6.29L118.75,113a.86.86,0,0,0-1.22,0,.87.87,0,0,0,0,1.23l6.29,6.29-6.29,6.29a.87.87,0,0,0,0,1.23.87.87,0,0,0,1.22,0l6.29-6.3,6.3,6.3a.87.87,0,0,0,1.22,0,.87.87,0,0,0,0-1.23Z" transform="translate(-19.19 -32.56)"/></g></svg>