<svg xmlns="http://www.w3.org/2000/svg" viewBox="0 0 160.21 120.13"><defs><style>.cls-1{fill:#832826;}.cls-2{fill:#832626;}.cls-3{fill:#f6a31d;}</style></defs><title>interactive_dashboard</title><g id="Layer_93" data-name="Layer 93"><path class="cls-1" d="M180.11,143.91c-.68,2.24-2.21,3-4.49,3q-75.77,0-151.53,0a4.3,4.3,0,0,1-4.2-2.34v-102c.9-1.88,2.43-2.46,4.45-2.46q75.61,0,151.24,0c2.18,0,3.69.74,4.53,2.77ZM24.2,142.62c49,0,102.84-.21,151.66-.21,0-31.1.42-66.7.42-97.71-48.91,0-102.8.22-151.65.22C24.63,76,24.2,111.57,24.2,142.62Z" transform="translate(-19.89 -40.07)"/><path class="cls-2" d="M100,160.2c-9.22,0-18.44,0-27.66,0-2.65,0-4.28-2.22-3.37-4.5.65-1.62,1.93-2.15,3.61-2.14q13.36,0,26.73,0h28c1.93,0,3.11.71,3.63,2.13.85,2.31-.77,4.49-3.4,4.5-7.82,0-15.63,0-23.45,0Z" transform="translate(-19.89 -40.07)"/><path class="cls-3" d="M140.08,97.14c-10.52,0-19.88-9.33-20-19.91-.06-10.39,9.37-19.92,19.79-19.94,11.14,0,20,9.68,20.08,19.91C160.07,87.69,150.62,97.12,140.08,97.14Zm4-36c-9.77-2-18.18,3.2-20.08,12.26-2,9.5,3.24,18.15,12.08,20s17.85-2.69,19.35-9.84a5.38,5.38,0,0,0-.89-.27c-4.4-.56-8.8-1.17-13.21-1.65-5.1-.55-6.52-3.19-4.07-7.75ZM140,77.25l15.7,2c-.94-6.56-3.22-11.83-8-16.23C145.08,67.8,142.66,72.31,140,77.25Z" transform="translate(-19.89 -40.07)"/><path class="cls-3" d="M99.91,93.52q0,14.53,0,29.08a8.25,8.25,0,0,1-.16,1.86,3.28,3.28,0,0,1-6.37.08,6.84,6.84,0,0,1-.18-1.69q0-29.23,0-58.47c0-2.43,1.1-3.87,3-4,2.15-.19,3.68,1.24,3.7,3.64,0,4.54,0,9.07,0,13.6v16Z" transform="translate(-19.89 -40.07)"/><path class="cls-3" d="M79.9,103.54c0-6.56,0-13.13,0-19.69a3.19,3.19,0,0,1,2-3.24,2.94,2.94,0,0,1,3.59.65,4.25,4.25,0,0,1,1,2.49q.09,19.94,0,39.86A3.32,3.32,0,0,1,83.18,127a3.27,3.27,0,0,1-3.27-3.45C79.87,116.88,79.9,110.21,79.9,103.54Z" transform="translate(-19.89 -40.07)"/><path class="cls-3" d="M59.89,107.15v16.09c0,1.47-.45,2.84-1.86,3.31a5,5,0,0,1-3.22-.13c-1.47-.6-1.66-2.1-1.66-3.58q0-12,0-24.06c0-2.56,0-5.11,0-7.66s1.3-4.18,3.41-4.15,3.31,1.55,3.31,4.08Q59.9,99.11,59.89,107.15Z" transform="translate(-19.89 -40.07)"/><path class="cls-3" d="M127.27,109.43h-5.92c-.9,0-1.41-.46-1.41-1.22s.53-1.22,1.42-1.22h12a1.23,1.23,0,0,1,1.28.85,1.17,1.17,0,0,1-.47,1.37,1.86,1.86,0,0,1-.87.21C131.26,109.44,129.27,109.43,127.27,109.43Z" transform="translate(-19.89 -40.07)"/><path class="cls-3" d="M131.26,114.35c-1.95,0-3.91,0-5.86,0-.89,0-1.42-.47-1.43-1.22s.52-1.22,1.41-1.22h11.9c.87,0,1.42.49,1.41,1.24s-.58,1.2-1.45,1.2Z" transform="translate(-19.89 -40.07)"/><path class="cls-3" d="M143.42,109.43H137.5c-.9,0-1.42-.46-1.42-1.22s.53-1.22,1.42-1.22h11.95a1.23,1.23,0,0,1,1.29.85,1.19,1.19,0,0,1-.48,1.37,1.82,1.82,0,0,1-.86.21C147.4,109.44,145.41,109.43,143.42,109.43Z" transform="translate(-19.89 -40.07)"/><path class="cls-3" d="M147.4,114.35c-2,0-3.91,0-5.86,0-.89,0-1.42-.47-1.42-1.22s.51-1.22,1.41-1.22h11.9a1.24,1.24,0,0,1,1.4,1.24c0,.73-.58,1.2-1.45,1.2Z" transform="translate(-19.89 -40.07)"/><path class="cls-3" d="M127.27,119.89c-2,0-3.94,0-5.92,0-.9,0-1.41-.45-1.41-1.21s.53-1.23,1.42-1.23h12a1.22,1.22,0,0,1,1.28.86,1.15,1.15,0,0,1-.47,1.36,2,2,0,0,1-.87.22C131.26,119.9,129.27,119.89,127.27,119.89Z" transform="translate(-19.89 -40.07)"/><path class="cls-3" d="M131.26,124.82H125.4c-.89,0-1.42-.47-1.43-1.22s.52-1.23,1.41-1.23h11.9a1.24,1.24,0,0,1,1.41,1.24c0,.74-.58,1.21-1.45,1.21Z" transform="translate(-19.89 -40.07)"/><path class="cls-3" d="M143.42,119.89c-2,0-3.95,0-5.92,0-.9,0-1.42-.45-1.42-1.21s.53-1.23,1.42-1.23h11.95a1.23,1.23,0,0,1,1.29.86,1.17,1.17,0,0,1-.48,1.36,2,2,0,0,1-.86.22C147.4,119.9,145.41,119.89,143.42,119.89Z" transform="translate(-19.89 -40.07)"/><path class="cls-3" d="M147.4,124.82h-5.86c-.89,0-1.42-.47-1.42-1.22s.51-1.23,1.41-1.23h11.9a1.24,1.24,0,0,1,1.4,1.24c0,.74-.58,1.21-1.45,1.21Z" transform="translate(-19.89 -40.07)"/><path class="cls-3" d="M73.17,110.43c0,4.38,0,8.76,0,13.14,0,2.79-2.91,4.44-5,2.84a4.18,4.18,0,0,1-1.54-2.83c-.12-8.81-.08-17.62-.06-26.44a3.32,3.32,0,1,1,6.63,0C73.2,101.57,73.17,106,73.17,110.43Z" transform="translate(-19.89 -40.07)"/><path class="cls-3" d="M46.5,117c0,2.14,0,4.27,0,6.4A3.36,3.36,0,0,1,43.24,127c-2,0-3.35-1.46-3.36-3.67q0-6.39,0-12.8A3.29,3.29,0,0,1,43.2,107a3.33,3.33,0,0,1,3.3,3.58C46.52,112.71,46.5,114.84,46.5,117Z" transform="translate(-19.89 -40.07)"/></g></svg>