<svg xmlns="http://www.w3.org/2000/svg" viewBox="0 0 141 159.93"><defs><style>.cls-1{fill:none;stroke:#832826;stroke-miterlimit:10;}.cls-2{fill:#832826;}.cls-3{fill:#f29e3a;}.cls-4{fill:#f6a31d;}</style></defs><title>Invest_safe</title><g id="Layer_91" data-name="Layer 91"><path class="cls-1" d="M55.33,137.82A11.13,11.13,0,1,1,44.2,149a11.13,11.13,0,0,1,11.13-11.13Z" transform="translate(-29.5 -19.8)"/><path class="cls-2" d="M51.17,142.58h8.4a.06.06,0,0,1,.07.07v.8c0,.05,0,.07-.07.07H56.41v.07a2.5,2.5,0,0,1,1.05,1.49l0,.26h2.08s.07,0,.07.07v.8s0,.08-.07.08h-2a3.45,3.45,0,0,1-1.64,2.61,5.23,5.23,0,0,1-2.07.83s0,0-.07,0l4.51,5.84v.08H56.59s-1.77-2.27-5.24-6.79v0h.55c1.91,0,3.07-.69,3.45-2.07a2.23,2.23,0,0,0,0-.4v-.1H51.17c-.05,0-.07,0-.07-.08v-.8a.07.07,0,0,1,.07-.07h4.18a2.3,2.3,0,0,0-.9-1.31,3.81,3.81,0,0,0-1.76-.51H51.17c-.05,0-.07,0-.07-.07v-.8A.06.06,0,0,1,51.17,142.58Z" transform="translate(-29.5 -19.8)"/><path class="cls-1" d="M69.3,117.44a8.6,8.6,0,1,1-8.6,8.6,8.6,8.6,0,0,1,8.6-8.6Z" transform="translate(-29.5 -19.8)"/><path class="cls-2" d="M66.09,121.12h6.49s0,0,0,0v.62s0,0,0,0H70.14v.06a2,2,0,0,1,.81,1.15l0,.2h1.61s0,0,0,.06v.61s0,.06,0,.06H71a2.71,2.71,0,0,1-1.27,2,4,4,0,0,1-1.6.64s0,0-.06,0l3.49,4.52v.05H70.27s-1.36-1.75-4-5.24v0h.42c1.48,0,2.37-.53,2.67-1.6a2.11,2.11,0,0,0,0-.31V124H66.09a.05.05,0,0,1-.06-.06v-.61s0-.06.06-.06h3.23a1.81,1.81,0,0,0-.7-1,3,3,0,0,0-1.35-.39H66.09s-.06,0-.06,0v-.62S66.05,121.12,66.09,121.12Z" transform="translate(-29.5 -19.8)"/><path class="cls-1" d="M44.09,117.44A6.08,6.08,0,1,1,38,123.52a6.08,6.08,0,0,1,6.08-6.08Z" transform="translate(-29.5 -19.8)"/><path class="cls-2" d="M41.81,120H46.4s0,0,0,0v.43s0,0,0,0H44.68v0a1.37,1.37,0,0,1,.57.82l0,.14H46.4s0,0,0,0V122s0,0,0,0H45.31a1.9,1.9,0,0,1-.9,1.43,2.81,2.81,0,0,1-1.13.45s0,0,0,0l2.46,3.19v0h-.94s-1-1.23-2.85-3.7v0h.29c1,0,1.68-.38,1.89-1.13,0-.09,0-.17,0-.22v-.06H41.81s0,0,0,0v-.43s0,0,0,0H44.1a1.22,1.22,0,0,0-.5-.72,2,2,0,0,0-1-.28h-.84s0,0,0,0v-.43S41.79,120,41.81,120Z" transform="translate(-29.5 -19.8)"/><path class="cls-3" d="M131.82,128.75h11.71c.07,0,.1,0,.1.1V130c0,.07,0,.1-.1.1h-4.41v.1a3.41,3.41,0,0,1,1.46,2.08l0,.36h2.9c.07,0,.1,0,.1.1v1.11c0,.07,0,.1-.1.1h-2.78c0,1.25-.77,2.46-2.3,3.64a7.15,7.15,0,0,1-2.88,1.17s0,.05-.1.05l6.29,8.14v.1h-2.39s-2.45-3.15-7.29-9.46v-.05h.75c2.68,0,4.28-1,4.82-2.88a4.75,4.75,0,0,0,0-.56v-.15h-5.88c-.07,0-.1,0-.1-.1V132.7c0-.07,0-.1.1-.1h5.83a3.25,3.25,0,0,0-1.26-1.83,5.33,5.33,0,0,0-2.44-.71h-2.13c-.07,0-.1,0-.1-.1v-1.11C131.73,128.78,131.76,128.75,131.82,128.75Z" transform="translate(-29.5 -19.8)"/><path class="cls-4" d="M170.5,157.33H103.77V117.44H170.5v.69c-.13,5.11-.37,10.22-.36,15.32,0,7.73.23,15.46.36,23.19Zm-34.06-3.82c5.8,0,11.6-.06,17.4,0,1.9,0,2.76-.64,3.87-2.27a33.11,33.11,0,0,1,7.08-7.44c1.53-1.18,2.39-2.06,2.21-4a23.07,23.07,0,0,1,0-4.7c.22-2-.82-2.78-2.28-3.94-2.66-2.13-4.76-5-7.21-7.35-1-.93-2.25-2.17-3.4-2.18q-17.58-.25-35.16,0c-1.09,0-2.32,1.09-3.2,2-2.62,2.57-5.14,5.24-7.58,8a7.63,7.63,0,0,0-1.94,3.29c-.33,1.63.05,3.38-.12,5.06-.2,2,.81,2.78,2.28,4a35.13,35.13,0,0,1,7.07,7.44c1.14,1.65,2.07,2.24,3.93,2.21C125.08,153.46,130.76,153.51,136.44,153.51ZM108.18,127.8l5-5.31h-5Zm53.3-5.38-.51.86,3.81,4.15.62-.72v-4.29Zm-48.13,30-5.08-5.35v5.35Zm47.54-.95c.19.28.38.55.58.82h4v-5.18Z" transform="translate(-29.5 -19.8)"/><path class="cls-2" d="M50.85,19.8V44.38H46V19.8Z" transform="translate(-29.5 -19.8)"/><path class="cls-2" d="M86.71,102.39A25.93,25.93,0,0,0,70,110.73c-5.62-5.56-12.23-8.69-20.22-8.39s-14.33,4.14-19.75,10C26,88.2,44.47,47.64,86.63,44.7v-7h4.58c.11,2.23.22,4.57.34,7.12,19.12,1.47,34.31,9.92,45.4,25.48a63.39,63.39,0,0,1,11.43,42C135.4,99.77,122,98.6,108,110.53a26.17,26.17,0,0,0-16.27-8.08,17.87,17.87,0,0,0-.33,2.26q0,31.29,0,62.56c0,4.47,2.93,7.66,7,7.83s7.23-3.12,7.49-7.7c0-.67.1-1.33.16-2.16h4.07c1.18,6.7-2.86,13.18-8.77,14.24-7.28,1.29-13-2.62-14.33-9.84a25.4,25.4,0,0,1-.27-4.45q0-29.38,0-58.78Zm18.75-.17a5.28,5.28,0,0,0,.29-1.2c-.61-12.94-2-25.78-6.33-38.08a42.14,42.14,0,0,0-4-8.31c-4.07-6.41-8.53-6.45-12.63-.13A40.7,40.7,0,0,0,79,62.16c-3.69,9.57-5.25,19.61-6.12,29.77-.29,3.32-.43,6.66-.67,10.52C83.65,96,94.54,95.92,105.46,102.22Zm-38.35-.1c1.1-8.88,2-17.63,3.33-26.28A67.15,67.15,0,0,1,79.14,51C55.79,54.37,35,78.18,34.66,102,45.58,96.06,56.46,95.87,67.11,102.12ZM98.79,51c4.87,7.71,7.36,16.12,8.75,24.81s2.23,17.51,3.33,26.43C121.7,96,132.56,96,143.53,102,143.1,78.52,120.6,53,98.79,51Z" transform="translate(-29.5 -19.8)"/><path class="cls-2" d="M31.91,32.5h4.23V62.16H31.91Z" transform="translate(-29.5 -19.8)"/><path class="cls-2" d="M146.21,62.27h-4.33V32.6h4.33Z" transform="translate(-29.5 -19.8)"/><path class="cls-2" d="M113.24,39.49V22.65h4.1V39.49Z" transform="translate(-29.5 -19.8)"/><path class="cls-2" d="M64.93,42.14H60.74V30.2h4.19Z" transform="translate(-29.5 -19.8)"/><path class="cls-2" d="M131.73,49.51h-4.2V37.66l4.2-.19Z" transform="translate(-29.5 -19.8)"/><path class="cls-2" d="M79,32.08h-4V22.65l4-.22Z" transform="translate(-29.5 -19.8)"/><path class="cls-3" d="M151.35,139.61V135.4h4.44v4.21Z" transform="translate(-29.5 -19.8)"/><path class="cls-3" d="M122.18,139.72h-4.12v-4.3h4.12Z" transform="translate(-29.5 -19.8)"/></g></svg>