<svg xmlns="http://www.w3.org/2000/svg" viewBox="0 0 162.38 86.12"><defs><style>.cls-1,.cls-2,.cls-3{fill:none;stroke-linejoin:round;stroke-width:3px;}.cls-1{stroke:#832626;}.cls-1,.cls-2{stroke-linecap:round;}.cls-2,.cls-3{stroke:#f6a31d;}</style></defs><title>deposit</title><g id="Joining_Fees" data-name="Joining Fees"><path class="cls-1" d="M20.15,133.4H179.53V50.28H20.15V133.4Zm29-3.66a25,25,0,0,0-25-25m126.34,25a25,25,0,0,1,25-25M49.18,53.94a25,25,0,0,1-25,25m126.34-25a25,25,0,0,0,25,25M59.22,97.08A5.25,5.25,0,1,0,54,91.84a5.25,5.25,0,0,0,5.25,5.24Zm81.18,0a5.25,5.25,0,1,0-5.25-5.24,5.25,5.25,0,0,0,5.25,5.24Z" transform="translate(-18.65 -48.78)"/><path class="cls-2" d="M100,117.48c11.2,0,20.28-12.11,20.28-27S111.23,63.38,100,63.38,79.74,75.49,79.74,90.43s9.08,27.05,20.29,27.05Z" transform="translate(-18.65 -48.78)"/><polyline class="cls-3" points="79.26 44.11 73.21 44.1 83.64 56.61"/><line class="cls-3" x1="72.17" y1="37.85" x2="88.85" y2="37.85"/><line class="cls-3" x1="72.17" y1="31.59" x2="88.85" y2="31.59"/><path class="cls-3" d="M97.91,80.37a6.26,6.26,0,1,1,0,12.52" transform="translate(-18.65 -48.78)"/></g></svg>