<svg xmlns="http://www.w3.org/2000/svg" viewBox="0 0 146.54 159.41"><defs><style>.cls-1,.cls-2{fill:none;stroke-miterlimit:10;stroke-width:3px;}.cls-1{stroke:#832826;}.cls-2{stroke:#f6a31d;}</style></defs><title>check_eligibility</title><g id="Layer_179" data-name="Layer 179"><path class="cls-1" d="M137.43,104.5V173a5.45,5.45,0,0,1-5.46,5.45H33.68A5.45,5.45,0,0,1,28.23,173V27.52a5.45,5.45,0,0,1,5.45-5.45H132a5.45,5.45,0,0,1,5.46,5.45V78.17" transform="translate(-26.73 -20.57)"/><line class="cls-2" x1="18.8" y1="36.02" x2="66.47" y2="36.02"/><line class="cls-2" x1="18.8" y1="59.67" x2="66.47" y2="59.67"/><line class="cls-2" x1="18.8" y1="82.95" x2="66.47" y2="82.95"/><line class="cls-2" x1="18.8" y1="106.6" x2="66.47" y2="106.6"/><line class="cls-2" x1="18.8" y1="129.87" x2="66.47" y2="129.87"/><path class="cls-1" d="M103.39,46.78l5.2,9s1,1.41,1.83,0l6.9-16.19" transform="translate(-26.73 -20.57)"/><path class="cls-1" d="M103.39,70.57l5.2,9s1,1.41,1.83,0l6.9-16.19" transform="translate(-26.73 -20.57)"/><path class="cls-1" d="M103.39,93.78l5.2,9s1,1.41,1.83,0l6.9-16.19" transform="translate(-26.73 -20.57)"/><path class="cls-1" d="M110.71,126.46s-.57-5.63,1.26-8.73l42.1-56.28,8.87-11.86s2.67-4.22,5.35-3.66l2.81,2.4a3.6,3.6,0,0,1,.14,3.94l-49.55,66.31S115.63,126.6,110.71,126.46Z" transform="translate(-26.73 -20.57)"/><path class="cls-1" d="M151.11,94.08l14.36-19.29a3.67,3.67,0,0,0,0-4.64l-10-8.59" transform="translate(-26.73 -20.57)"/><line class="cls-1" x1="84.43" y1="105.3" x2="81.61" y2="108.68"/></g></svg>