<svg xmlns="http://www.w3.org/2000/svg" viewBox="0 0 159.92 159.92"><defs><style>.cls-1,.cls-2{fill:none;stroke-miterlimit:10;stroke-width:3px;}.cls-1{stroke:#f6a31d;}.cls-2{stroke:#832626;}.cls-3{font-size:34px;fill:#832626;font-family:Times-BoldItalic, Times;font-weight:700;font-style:italic;}.cls-4{letter-spacing:-0.07em;}.cls-5{letter-spacing:-0.13em;}.cls-6{letter-spacing:-0.09em;}.cls-7{letter-spacing:0em;}</style></defs><title>swift</title><g id="Layer_215" data-name="Layer 215"><path class="cls-1" d="M62.08,81.71A93.56,93.56,0,0,1,99.39,23.1m.16,154.73a93.49,93.49,0,0,1-37.23-57.52M139.8,82.75A93.59,93.59,0,0,0,102.29,23.1m-.15,154.73a93.42,93.42,0,0,0,37.23-57.57" transform="translate(-20.3 -20.3)"/><path class="cls-2" d="M100.26,21.8A78.46,78.46,0,1,1,21.8,100.26,78.47,78.47,0,0,1,100.26,21.8Zm0,98.23v58.62m0-156.85V82.11M23.84,120.26H176.69M23.84,82.34H176.69m-21-36.71c-12,10.81-32.37,17.93-55.5,17.93S56.8,56.48,44.81,45.7M155.72,154.89c-12-10.81-32.37-17.93-55.5-17.93S56.8,144,44.81,154.82" transform="translate(-20.3 -20.3)"/><text class="cls-3" transform="translate(9.93 92.12)">S.<tspan class="cls-4" x="27.41" y="0">W</tspan><tspan x="55.13" y="0">.I.</tspan><tspan class="cls-5" x="85.37" y="0">F</tspan><tspan x="103.66" y="0">.</tspan><tspan class="cls-6" x="112.16" y="0">T</tspan><tspan class="cls-7" x="129.81" y="0">.</tspan></text></g></svg>