<svg xmlns="http://www.w3.org/2000/svg" viewBox="0 0 143.19 150.92"><defs><style>.cls-1,.cls-2{fill:none;stroke-miterlimit:10;stroke-width:3px;}.cls-1{stroke:#f6a31d;}.cls-2{stroke:#832626;}.cls-3{fill:#f6a31d;}</style></defs><title>fuel_surcharge</title><g id="fuel_surcharge" data-name="fuel surcharge"><path class="cls-1" d="M53.46,37.69H103.3a3.59,3.59,0,0,1,3.59,3.59V75.76a3.6,3.6,0,0,1-3.59,3.6H53.77a3.6,3.6,0,0,1-3.6-3.57l-.31-34.47A3.6,3.6,0,0,1,53.46,37.69Z" transform="translate(-28.43 -22.99)"/><path class="cls-2" d="M46.2,24.49h65.41a8,8,0,0,1,8,8V161.46H36.31V39.5l.07-5.32A9.82,9.82,0,0,1,46.2,24.49Z" transform="translate(-28.43 -22.99)"/><path class="cls-2" d="M29.93,172.41h97.8v-6.95s-.94-4-8.07-4H36.31s-5.81,1.37-5.81,3.63A52.61,52.61,0,0,0,29.93,172.41Z" transform="translate(-28.43 -22.99)"/><path class="cls-3" d="M77.7,104.12S67.24,118.29,64.47,130c0,0-1,15,13.89,16,0,0,14.5-.32,14.83-14.26,0,0-1-10.09-9.76-22.53l-2.91-4.5A1.93,1.93,0,0,0,77.7,104.12Z" transform="translate(-28.43 -22.99)"/><path class="cls-2" d="M128.85,55.86l4-3.52s1.12-1.41,3.23.85l6.9,7" transform="translate(-28.43 -22.99)"/><path class="cls-2" d="M122.1,118.93h5.5V151s1.25,18.16,19.41,18.16c0,0,16.48.56,21.54-19.85,0,0,3.8-23.09-.42-39.7,0,0-6-35-12.25-45.75l-1.4-2.54-1.41-1.41L131.25,37.7a12.5,12.5,0,0,0-4.37-1.27h-5.49v7.32h4.23a4.85,4.85,0,0,1,.84,3.66l.14,6.2A10.06,10.06,0,0,0,129,57.13l7.18,8s2.12,1.83,3.66.28l4.95-4.66,4.91,4.66s11.68,30,12.11,45.19c0,0,4.5,29.15.14,38.16,0,0-3.95,15.06-14.36,14.21,0,0-11.55,1.69-13.66-11.54v-31s-.28-7.32-4.64-7.88H122Z" transform="translate(-28.43 -22.99)"/><line class="cls-2" x1="122.24" y1="41.6" x2="126.04" y2="38.37"/></g></svg>