<svg xmlns="http://www.w3.org/2000/svg" viewBox="0 0 159 153.8"  fill="none" xmlns:v="https://vecta.io/nano"><path d="M94.1 20.9S88.2 13 87.3 9.6H17.5m0 10.4V4s.8-2.5 4.8-2.5h91.8s2.2.3 2.2 3.4v16.3" stroke="#fff" stroke-width="3" stroke-miterlimit="10"/><g stroke="#f4a31f"><path d="M131.3,129.4v10.9c0,6.6-5.4,12-12,12H13.5c-6.6,0-12-5.4-12-12V33.5c0-6.6,5.4-12,12-12h105.8    c6.6,0,12,5.4,12,12l0,0v60.6" stroke-width="3" stroke-miterlimit="10"/><path d="M114.1 21.5h22.4a12.04 12.04 0 0 1 12 12h0v60.6H94.2s-19.1.4-19.1 17.3c0 0 .4 15.4 14.6 17.3l58.8.8v10.9a12.04 12.04 0 0 1-12 12h-19.8m32.7-23s8.1-1.1 8.1-8.5v-20.4s-1-6.6-9-6.4" stroke-width="3" stroke-miterlimit="10"/></g><circle cx="93.9" cy="111.7" r="9.4" stroke="#fff" stroke-width="3"/></svg>