<svg xmlns="http://www.w3.org/2000/svg" viewBox="0 0 158.46 158.85"><defs><style>.cls-1,.cls-3{fill:none;stroke-width:3px;}.cls-1{stroke:#fff;stroke-miterlimit:10;}.cls-2{fill:#fff;}.cls-3{stroke:#f5a31e;stroke-linejoin:round;}</style></defs><title>open_current_account_normal</title><g id="open_fd_copy" data-name="open fd copy"><g id="Layer_355" data-name="Layer 355"><g id="current_account" data-name="current account"><path class="cls-1" d="M56.68,129.14l6.66-2.89s14.2-7.54,22.6-3.19c0,0,16.52,6.08,24.34,4.35,0,0,19.41-2,20,3.76,0,0,2.61,6.39-1.74,9.56,0,0-20,7.67-32.48,5.06" transform="translate(-21.52 -20.57)"/><path class="cls-1" d="M131.17,137.35c-1.78.63,14-5.89,18.8-10.23,0,0,7-6.19,8.89-9.28,0,0,9.08-13.52,14.49-13.52,0,0,3.42-1.4,4.63,3.67a22.5,22.5,0,0,1-.77,12.17s-7.1,16.37-15.07,23.37c0,0-25.3,22.41-32.83,24.73,0,0-12.75,4.06-21.25,2.9,0,0-37.67-.39-51-3.29" transform="translate(-21.52 -20.57)"/><path class="cls-1" d="M47.5,177.92h0a8.21,8.21,0,0,1-8.23-8.2h0V121.8a8.22,8.22,0,0,1,8.21-8.21h0a8.22,8.22,0,0,1,8.21,8.21v47.91A8.21,8.21,0,0,1,47.5,177.92Z" transform="translate(-21.52 -20.57)"/><path class="cls-2" d="M23.27,125.9h13.9a1.88,1.88,0,0,0,0-3.75H23.27a1.88,1.88,0,0,0,0,3.75Z" transform="translate(-21.52 -20.57)"/><path class="cls-2" d="M23.27,172.68h13.9a1.88,1.88,0,0,0,0-3.75H23.27a1.88,1.88,0,0,0,0,3.75Z" transform="translate(-21.52 -20.57)"/><path class="cls-1" d="M56.53,29.07v-3a4,4,0,0,1,4-4H145.1a4,4,0,0,1,4,4V28.8" transform="translate(-21.52 -20.57)"/><path class="cls-1" d="M160.63,77.11v17.3a8.71,8.71,0,0,1-8.67,8.7H54.05a8.69,8.69,0,0,1-8.67-8.7V37.48a8.71,8.71,0,0,1,8.67-8.7H152a8.72,8.72,0,0,1,8.67,8.7V55.19" transform="translate(-21.52 -20.57)"/><rect class="cls-1" x="120.25" y="34.57" width="29.18" height="21.45" rx="6.4"/><circle class="cls-3" cx="130.27" cy="45.84" r="3.12"/><line class="cls-1" x1="35.59" y1="74.14" x2="127.36" y2="74.14"/><polyline class="cls-3" points="80.36 44.39 72.6 44.38 85.98 60.34"/><line class="cls-3" x1="71.26" y1="36.4" x2="92.66" y2="36.4"/><line class="cls-3" x1="71.26" y1="28.42" x2="92.66" y2="28.42"/><path class="cls-3" d="M101.88,49a8,8,0,0,1,0,16" transform="translate(-21.52 -20.57)"/></g></g></g></svg>