<svg xmlns="http://www.w3.org/2000/svg" viewBox="0 0 125.28 159.32"><defs><style>.cls-1,.cls-2,.cls-3{fill:none;}.cls-1,.cls-2{stroke:#f5a31e;stroke-width:3px;}.cls-1{stroke-miterlimit:10;}.cls-2{stroke-linecap:round;}.cls-2,.cls-3{stroke-linejoin:round;}.cls-3{stroke:#fff;stroke-width:2px;}</style></defs><title>open_fd_hover</title><g id="Layer_351_copy" data-name="Layer 351 copy"><g id="Layer_300" data-name="Layer 300"><path class="cls-1" d="M159.28,70.83l-.35,86.49s1,20.5-20.5,20.5h-82S37,174,37,156.66V69.09s.14-29.18,27.79-29.18,64.73-.34,64.73-.34S159.28,40.26,159.28,70.83Z" transform="translate(-35.5 -20)"/><rect class="cls-2" x="30.68" y="1.5" width="63.34" height="18.06"/><path class="cls-1" d="M99.7,105a17.46,17.46,0,1,1-21.17,12.71A17.45,17.45,0,0,1,99.7,105Z" transform="translate(-35.5 -20)"/><polyline class="cls-3" points="58.88 101.93 54.4 100.76 59.72 112.03"/><line class="cls-3" x1="54.83" y1="95.92" x2="67.19" y2="99.13"/><line class="cls-3" x1="56.03" y1="91.28" x2="68.4" y2="94.49"/><path class="cls-3" d="M96.79,112.66a4.8,4.8,0,0,1-2.41,9.28" transform="translate(-35.5 -20)"/><path class="cls-1" d="M56.14,142.86a17.46,17.46,0,1,1-10.3,22.46,17.47,17.47,0,0,1,10.3-22.46Z" transform="translate(-35.5 -20)"/><polyline class="cls-3" points="25.8 139.82 21.44 141.38 32.2 147.67"/><line class="cls-3" x1="19.06" y1="137.15" x2="31.07" y2="132.81"/><line class="cls-3" x1="17.43" y1="132.65" x2="29.44" y2="128.3"/><path class="cls-3" d="M58,150.8a4.8,4.8,0,0,1,3.26,9" transform="translate(-35.5 -20)"/><path class="cls-1" d="M66.44,106.66a17.46,17.46,0,1,1-24,5.72l0,0A17.45,17.45,0,0,1,66.44,106.66Z" transform="translate(-35.5 -20)"/><polyline class="cls-3" points="20.74 101.15 16.83 98.67 18.48 111.03"/><line class="cls-3" x1="18.71" y1="94.19" x2="29.51" y2="101"/><line class="cls-3" x1="21.26" y1="90.14" x2="32.07" y2="96.95"/><path class="cls-3" d="M61.36,113a4.79,4.79,0,1,1-5.11,8.11" transform="translate(-35.5 -20)"/><path class="cls-1" d="M89.05,145.33a17.46,17.46,0,1,1-3.33,24.47,17.47,17.47,0,0,1,3.33-24.47Z" transform="translate(-35.5 -20)"/><polyline class="cls-3" points="63.42 140.05 59.7 142.81 71.83 145.72"/><line class="cls-3" x1="56.2" y1="139.45" x2="66.44" y2="131.82"/><line class="cls-3" x1="53.34" y1="135.61" x2="63.58" y2="127.98"/><path class="cls-3" d="M93.19,152.37a4.8,4.8,0,0,1,5.73,7.69" transform="translate(-35.5 -20)"/><path class="cls-1" d="M133.14,141.85A17.46,17.46,0,1,1,117.52,161a17.46,17.46,0,0,1,15.62-19.13Z" transform="translate(-35.5 -20)"/><polyline class="cls-3" points="98.34 139.57 93.73 139.98 102.56 148.79"/><line class="cls-3" x1="92.5" y1="135.29" x2="105.22" y2="134.12"/><line class="cls-3" x1="92.06" y1="130.52" x2="104.78" y2="129.35"/><path class="cls-3" d="M133,150a4.8,4.8,0,0,1,.88,9.55" transform="translate(-35.5 -20)"/><path class="cls-1" d="M146.78,106.5a17.46,17.46,0,1,1-23.8,6.59,17.47,17.47,0,0,1,23.8-6.59Z" transform="translate(-35.5 -20)"/><polyline class="cls-3" points="101.63 101.38 97.63 99.05 99.75 111.34"/><line class="cls-3" x1="99.34" y1="94.51" x2="110.39" y2="100.9"/><line class="cls-3" x1="101.74" y1="90.36" x2="112.79" y2="96.76"/><path class="cls-3" d="M141.94,113.08a4.8,4.8,0,0,1-4.8,8.3" transform="translate(-35.5 -20)"/><line class="cls-1" x1="42.22" y1="2.43" x2="42.22" y2="18.64"/><line class="cls-1" x1="49.16" y1="2.43" x2="49.16" y2="18.64"/></g></g></svg>