<svg xmlns="http://www.w3.org/2000/svg" viewBox="0 0 161.45 110.06"><defs><style>.cls-1,.cls-2{fill:none;stroke-miterlimit:10;stroke-width:3px;}.cls-1{stroke:#832626;}.cls-2{stroke:#f6a31d;}</style></defs><title>contactless Card</title><g id="Layer_47" data-name="Layer 47"><path class="cls-1" d="M166.7,153.53a12.63,12.63,0,0,0,12.53-12.9V59.26A12.54,12.54,0,0,0,166.7,46.47H33.94A13.08,13.08,0,0,0,20.77,59.26v81.37a13.17,13.17,0,0,0,13.17,12.9Z" transform="translate(-19.27 -44.97)"/><line class="cls-1" x1="18.63" y1="82.87" x2="40.04" y2="82.87"/><line class="cls-1" x1="52.89" y1="82.87" x2="74.3" y2="82.87"/><line class="cls-1" x1="87.15" y1="82.87" x2="108.56" y2="82.87"/><line class="cls-1" x1="121.41" y1="82.87" x2="142.82" y2="82.87"/><rect class="cls-1" x="22.91" y="27.2" width="38.54" height="25.7" rx="2"/><path class="cls-2" d="M142.73,91.5a12.27,12.27,0,0,0,0-17.35" transform="translate(-19.27 -44.97)"/><path class="cls-2" d="M137.1,87.2a6.19,6.19,0,0,0,0-8.76" transform="translate(-19.27 -44.97)"/><path class="cls-2" d="M148.51,95.09a17.13,17.13,0,0,0,0-24.23" transform="translate(-19.27 -44.97)"/><path class="cls-2" d="M155.28,99.66a23.59,23.59,0,0,0,0-33.37" transform="translate(-19.27 -44.97)"/></g></svg>