<svg xmlns="http://www.w3.org/2000/svg" viewBox="0 0 159.94 159.69"><defs><style>.cls-1,.cls-2,.cls-3{fill:none;stroke-width:3px;}.cls-1,.cls-3{stroke:#832826;}.cls-1{stroke-linecap:round;stroke-linejoin:round;}.cls-2{stroke:#f6a31d;}.cls-2,.cls-3{stroke-miterlimit:22.93;}</style></defs><title>customer_care</title><g id="Layer_152" data-name="Layer 152"><path class="cls-1" d="M111,167.27c10.37-1.55,20.88-5.17,27.94-12.24,8.78-8.77,15.61-23.64,15.61-36.94V72.82c0-13.3-6.83-26.79-15.61-35.56s-22.26-15.61-35.56-15.61H96.75c-13.3,0-26.79,6.84-35.56,15.61S45.58,59.52,45.58,72.82v45.27" transform="translate(-20.03 -20.15)"/><path class="cls-2" d="M119,82a3.5,3.5,0,1,1-3.51,3.5A3.5,3.5,0,0,1,119,82ZM81.17,82a3.5,3.5,0,1,1-3.51,3.5A3.5,3.5,0,0,1,81.17,82Z" transform="translate(-20.03 -20.15)"/><path class="cls-1" d="M44,118.8c-12.55-1-22.46-12.14-22.46-25.79S31.44,68.18,44,67.22M156,118.8c12.55-1,22.46-12.14,22.46-25.79S168.56,68.18,156,67.22m-76.9,48c2.14,7.63,10.68,13.33,20.89,13.33s18.75-5.7,20.9-13.33" transform="translate(-20.03 -20.15)"/><path class="cls-3" d="M100,156.42a11,11,0,1,1-11,11,11,11,0,0,1,11-11Z" transform="translate(-20.03 -20.15)"/><path class="cls-1" d="M44.62,68.53A54.83,54.83,0,0,0,81.8,40.94a54.61,54.61,0,0,0,39.37,16.69,54.52,54.52,0,0,0,27-7.08" transform="translate(-20.03 -20.15)"/></g></svg>