<svg xmlns="http://www.w3.org/2000/svg" viewBox="0 0 110.45 109.14"><defs><style>.cls-1{fill:#832626;}</style></defs><title>scan_qrcode</title><g id="QR_code" data-name="QR code"><path d="M143.47,143.46h-6.78c-.06-1-.13-2.1-.21-3.32h3.39c.25-2.35.06-4.59.15-7h-3.31c-.09.9-.21,2-.35,3.33-2.26,0-4.53,0-6.86-.06-.06-1-.06-2.14-.06-3.24h-3.26v3.17c1.19,0,2.28,0,3.32.07.06,1.16.06,2.25.06,3.54h-7c-.07-2.28-.07-4.56-.07-7.13h-7v-3.21h-6.61V133l3.18.17c.1,1.22.18,2.3.28,3.51H119c.12,1.22.23,2.3.34,3.36h3.2c.08,1,.08,2,.08,3.33-2.21.34-4.45,0-6.84.2v-3.43h-7c-.07-1.27-.12-2.24-.18-3.4H98.36v3.13h3.19c.08,1.21.15,2.27.22,3.5H84.5c-.35-5.54,0-11.25-.18-17.25h3.51v6.79l3.64.4v6.62h3.38V133H105v-3.52H98.24c.09-2.38-.11-4.62.13-6.83,1.34,0,2.36,0,3.43.06.06,1,.06,2.13.06,3.23h3.26v-3.17c-1.18,0-2.28,0-3.32-.06-.06-1.18-.06-2.29-.06-3.37l-3.48-.39v-3.26h3.36c.1-1.32.19-2.39.29-3.57h3.31v-6.86h7v3.47h-3.48v7h-3.51c.08,1.37.13,2.43.19,3.48,1.31,0,2.32,0,3.38.07.06,2.18.06,4.43.06,6.7h3.28v-6.64c-1.18,0-2.29,0-3.34-.06-.06-1.23-.06-2.39-.06-3.55h3.48v-7h10.44v-7h3.47v10.43h10.44v3.48H140v3.48h3.47v3.48H140c.07,1.37.13,2.43.19,3.47h3.32ZM132.92,126.2h-3.17v3.26h3.17a31.17,31.17,0,0,1,.12-3.39h3.51c-.07-1.37-.13-2.43-.18-3.47a26.67,26.67,0,0,1-3.44-.14v-6.64h-3.28v6.64a26.9,26.9,0,0,1,3.39.14C133,123.76,133,124.91,132.92,126.2Zm-17.2-.27h10.36c0-1.85,0-3.57,0-5.28s-.07-3.36-.1-4.87H115.72Z" transform="translate(-44.77 -45.43)"/><path d="M143.47,80.86H119.59a2.16,2.16,0,0,1-.31-.29.7.7,0,0,1-.15-.37V56.52h24.34Zm-3.54-20.72H122.58c.13,5.85-.16,11.55.17,17.1h17.18Z" transform="translate(-44.77 -45.43)"/><path d="M143.47,98.25H140.2c-.11,1.06-.22,2.14-.34,3.35h-6.62V98.34l3.1-.17V95l-3.3-.35V91.29h3.32v-6.8h3.49v6.8h3.62Z" transform="translate(-44.77 -45.43)"/><path d="M136.52,112.16v-7h6.95v3.47H140v3.48Z" transform="translate(-44.77 -45.43)"/><circle cx="96.96" cy="68.47" r="2.46"/><path d="M80.72,80.79h-24v-24c-.05,0,0-.07.15-.15a.77.77,0,0,1,.38-.14c7.79,0,15.58,0,23.52,0ZM60.08,77.24H77.42c-.13-5.85.16-11.56-.17-17.1H60.08Z" transform="translate(-44.77 -45.43)"/><path d="M80.8,119.26v24.06h-24c0,.05-.07,0-.15-.16a.75.75,0,0,1-.13-.38V119.26Zm-3.48,3.49H60c0,5.85-.05,11.55.06,17.09H77.32Z" transform="translate(-44.77 -45.43)"/><path d="M115.65,87.82v3.47h-3.57v10.64h-6.86v3.28h-3.48v-3.32l-3.3-.34V94.88h3.19c.09,1.18.17,2.27.24,3.24h3.35c0-1.85,0-3.56,0-5.28s-.06-3.36-.1-5h-3.37V84.51l3.48-.38V77.38c1.16,0,2.32,0,3.54.06.06,1,.06,2.14.06,3.24h3.26V77.51c-1.19,0-2.29,0-3.32-.07-.07-1.22-.07-2.38-.07-3.53h3.48V70.43h3.43c.11,4.62,0,9.27.05,13.91h-7c.07,1.36.13,2.43.19,3.48Z" transform="translate(-44.77 -45.43)"/><path d="M73.92,101.73V91.32h6.79V88l-3.17-.35V84.48H87.83V80.86h3.48V77.38h3.47v3.48h3.48v7H94.78V84.34c-.84,0-1.4,0-2,0s-1,.13-1.52.2v3.27H87.83V98.25H84.48c-.12-1.33-.21-2.4-.3-3.38H77.56v3.26l3.31.3v3.3Z" transform="translate(-44.77 -45.43)"/><path d="M87.83,126.07v-3.3l-3.4-.3V112.16H80.87v-3.48h3.48v-3.47h3.31l.38,3.47h3.27v7h3.47V119l-3.47.38v6.74Z" transform="translate(-44.77 -45.43)"/><path d="M105.22,73.91V70.56H98.39v-6.9h3.26c0,1,.1,2,.16,3.12h6.73V60.12H112c.09-1.21.18-2.3.28-3.49h3.18v6.66l-3.3.34v6.8h-3.48v3.48Z" transform="translate(-44.77 -45.43)"/><path d="M115.65,91.29h7v3.43h6.77v7h-3.3V98.21l-3.47.19v3.33h-3.33c-.14,1.34-.24,2.41-.33,3.35h-3.3Z" transform="translate(-44.77 -45.43)"/><path d="M63.48,105.21H60.17c-.39,3.33,0,6.72-.26,10.25H56.63V101.93l3.37-.36V98.25h6.87c.06-1.18.1-2.15.16-3.29h3.41v6.77h-7Z" transform="translate(-44.77 -45.43)"/><path d="M56.6,91.15V84.49H73.81v3.28H70.53c-.06,1.26-.11,2.23-.16,3.36H67.14c-.09-.87-.2-1.94-.32-3.16H63.68c-.1.89-.22,2-.35,3.18Z" transform="translate(-44.77 -45.43)"/><path d="M87.83,80.86H84.46c-.24-2.21,0-4.45-.13-6.83h3.29V70.52l-3.09-.17V67H94.62v3.19l-3.31.37v6.78H87.83Z" transform="translate(-44.77 -45.43)"/><path d="M70.44,101.73h3.48v13.83H70.59v-3.25H63.48v-7.1h3.36c.1,1.32.19,2.38.27,3.36h3.33Z" transform="translate(-44.77 -45.43)"/><path d="M94.78,77.38V73.91h10.44v3.47h-3.31c-.15,1.36-.27,2.44-.39,3.48H98.26V77.38Z" transform="translate(-44.77 -45.43)"/><path d="M91.44,56.6h3.21v6.74l-3.21.16Z" transform="translate(-44.77 -45.43)"/><path d="M105.22,56.65v3.24c-2.2.23-4.43,0-6.81.12V56.65A34.43,34.43,0,0,1,105.22,56.65Z" transform="translate(-44.77 -45.43)"/><path d="M122.72,91.16V84.44h3.18v6.72Z" transform="translate(-44.77 -45.43)"/><path d="M132.93,91.16h-3.28V84.52h3.28Z" transform="translate(-44.77 -45.43)"/><path d="M88,63.4H84.5V60.14a6.6,6.6,0,0,1,2.62-.08C88.51,60.59,87.52,62,88,63.4Z" transform="translate(-44.77 -45.43)"/><path d="M59.88,98.13H56.62V95h3.26Z" transform="translate(-44.77 -45.43)"/><path d="M80.87,105.21v-3.48h3.48v3.48Z" transform="translate(-44.77 -45.43)"/><path d="M80.75,112.29v3.26H77.58v-3.26Z" transform="translate(-44.77 -45.43)"/><path d="M115.65,84.34H119c0,1,.11,2.11.18,3.48h-3.51Z" transform="translate(-44.77 -45.43)"/><path d="M80.87,108.68H77.55c-.06-1-.12-2.11-.19-3.47h3.51Z" transform="translate(-44.77 -45.43)"/><path d="M132.89,108.61h-3.18v-3.26l3.18-.17Z" transform="translate(-44.77 -45.43)"/><path d="M94.78,115.64v-7H91.31v-3.47h10.43v3.26l-3.48.38v6.79Z" transform="translate(-44.77 -45.43)"/><path d="M91.43,126.2h3.26v3.17H91.43Z" transform="translate(-44.77 -45.43)"/><path d="M119.28,119.19h3.18v3.26l-3.18.17Z" transform="translate(-44.77 -45.43)"/><path d="M126.23,63.54h10.14V73.81c-1.5,0-3.18.07-4.85.09s-3.43,0-5.29,0Z" transform="translate(-44.77 -45.43)"/><path d="M63.56,73.76V63.61H73.81c0,1.52.08,3.19.1,4.87s0,3.43,0,5.28Z" transform="translate(-44.77 -45.43)"/><path d="M63.55,136.36V126.22H73.82c0,1.5.08,3.18.09,4.85s0,3.43,0,5.29Z" transform="translate(-44.77 -45.43)"/><path d="M91.31,87.82h3.47v6.8l-3.47.19Z" transform="translate(-44.77 -45.43)"/><path d="M88,98.36h6.72v3.18H88Z" transform="translate(-44.77 -45.43)"/><path d="M98.26,87.82h3.48v3.32l-3.48.19Z" transform="translate(-44.77 -45.43)"/><polygon class="cls-1" points="5.26 22.35 0 22.35 0 0 23.67 0 23.67 5.26 5.26 5.26 5.26 22.35"/><polygon class="cls-1" points="105.19 22.35 110.45 22.35 110.45 0 86.78 0 86.78 5.26 105.19 5.26 105.19 22.35"/><polygon class="cls-1" points="5.26 86.78 0 86.78 0 109.14 23.67 109.14 23.67 103.88 5.26 103.88 5.26 86.78"/><polygon class="cls-1" points="105.19 86.78 110.45 86.78 110.45 109.14 86.78 109.14 86.78 103.88 105.19 103.88 105.19 86.78"/></g></svg>