<svg xmlns="http://www.w3.org/2000/svg" viewBox="0 0 161 126.69"><defs><style>.cls-1{fill:#832826;stroke:#842726;}.cls-1,.cls-2{stroke-miterlimit:10;}.cls-2{fill:#f6a31d;stroke:#f6a31d;}</style></defs><title>24x7</title><g id="_24x7" data-name="24x7"><path class="cls-1" d="M152.86,88a1.7,1.7,0,0,0-2.38.36l-5,6.72a62.86,62.86,0,0,0-125.5,4,62.86,62.86,0,0,0,62.84,63.73,1.71,1.71,0,1,0,0-3.41A59.41,59.41,0,0,1,23.42,99.15C23.86,67.3,50.14,41,82,40.58A59.42,59.42,0,0,1,142.12,95.7l-6.88-7a1.71,1.71,0,0,0-2.43,2.4c.18.18,10,10.08,10.15,10.22a1.69,1.69,0,0,0,1,.34,1.71,1.71,0,0,0,1.37-.69l7.87-10.62A1.71,1.71,0,0,0,152.86,88Z" transform="translate(-19.5 -36.66)"/><path class="cls-2" d="M93.54,102.9l-5.85-2.38A5.5,5.5,0,0,0,87,98.1l20.83-24.17a1.71,1.71,0,0,0-2.58-2.23L84.51,95.78a5.4,5.4,0,0,0-6.2,1.2L60.16,89.73A1.71,1.71,0,0,0,58.9,92.9l17.94,7.16c0,.22,0,.45,0,.67a5.47,5.47,0,0,0,.57,2.43l-4.31,4.64a1.71,1.71,0,0,0,2.5,2.32l4.22-4.53a5.39,5.39,0,0,0,2.47.59,5.45,5.45,0,0,0,4.49-2.36l5.52,2.24a1.7,1.7,0,0,0,1.28-3.16Zm-11.29-.13a2,2,0,1,1,2-2A2,2,0,0,1,82.25,102.77Z" transform="translate(-19.5 -36.66)"/><path class="cls-1" d="M119.17,150.33H100.92l2.17-2.12c7.16-6.92,16.06-15.53,16.44-23.82.23-4.87-2.82-10.36-10.15-11.63a17.15,17.15,0,0,0-13,3.42,1.71,1.71,0,0,0,2.19,2.62,13.69,13.69,0,0,1,10.2-2.68c5.64,1,7.49,4.83,7.33,8.11-.32,6.94-9,15.37-15.4,21.53-1.63,1.58-3.17,3.06-4.45,4.41a2.11,2.11,0,0,0,1.53,3.57h21.37a1.71,1.71,0,0,0,0-3.41Z" transform="translate(-19.5 -36.66)"/><path class="cls-1" d="M147.91,137.93h-5.4V114.8a2.26,2.26,0,0,0-4.09-1.33l-17.55,24.27a2.28,2.28,0,0,0-.18,2.37,2.25,2.25,0,0,0,2,1.23h16.4V152a1.71,1.71,0,0,0,3.41,0v-10.7h5.4a1.71,1.71,0,1,0,0-3.41Zm-8.81,0H125l14.15-19.56Z" transform="translate(-19.5 -36.66)"/><path class="cls-1" d="M155.35,152a1.71,1.71,0,0,0,3.42,0V137.58c.27-1.16,2.21-8.12,9-8.12h0c7.17,0,8.35,4.14,8.61,7.23.31,3.66.14,15.2.14,15.32a1.7,1.7,0,0,0,1.68,1.73h0a1.69,1.69,0,0,0,1.7-1.68c0-.48.18-11.83-.15-15.66-.73-8.51-6.92-10.33-12-10.36h-.07a11.47,11.47,0,0,0-9,4.17v-16a1.71,1.71,0,0,0-3.42,0Z" transform="translate(-19.5 -36.66)"/></g></svg>