<svg xmlns="http://www.w3.org/2000/svg" viewBox="0 0 141.71 158.92"><defs><style>.cls-1,.cls-2{fill:none;stroke-width:3px;}.cls-1{stroke:#f6a31d;stroke-linejoin:round;}.cls-2{stroke:#832626;stroke-miterlimit:10;}</style></defs><title>additional_finance</title><g id="additional_Finance" data-name="additional Finance"><circle class="cls-1" cx="52.74" cy="104.23" r="29.47"/><path class="cls-2" d="M102.53,62.12c1.69,11.89,20.41,33.23,20.41,33.23,27.31,35.19-.56,65-.56,65-14.2,15-29.52,18.42-41.76,17.85" transform="translate(-29.94 -20.87)"/><path class="cls-2" d="M63.8,62.53C62.11,74.42,43.44,95.35,43.44,95.35c-27.32,35.19.56,65,.56,65,14.2,15,29.52,18.42,41.76,17.85" transform="translate(-29.94 -20.87)"/><path class="cls-2" d="M63.53,61.09h37.73S106,60.53,106,57s-2.62-4.69-4.88-4.69h-37s-4.69.56-4.69,4.32C59.4,56.59,59,61.09,63.53,61.09Z" transform="translate(-29.94 -20.87)"/><path class="cls-2" d="M64.09,52.27l-.56-1.13-13.7-26c-1-3.1,3.75-1.32,3.75-1.32,4,4.55,13.33,5.26,13.33,5.26,7.51,0,12.86-5.63,12.86-5.63,2.44-2.44,5.91,0,5.91,0a19.77,19.77,0,0,0,13.8,5.44c4,0,13.89-6.1,13.89-6.1,3.85-.94,1.78,3.38,1.78,3.38l-13.7,24.59-.66,1.41" transform="translate(-29.94 -20.87)"/><path class="cls-2" d="M141.05,122.28v49.18s1.22,3,6,3.57c0,0,12.67,2.72,21.21-1.5,0,0,1.88-.47,1.88-3.76v-47.3s-.19-2-3-2.72c0,0-12.11-6.57-24.41,0A2.62,2.62,0,0,0,141.05,122.28Z" transform="translate(-29.94 -20.87)"/><path class="cls-2" d="M141.9,124.25s14.91,6.39,27.71,0" transform="translate(-29.94 -20.87)"/><path class="cls-2" d="M141.9,132.42s14.91,6.38,27.71,0" transform="translate(-29.94 -20.87)"/><path class="cls-2" d="M141.9,139.42s14.91,6.38,27.71,0" transform="translate(-29.94 -20.87)"/><path class="cls-2" d="M141.9,147.42s14.91,6.38,27.71,0" transform="translate(-29.94 -20.87)"/><path class="cls-2" d="M141.9,155.42s14.64,6.38,27.22,0" transform="translate(-29.94 -20.87)"/><path class="cls-2" d="M141.9,155.42s14.91,6.38,27.71,0" transform="translate(-29.94 -20.87)"/><path class="cls-2" d="M141.9,164.12s14.91,6.38,27.71,0" transform="translate(-29.94 -20.87)"/><polyline class="cls-1" points="50.36 105.07 43.05 105.06 55.65 120.18"/><line class="cls-1" x1="41.79" y1="97.5" x2="61.96" y2="97.5"/><line class="cls-1" x1="41.79" y1="89.93" x2="61.96" y2="89.93"/><path class="cls-1" d="M80.3,110.8a7.57,7.57,0,1,1,0,15.14" transform="translate(-29.94 -20.87)"/></g></svg>