<svg xmlns="http://www.w3.org/2000/svg" viewBox="0 0 158.93 137.98"><defs><style>.cls-1,.cls-2{fill:none;stroke-miterlimit:10;stroke-width:3px;}.cls-1{stroke:#f6a31d;}.cls-2{stroke:#832626;}.cls-3{fill:#832626;}</style></defs><title>air_accident_insurance</title><g id="Travel_Insurance" data-name="Travel Insurance"><path class="cls-1" d="M23,72.82s26.46,3.24,29.7,3.38l46.74,3.66s3.94,0,4.79,2.27l3.52,5.33a9.69,9.69,0,0,0,4.36,1.27s12.25,0,15.2-2.39c0,0,.57,0-.14-2.4L125.62,80a1.67,1.67,0,0,1,1.4-2.11s33.09-1.41,40.27-6c0,0,7.32-4.37-.57-9.43,0,0-13.37-6.34-22-6.62L67.9,61.42l-2.26.14L33.4,33.26l-1.26-.7-9,.42s-1.55.71-1,2.11c0,0,11,20.56,11.83,27.6,0,0,1.55,1.83-1.55,2.81a89.57,89.57,0,0,1-10.7,2.4,5.3,5.3,0,0,0-.56,4.5Z" transform="translate(-19.41 -31.04)"/><path class="cls-2" d="M58.46,120.13l6.48-2.82s13.8-7.32,22-3.1c0,0,16,5.92,23.65,4.23,0,0,18.87-2,19.43,3.66,0,0,2.53,6.19-1.69,9.29,0,0-19.46,7.44-31.56,4.91" transform="translate(-19.41 -31.04)"/><path class="cls-2" d="M130.86,128.1c-1.74.61,13.62-5.72,18.27-9.95,0,0,6.75-6,8.63-9,0,0,8.82-13.14,14.08-13.14,0,0,3.33-1.36,4.5,3.57a21.88,21.88,0,0,1-.75,11.83s-6.9,15.9-14.64,22.71c0,0-24.59,21.77-31.91,24,0,0-12.39,3.94-20.65,2.81,0,0-36.6-.37-49.55-3.19" transform="translate(-19.41 -31.04)"/><path class="cls-2" d="M49.55,167.52h0a8,8,0,0,1-8-8V113a8,8,0,0,1,8-8h0a8,8,0,0,1,8,8v46.55A8,8,0,0,1,49.55,167.52Z" transform="translate(-19.41 -31.04)"/><path class="cls-3" d="M26,117H39.51a1.88,1.88,0,0,0,0-3.75H26A1.88,1.88,0,0,0,26,117Z" transform="translate(-19.41 -31.04)"/><path class="cls-3" d="M26,162.49H39.51a1.88,1.88,0,0,0,0-3.75H26a1.88,1.88,0,0,0,0,3.75Z" transform="translate(-19.41 -31.04)"/></g></svg>