<svg xmlns="http://www.w3.org/2000/svg" viewBox="0 0 154.1 160.49"><defs><style>.cls-1,.cls-2,.cls-3{fill:none;stroke-miterlimit:10;stroke-width:3px;}.cls-1{stroke:#832826;}.cls-2{stroke:#f6a31d;}.cls-3{stroke:#842726;stroke-linecap:round;}</style></defs><title>pos</title><g id="Layer_41" data-name="Layer 41"><polygon class="cls-1" points="94.4 83.81 78.49 73.49 41.77 100.97 57.68 111.29 94.4 83.81"/><path class="cls-1" d="M76.82,60.82c6.83-5.12,21.54-2.71,28.54,10.46a47.06,47.06,0,0,1,4.57,12.14l62.2,39.81a5.51,5.51,0,0,1,2.53,3.88c1,6.38,1.4,15.16-.08,20-5.59,11.19-21.64,23-41.36,30.59-5.31,2.05-14.55.84-19.43-2.19L56.88,141.07c-7,5.63-20.75-1-27.89-14.28s-5.6-26.87,2.76-33.6Z" transform="translate(-22.95 -19.75)"/><line class="cls-1" x1="74.82" y1="120.2" x2="81.8" y2="120.2"/><line class="cls-1" x1="88.78" y1="109.4" x2="95.76" y2="109.4"/><line class="cls-1" x1="102.75" y1="98.61" x2="109.73" y2="98.61"/><line class="cls-1" x1="88.78" y1="127.39" x2="95.76" y2="127.39"/><line class="cls-1" x1="102.75" y1="116.6" x2="109.73" y2="116.6"/><line class="cls-1" x1="116.71" y1="105.81" x2="123.7" y2="105.81"/><path class="cls-2" d="M167.59,107.58V73.12c0-5.92-2.88-12.63-6.91-15L98.51,22.07c-4-2.35-7.73.54-7.73,6.47V46.43" transform="translate(-22.95 -19.75)"/><line class="cls-2" x1="81.8" y1="26.68" x2="99.26" y2="37.47"/><path class="cls-3" d="M31.43,96.79c6.11-5.06,18.23,1.21,25.23,14.38" transform="translate(-22.95 -19.75)"/></g></svg>