<svg xmlns="http://www.w3.org/2000/svg" viewBox="0 0 159.99 160.94"><defs><style>.cls-1,.cls-2{fill:none;stroke-miterlimit:10;stroke-width:3px;}.cls-1{stroke:#832626;}.cls-2{stroke:#f6a31d;}.cls-3{fill:#f6a31d;}</style></defs><title>home_loan</title><g id="Home_Loan" data-name="Home Loan"><path class="cls-1" d="M63.79,156.65v-41.2s.82-5,5.13-5h21s4.3,1.49,4.3,5.13v41.2" transform="translate(-20.19 -19.53)"/><path class="cls-1" d="M21.32,104.87l72.3-82.74s2.15-2.48,4,0l72.21,82.74" transform="translate(-20.19 -19.53)"/><line class="cls-1" x1="128.3" y1="85.2" x2="128.3" y2="60.96"/><path class="cls-1" d="M43.32,79.84v73.3s0,4.8,4.47,4.8H104.7" transform="translate(-20.19 -19.53)"/><line class="cls-1" x1="62.76" y1="51.69" x2="88.37" y2="51.69"/><circle class="cls-2" cx="124.5" cy="125.45" r="33.99"/><path class="cls-3" d="M156.44,126.6l-27.31,35.74c-1.47,1.91,1.79,3.78,3.23,1.89l27.31-35.73c1.47-1.92-1.79-3.79-3.23-1.9Z" transform="translate(-20.19 -19.53)"/><circle class="cls-2" cx="114.04" cy="116.15" r="7.99"/><circle class="cls-2" cx="135.04" cy="136.12" r="7.99"/></g></svg>