<svg xmlns="http://www.w3.org/2000/svg" viewBox="0 0 154.21 158.05"><defs><style>.cls-1,.cls-2{fill:none;stroke-linejoin:round;stroke-width:3px;}.cls-1{stroke:#f6a31d;}.cls-2{stroke:#832626;}.cls-3{fill:#832826;}</style></defs><title>balance_transfer</title><g id="balance_transfer" data-name="balance transfer"><g id="Layer_7" data-name="Layer 7"><polyline class="cls-1" points="73.6 80.03 56.22 80 86.2 115.77"/><line class="cls-1" x1="53.22" y1="62.11" x2="101.19" y2="62.11"/><line class="cls-1" x1="53.22" y1="44.22" x2="101.19" y2="44.22"/><path class="cls-1" d="M96.5,64.58a17.91,17.91,0,0,1,0,35.81" transform="translate(-22.9 -20.36)"/><path class="cls-2" d="M86.29,172.12C46.3,163.36,24.4,131.43,24.4,97c0-41.35,31.74-75.16,75.6-75.16S175.6,55.67,175.6,97c0,35.92-25.89,68.23-61.7,75.48" transform="translate(-22.9 -20.36)"/><path class="cls-3" d="M86.52,170.56l-6.36-7.8a1.23,1.23,0,0,1,.51-2,2.49,2.49,0,0,1,2.72.69c.16.19,9.23,11.28,9.35,11.49a1.27,1.27,0,0,1,.16,1,1.41,1.41,0,0,1-1.08.95l-13.69,3.53a2.47,2.47,0,0,1-2.61-1,1.26,1.26,0,0,1,.91-1.91l8.66-2.23" transform="translate(-22.9 -20.36)"/></g></g></svg>