<svg xmlns="http://www.w3.org/2000/svg" viewBox="0 0 163.15 109.53"><defs><style>.cls-1,.cls-2{fill:none;stroke-linejoin:round;stroke-width:3px;}.cls-1{stroke:#832626;}.cls-2{stroke:#f6a31d;}</style></defs><title>flexible_reward_plans</title><g id="Layer_46" data-name="Layer 46"><path class="cls-1" d="M70.27,63.2,83.59,92.42l30.55,2.73a2.37,2.37,0,0,1,1.45,4L93.15,121.44l5.63,29A2.37,2.37,0,0,1,95.39,153l-27.28-13.7L40.83,152.9a2.37,2.37,0,0,1-3.38-2.57l5.62-28.87L20.63,99.19a2.37,2.37,0,0,1,1.46-4l30.55-2.73L66,63.2A2.37,2.37,0,0,1,70.27,63.2Z" transform="translate(-18.43 -45.24)"/><path class="cls-2" d="M94.58,81.92l11-24.21a2,2,0,0,1,3.57,0l11,24.21,25.31,2.26a2,2,0,0,1,1.2,3.34L128.15,106l4.66,24a2,2,0,0,1-2.8,2.12l-22.6-11.35" transform="translate(-18.43 -45.24)"/><path class="cls-1" d="M127.33,72.1l11-24.22a2,2,0,0,1,3.57,0L153,72.1l25.3,2.25a2,2,0,0,1,1.21,3.35L160.9,96.13l4.66,24a2,2,0,0,1-2.81,2.13l-22.6-11.35" transform="translate(-18.43 -45.24)"/></g></svg>