<svg xmlns="http://www.w3.org/2000/svg" viewBox="0 0 124.56 158.4"><defs><style>.cls-1,.cls-2{fill:none;stroke-linejoin:round;}.cls-1{stroke:#832826;stroke-linecap:round;stroke-width:3px;}.cls-2{stroke:#f6a31d;stroke-width:2px;}</style></defs><title>book_fd</title><g id="book_fd" data-name="book fd"><path class="cls-1" d="M160.78,71.84l-.34,86s1,20.37-20.38,20.37H58.56s-19.34-3.8-19.34-21.06v-87s.11-29,27.63-29,64.35-.34,64.35-.34S160.78,41.45,160.78,71.84Z" transform="translate(-37.72 -21.3)"/><rect class="cls-1" x="30.51" y="1.5" width="62.97" height="17.96"/><path class="cls-1" d="M101.55,105.82a17.36,17.36,0,1,1-21,12.64,17.37,17.37,0,0,1,21-12.64Z" transform="translate(-37.72 -21.3)"/><polyline class="cls-2" points="58.55 101.34 54.09 100.18 59.38 111.39"/><line class="cls-2" x1="54.52" y1="95.37" x2="66.81" y2="98.56"/><line class="cls-2" x1="55.72" y1="90.76" x2="68.01" y2="93.95"/><path class="cls-2" d="M98.66,113.42a4.76,4.76,0,0,1-2.4,9.22" transform="translate(-37.72 -21.3)"/><path class="cls-1" d="M58.22,143.45A17.36,17.36,0,1,1,48,165.78a17.37,17.37,0,0,1,10.21-22.33Z" transform="translate(-37.72 -21.3)"/><polyline class="cls-2" points="25.66 139.01 21.32 140.57 32.03 146.82"/><line class="cls-2" x1="18.96" y1="136.36" x2="30.9" y2="132.04"/><line class="cls-2" x1="17.34" y1="131.88" x2="29.28" y2="127.57"/><path class="cls-2" d="M60.13,151.35a4.77,4.77,0,0,1,3.24,9" transform="translate(-37.72 -21.3)"/><path class="cls-1" d="M68.49,107.44A17.36,17.36,0,1,1,44.6,113.1a17.35,17.35,0,0,1,23.89-5.66Z" transform="translate(-37.72 -21.3)"/><polyline class="cls-2" points="20.63 100.57 16.74 98.11 18.38 110.39"/><line class="cls-2" x1="18.61" y1="93.66" x2="29.35" y2="100.43"/><line class="cls-2" x1="21.14" y1="89.63" x2="31.89" y2="96.4"/><path class="cls-2" d="M63.43,113.8a4.77,4.77,0,0,1-5.08,8.07" transform="translate(-37.72 -21.3)"/><path class="cls-1" d="M91,145.9a17.36,17.36,0,1,1-3.31,24.33A17.37,17.37,0,0,1,91,145.9Z" transform="translate(-37.72 -21.3)"/><polyline class="cls-2" points="63.06 139.25 59.37 141.99 71.42 144.88"/><line class="cls-2" x1="55.88" y1="138.65" x2="66.06" y2="131.06"/><line class="cls-2" x1="53.04" y1="134.83" x2="63.22" y2="127.24"/><path class="cls-2" d="M95.08,152.91a4.77,4.77,0,0,1,5.7,7.64" transform="translate(-37.72 -21.3)"/><path class="cls-1" d="M134.78,142.45a17.36,17.36,0,1,1-15.53,19,17.36,17.36,0,0,1,15.53-19Z" transform="translate(-37.72 -21.3)"/><polyline class="cls-2" points="97.78 138.77 93.2 139.18 101.97 147.94"/><line class="cls-2" x1="91.97" y1="134.51" x2="104.62" y2="133.35"/><line class="cls-2" x1="91.54" y1="129.77" x2="104.18" y2="128.61"/><path class="cls-2" d="M134.63,150.57a4.77,4.77,0,0,1,.87,9.5" transform="translate(-37.72 -21.3)"/><path class="cls-1" d="M148.36,107.3a17.36,17.36,0,1,1-23.66,6.55,17.36,17.36,0,0,1,23.66-6.55Z" transform="translate(-37.72 -21.3)"/><polyline class="cls-2" points="101.05 100.8 97.07 98.49 99.17 110.7"/><line class="cls-2" x1="98.77" y1="93.97" x2="109.76" y2="100.33"/><line class="cls-2" x1="101.15" y1="89.85" x2="112.15" y2="96.2"/><path class="cls-2" d="M143.55,113.85a4.77,4.77,0,0,1-4.78,8.25" transform="translate(-37.72 -21.3)"/><line class="cls-1" x1="41.98" y1="2.42" x2="41.98" y2="18.54"/><line class="cls-1" x1="48.89" y1="2.42" x2="48.89" y2="18.54"/></g></svg>