<svg xmlns="http://www.w3.org/2000/svg" viewBox="0 0 159.78 131.33"><defs><style>.cls-1,.cls-2{fill:none;stroke-miterlimit:10;stroke-width:3px;}.cls-1{stroke:#832626;}.cls-2{stroke:#f6a31d;}</style></defs><title>bulk_gifting</title><g id="BULK_GIFTING" data-name="BULK GIFTING"><line class="cls-1" x1="118.12" y1="92.51" x2="118.12" y2="79.83"/><rect class="cls-1" x="89.18" y="79.8" width="69.1" height="12.54" rx="3.71"/><line class="cls-1" x1="117.9" y1="92.46" x2="117.9" y2="129.58"/><line class="cls-1" x1="129.39" y1="92.51" x2="129.39" y2="79.83"/><line class="cls-1" x1="129.17" y1="92.46" x2="129.17" y2="129.58"/><path class="cls-1" d="M117.2,127.25v31.94s-.12,5.52,3.64,5.52h46.77s3,.37,3-4.27V127.2Z" transform="translate(-20.12 -34.88)"/><path class="cls-1" d="M136.41,114.44s-7.42-7.79-4.66-11.3c0,0,3.83-3.52,11.75,5.23" transform="translate(-20.12 -34.88)"/><path class="cls-1" d="M141.49,114.41s4.21-15.65,14.09-15.54c0,0,4.56,1.19-1,9.64l-4.7,6.17" transform="translate(-20.12 -34.88)"/><line class="cls-2" x1="48.08" y1="51.86" x2="48.08" y2="31.1"/><line class="cls-2" x1="67.42" y1="51.86" x2="67.42" y2="31.1"/><rect class="cls-1" x="1.5" y="31.05" width="113.07" height="20.52" rx="3.71"/><line class="cls-2" x1="50.55" y1="51.78" x2="50.55" y2="112.52"/><line class="cls-2" x1="65" y1="51.78" x2="65" y2="112.52"/><path class="cls-1" d="M122,106.52V86.42l-87.4.08v52.27s-.2,9,6,9h70" transform="translate(-20.12 -34.88)"/><path class="cls-1" d="M66,65.54S53.84,52.8,58.36,47.06c0,0,6.26-5.76,19.21,8.56" transform="translate(-20.12 -34.88)"/><path class="cls-1" d="M74.29,65.44s7.87-29.26,26.34-29c0,0,8.51,2.22-1.88,18L90,65.94" transform="translate(-20.12 -34.88)"/><path class="cls-1" d="M81.55,64.5C81,66.61,85.62,51.79,93,49.31" transform="translate(-20.12 -34.88)"/></g></svg>