<svg xmlns="http://www.w3.org/2000/svg" viewBox="0 0 159.03 155.71"><defs><style>.cls-1,.cls-3,.cls-4{fill:none;stroke-linecap:round;stroke-linejoin:round;}.cls-1{stroke:#832a27;}.cls-1,.cls-4{stroke-width:3px;}.cls-2{fill:#f5a31f;}.cls-3,.cls-4{stroke:#f5a31f;}.cls-3{stroke-width:2px;}</style></defs><title>buy_forex</title><g id="Buy_Forex" data-name="Buy Forex"><g id="Buy_Forex-2" data-name="Buy Forex"><path class="cls-1" d="M106.15,131.39l21.2-11.27c5-2.65,14.72-6.68,14.78,3.27l3.58-2.45c10-6.88,17.69-2,13.93,7.5,17.86-13,24.17,3.45,16.22,7.49l-39.51,25L119.6,171.51c-11.85,7.48-27.49,7.6-31.89,5-25-6.45-32.21-12.58-54-9.78" transform="translate(-21.72 -23.84)"/><path class="cls-1" d="M23.22,122.17l25.83-10.5c6.6-2.68,14-2,16.76.07l14,10.37c19.43,14.39,21,10.8,43.89,12.16,5.07.3,8.41,8.47,0,11.7-21.36,9.77-34.55,5.39-54-4.58" transform="translate(-21.72 -23.84)"/><path class="cls-1" d="M145.71,120.94s-9.43,7.32-14,9.28" transform="translate(-21.72 -23.84)"/><path class="cls-1" d="M159.64,128.44s-19.1,12.91-22.64,13.84" transform="translate(-21.72 -23.84)"/><path class="cls-1" d="M49.84,29.46A19.47,19.47,0,1,1,30.37,48.93,19.47,19.47,0,0,1,49.84,29.46Z" transform="translate(-21.72 -23.84)"/><g id="Layer_98" data-name="Layer 98"><path class="cls-2" d="M40.55,39,48.74,50.5a1,1,0,0,0,1.34.31.86.86,0,0,0,.32-.31L58.68,39c.72-1-.94-2-1.66-1L48.74,49.54H50.4L42.21,38C41.49,37,39.83,38,40.55,39Z" transform="translate(-21.72 -23.84)"/><path class="cls-2" d="M50.57,63.23l0-13.21a1,1,0,0,0-1.92,0l0,13.21A1,1,0,0,0,50.57,63.23Z" transform="translate(-21.72 -23.84)"/><path class="cls-2" d="M44,53.73H55.27a1,1,0,0,0,0-1.92H44a1,1,0,0,0-.89,1A1,1,0,0,0,44,53.73Z" transform="translate(-21.72 -23.84)"/><path class="cls-2" d="M44,58H55.27a1,1,0,0,0,.89-1,1,1,0,0,0-.89-.89H44A1,1,0,0,0,44,58Z" transform="translate(-21.72 -23.84)"/></g><path class="cls-1" d="M150.39,25.34a17,17,0,1,1-17,17,17,17,0,0,1,17-17Z" transform="translate(-21.72 -23.84)"/><line class="cls-3" x1="128.67" y1="6.66" x2="128.67" y2="10.22"/><line class="cls-3" x1="128.67" y1="25.74" x2="128.67" y2="29.3"/><path class="cls-3" d="M155.55,35.91a23.49,23.49,0,0,0-4.6-1.22c-8-.9-9,7.16-.51,7.13,8.28,0,7.5,8-.52,7.13a23.59,23.59,0,0,1-4.59-1.22" transform="translate(-21.72 -23.84)"/><path class="cls-1" d="M100,55.08A30.41,30.41,0,1,1,69.6,85.49,30.41,30.41,0,0,1,100,55.08Z" transform="translate(-21.72 -23.84)"/><line class="cls-4" x1="60.97" y1="55.66" x2="86" y2="55.66"/><line class="cls-4" x1="59.18" y1="66.71" x2="84.23" y2="66.71"/><path class="cls-4" d="M113.46,97.28a14.2,14.2,0,0,1-4.52,3.74,11.9,11.9,0,0,1-11.07,0,14.2,14.2,0,0,1-4.52-3.74,17.87,17.87,0,0,1-3-5.54,21.16,21.16,0,0,1,0-13.57,17.81,17.81,0,0,1,3-5.55,14.33,14.33,0,0,1,4.52-3.74,11.9,11.9,0,0,1,11.07,0,14.33,14.33,0,0,1,4.52,3.74" transform="translate(-21.72 -23.84)"/></g></g></svg>