<svg xmlns="http://www.w3.org/2000/svg" viewBox="0 0 162 88.66"><defs><style>.cls-1,.cls-2,.cls-3,.cls-4{fill:none;stroke-miterlimit:10;stroke-width:1.5px;}.cls-1{stroke:#832a27;}.cls-2{stroke:#832626;}.cls-3{stroke:#f5a31f;}.cls-4{stroke:#f5a31e;}.cls-5{isolation:isolate;font-size:38.93px;fill:#832a27;font-family:Rupee;}</style></defs><title>cheque_on_cheque</title><g id="Layer_424" data-name="Layer 424"><g id="cheque"><polyline class="cls-1" points="52.83 17.29 52.89 0.75 161.25 0.75 161.25 53.78 52.89 53.78 52.83 32.25"/><line class="cls-2" x1="63.96" y1="11.08" x2="108.29" y2="11.08"/><line class="cls-3" x1="136.77" y1="46.6" x2="153.1" y2="46.6"/><line class="cls-4" x1="65.96" y1="25.07" x2="118.29" y2="25.07"/><line class="cls-2" x1="64.05" y1="39.16" x2="118.29" y2="39.16"/><text class="cls-5" transform="translate(134.36 40.32) scale(1.05 1)">`</text><path class="cls-1" d="M18.44,121l11.46-8.3S34.21,107,33.64,101a21,21,0,0,1,3.28-5.57A100.58,100.58,0,0,1,56,78.1s4-3.56,7.17-3.29H81.8s5.73,1.09,2.58,4.92c0,0-3.15,5.46-7.46,6,0,0-5.45,1.65-9.17.82a4.09,4.09,0,0,0-4,1.24l-3,3.41s4.77,7,.09,14.18A13.25,13.25,0,0,1,55.75,108" transform="translate(-18 -56)"/><path class="cls-1" d="M41.52,144.09s9-7.74,11.75-8.75a9.61,9.61,0,0,1,5.45-.64c1.54.19,11.77.55,15.77-3.55s.71-.49.71-.49" transform="translate(-18 -56)"/><path class="cls-1" d="M63.21,129.23h21.4a4.13,4.13,0,0,0,2.19-.9c1-.83,2.59-5,2.59-5s.86-3.55-2.11-4-20.73,0-20.73,0a3.61,3.61,0,0,0-3.06,2.18,26.37,26.37,0,0,0-2.29,5.83A1.85,1.85,0,0,0,63,129.24Z" transform="translate(-18 -56)"/><path class="cls-1" d="M66.26,119.7h21.4a4.3,4.3,0,0,0,2.2-.91c1-.82,2.59-5,2.59-5s.86-3.55-2.12-4-20.73,0-20.73,0a3.6,3.6,0,0,0-3,2.18,25.43,25.43,0,0,0-2.29,5.83A1.83,1.83,0,0,0,66,119.71Z" transform="translate(-18 -56)"/></g></g></svg>