<svg xmlns="http://www.w3.org/2000/svg" viewBox="0 0 160.49 145.72"><defs><style>.cls-1,.cls-2{fill:none;stroke-miterlimit:10;stroke-width:3px;}.cls-1{stroke:#832626;}.cls-2{stroke:#f6a31d;}</style></defs><title>commercial_loan</title><g id="Layer_117" data-name="Layer 117"><line class="cls-1" y1="144.22" x2="160.49" y2="144.22"/><path class="cls-1" d="M33.83,164.47s-10.42-1.83-11.41-10.28c0,0-1-10,9.86-12.24" transform="translate(-18.86 -20.36)"/><path class="cls-1" d="M34.94,134.63s-6.48,7.46,3.52,13.23" transform="translate(-18.86 -20.36)"/><line class="cls-1" x1="35.38" y1="110.05" x2="35.38" y2="143.13"/><circle class="cls-1" cx="35.66" cy="103.71" r="16.33"/><circle class="cls-1" cx="127.64" cy="92.64" r="17.14"/><path class="cls-1" d="M54.24,101.68V83.38s-.14-6,5.35-6H98s5.07-.85,5.07,5.77v80.39" transform="translate(-18.86 -20.36)"/><path class="cls-1" d="M70.48,75.92v-48s.37-6,5.25-6h56.69s5.44-.37,5.44,6.38V91.12" transform="translate(-18.86 -20.36)"/><line class="cls-1" x1="127.26" y1="105.54" x2="127.26" y2="142.71"/><line class="cls-1" x1="118.87" y1="115.54" x2="118.87" y2="143.27"/><line class="cls-1" x1="102.58" y1="97.52" x2="102.58" y2="114.32"/><line class="cls-1" x1="102.58" y1="69.74" x2="102.58" y2="86.53"/><line class="cls-1" x1="102.58" y1="41.02" x2="102.58" y2="57.82"/><line class="cls-2" x1="102.58" y1="14.17" x2="102.58" y2="30.97"/><line class="cls-2" x1="85.41" y1="14.17" x2="85.41" y2="30.97"/><line class="cls-2" x1="66.92" y1="14.17" x2="66.92" y2="30.97"/><line class="cls-1" x1="66.92" y1="41.3" x2="66.92" y2="49.09"/><line class="cls-1" x1="85.31" y1="41.3" x2="85.31" y2="49.09"/><line class="cls-1" x1="72.22" y1="121.2" x2="72.22" y2="127.78"/><line class="cls-1" x1="72.22" y1="108.36" x2="72.22" y2="114.94"/><line class="cls-1" x1="72.22" y1="95.5" x2="72.22" y2="102.08"/><line class="cls-1" x1="72.22" y1="82.69" x2="72.22" y2="89.27"/><line class="cls-2" x1="72.22" y1="69.64" x2="72.22" y2="76.22"/><line class="cls-2" x1="59.97" y1="69.64" x2="59.97" y2="76.22"/><line class="cls-2" x1="47.4" y1="69.64" x2="47.4" y2="76.22"/><line class="cls-1" x1="60.15" y1="108.36" x2="60.15" y2="114.94"/><line class="cls-1" x1="60.15" y1="95.5" x2="60.15" y2="102.08"/><line class="cls-1" x1="60.15" y1="82.69" x2="60.15" y2="89.27"/><line class="cls-1" x1="60.25" y1="121.2" x2="60.25" y2="127.78"/><line class="cls-1" x1="47.37" y1="121.2" x2="47.37" y2="127.78"/><line class="cls-1" x1="135.49" y1="83.7" x2="121.41" y2="102.01"/><circle class="cls-1" cx="122.11" cy="87.59" r="3"/><circle class="cls-1" cx="133.79" cy="99.26" r="3"/></g></svg>