<svg xmlns="http://www.w3.org/2000/svg" viewBox="0 0 157.29 159.17"><defs><style>.cls-1,.cls-2{fill:none;stroke-miterlimit:10;stroke-width:3px;}.cls-1{stroke:#832826;}.cls-2{stroke:#f6a31d;}</style></defs><title>corporate_office_location</title><g id="Layer_224" data-name="Layer 224"><rect class="cls-1" x="1.5" y="1.5" width="154.29" height="156.17" rx="8.13"/><line class="cls-1" x1="36.04" y1="2.63" x2="17.64" y2="157.67"/><line class="cls-1" x1="37.41" y1="3.46" x2="156.23" y2="44.15"/><line class="cls-1" x1="113.19" y1="29.27" x2="129.59" y2="156.54"/><line class="cls-1" x1="95.24" y1="92.74" x2="154.85" y2="98.72"/><line class="cls-1" x1="78.49" y1="2.71" x2="79.02" y2="50.24"/><line class="cls-1" x1="79.45" y1="115.27" x2="79.02" y2="157.04"/><line class="cls-1" x1="2.53" y1="83.33" x2="62.13" y2="89.31"/><path class="cls-2" d="M98.26,80.74,83,136.17s1,2.76,4,.13l11.17-9s1.32-1.69,4.7.94l11.92,9.23s2.62,3.38.37-4.13L101.26,80.36S99.38,78.49,98.26,80.74Z" transform="translate(-20.55 -20.17)"/></g></svg>