<svg id="Layer_1" data-name="Layer 1" xmlns="http://www.w3.org/2000/svg" viewBox="0 0 143.39 143.39"><defs><style>.cls-1{fill:#842726;stroke:#832626;}.cls-1,.cls-2{stroke-miterlimit:10;stroke-width:2px;}.cls-2{fill:#f2a31f;stroke:#f2a31f;}</style></defs><title>customer_responsive</title><g id="Layer_8" data-name="Layer 8"><path class="cls-1" d="M101.62,126.81a26.65,26.65,0,0,1,0-53.29,1.1,1.1,0,0,1,0,2.19,24.46,24.46,0,1,0,24.45,24.46,1.1,1.1,0,1,1,2.19,0A26.67,26.67,0,0,1,101.62,126.81Z" transform="translate(-29.68 -28.71)"/><path class="cls-1" d="M101.4,171.11A70.7,70.7,0,1,1,122.53,33a1.27,1.27,0,0,1,.73.61,1.08,1.08,0,0,1-1,1.55,1.34,1.34,0,0,1-.35-.05,68.49,68.49,0,1,0,44.79,44.83,1.09,1.09,0,0,1,.72-1.33,1.34,1.34,0,0,1,.35,0,1.1,1.1,0,0,1,1,.75,70.71,70.71,0,0,1-67.42,91.83Z" transform="translate(-29.68 -28.71)"/><path class="cls-1" d="M101.62,148.71a48.54,48.54,0,0,1,0-97.08c1,0,2,.08,3.08.17A1.42,1.42,0,0,1,106,53.2a.9.9,0,0,1-.9.84l-.84-.08c-.88-.07-1.76-.14-2.66-.14A46.35,46.35,0,1,0,148,100.17c0-1-.08-1.92-.16-2.81l-.05-.38,0-.16,0-.18a1.12,1.12,0,0,1,.26-.81,1,1,0,0,1,.76-.4h.14a1.12,1.12,0,0,1,1.08,1,31.34,31.34,0,0,1,.23,3.72A48.6,48.6,0,0,1,101.62,148.71Z" transform="translate(-29.68 -28.71)"/><path class="cls-2" d="M101.59,101.29a1,1,0,0,1-.78-.33,1.07,1.07,0,0,1-.32-.77,1.13,1.13,0,0,1,.33-.78l25.25-25.24V60a1.1,1.1,0,0,1,.32-.77l21.9-21.9a1.08,1.08,0,0,1,.78-.32,1.09,1.09,0,0,1,1.09,1.09V51.63h13.5a1.12,1.12,0,0,1,.78.32,1.06,1.06,0,0,1,.32.77,1.14,1.14,0,0,1-.32.78l-21.9,21.89a1.07,1.07,0,0,1-.77.32H127.62l-25.23,25.23A1.09,1.09,0,0,1,101.59,101.29Zm26.67-40.82v13h13.05L161,53.82h-12a1.12,1.12,0,0,1-.78-.32,1.07,1.07,0,0,1-.32-.77v-12Z" transform="translate(-29.68 -28.71)"/></g></svg>