<svg xmlns="http://www.w3.org/2000/svg" viewBox="0 0 144.01 158.9"><defs><style>.cls-1{fill:none;stroke:#f2a31f;stroke-miterlimit:10;stroke-width:3px;}.cls-2{isolation:isolate;font-size:42.43px;fill:#fff;font-family:Rupee;}</style></defs><title>deposit_hover</title><g id="deposit_copy" data-name="deposit copy"><g id="deposit"><path class="cls-1" d="M89.16,71.37A25.81,25.81,0,1,1,81.86,77" transform="translate(-35.82 -20.17)"/><path class="cls-1" d="M169.92,51.36S143,52,135.77,53.91c0,0-4.33-.48-6,3.37l-4.09,8.18a7.47,7.47,0,0,1-2.16,3.6l-5.78,5.78" transform="translate(-35.82 -20.17)"/><path class="cls-1" d="M179.64,23.28,140.1,28.4l-30.56-6S104,21,99.92,22.15L78.26,30.81s-4.57,1.62-4,4.69A3.19,3.19,0,0,0,75.67,38s1.91,1.49,5.7-.1l11-4" transform="translate(-35.82 -20.17)"/><path class="cls-1" d="M78,38.75S70.16,42,69.35,42.81c0,0-3.88,2.89-2.34,5.78,0,0,1.71,3.79,6.4,2.23l20.34-9.48" transform="translate(-35.82 -20.17)"/><path class="cls-1" d="M70.86,51.41l-8.09,3.94s-3,2.23-1.53,4.88c0,0,1.07,3.61,3.88,2.71l19.94-8.4,1.73-.78s2-.19,1.08.81l-4.42,6.58s-4,6.59-2.08,14c0,0,.9,4.46,2.23,5.77,0,0,3,2.08,4.87-2.07,0,0,1.71-4,.9-5.6L88.74,68a6.86,6.86,0,0,1,1.81-4.15s6-7.58,8.18-8.75c0,0,7.48-4.69,13.26-.46,0,0,4.46,3.62,2.35,9,0,0-2.23,5.2-3.88,6.59" transform="translate(-35.82 -20.17)"/><text class="cls-2" transform="translate(55.59 91.57) scale(0.98 1)">`</text></g><path class="cls-1" d="M126.23,100.09h33.14a3.31,3.31,0,0,1,3.31,3.31v70.86a3.31,3.31,0,0,1-3.31,3.31H40.63a3.31,3.31,0,0,1-3.31-3.31V103.4a3.31,3.31,0,0,1,3.31-3.31H75" transform="translate(-35.82 -20.17)"/><line class="cls-1" x1="33.49" y1="100.96" x2="95.44" y2="100.96"/></g></svg>