<svg xmlns="http://www.w3.org/2000/svg" viewBox="0 0 160.85 30.61"><defs><style>.cls-1{fill:#d87527;}.cls-1,.cls-2{fill-rule:evenodd;}.cls-2{fill:#7f1416;}</style></defs><title>INDUS_MOBILE</title><g id="indus_Mobile" data-name="indus Mobile"><path class="cls-1" d="M98.19,112.66a2.87,2.87,0,0,1-.46,1.81,2.08,2.08,0,0,1-2.89,0,2.82,2.82,0,0,1-.46-1.82V98a4,4,0,0,1,.54-2.43,2.41,2.41,0,0,1,1.93-.65h1.42a2.74,2.74,0,0,1,1.75.46,5.4,5.4,0,0,1,1,2.46l3.23,12.3,3.12-12a6.53,6.53,0,0,1,1.08-2.61,2.14,2.14,0,0,1,1.61-.56h1.63a2.42,2.42,0,0,1,1.93.65,4.07,4.07,0,0,1,.53,2.43l0,14.67a2.94,2.94,0,0,1-.45,1.81,2.09,2.09,0,0,1-2.9,0,2.93,2.93,0,0,1-.45-1.82V99L107,112.37a4.66,4.66,0,0,1-1,2.09,2.64,2.64,0,0,1-3.39,0,4.44,4.44,0,0,1-1-2.06L98.2,99Zm26.4-9.58a3,3,0,0,0-2.53,1.16,5.37,5.37,0,0,0-.9,3.31,5.43,5.43,0,0,0,.89,3.33,3.29,3.29,0,0,0,5,0,5.43,5.43,0,0,0,.89-3.33,5.37,5.37,0,0,0-.89-3.31A3,3,0,0,0,124.59,103.08Zm0-3.28a7.11,7.11,0,0,1,5.4,2.06,9.17,9.17,0,0,1,0,11.38,8.11,8.11,0,0,1-10.8,0,9.18,9.18,0,0,1,0-11.38A7.09,7.09,0,0,1,124.6,99.8Zm17.15,3.38a2.85,2.85,0,0,0-2.42,1.15,5.51,5.51,0,0,0-.84,3.29,5.4,5.4,0,0,0,.82,3.24,2.83,2.83,0,0,0,2.4,1.11,2.72,2.72,0,0,0,2.36-1.17,5.79,5.79,0,0,0,.83-3.34,5.12,5.12,0,0,0-.85-3.13A2.72,2.72,0,0,0,141.75,103.18Zm-3.35,10.11a1.74,1.74,0,0,1-.48,1.3,1.79,1.79,0,0,1-1.32.47,1.83,1.83,0,0,1-1.43-.53,2.45,2.45,0,0,1-.47-1.62V97.08a2.4,2.4,0,0,1,.48-1.63,1.79,1.79,0,0,1,1.41-.54,1.83,1.83,0,0,1,1.42.54,2.4,2.4,0,0,1,.47,1.63v5a4.72,4.72,0,0,1,1.81-1.72,5.13,5.13,0,0,1,2.48-.58,5.2,5.2,0,0,1,4.31,2.17,8.87,8.87,0,0,1,1.67,5.63,8.71,8.71,0,0,1-1.67,5.56,5.3,5.3,0,0,1-4.37,2.12,4.84,4.84,0,0,1-2.44-.58,5.74,5.74,0,0,1-1.89-1.86Zm17-.38a2.42,2.42,0,0,1-.49,1.61,1.92,1.92,0,0,1-1.46.54,1.89,1.89,0,0,1-1.46-.54,2.36,2.36,0,0,1-.48-1.61V102.22a2.42,2.42,0,0,1,.48-1.63,2.21,2.21,0,0,1,2.92,0,2.37,2.37,0,0,1,.48,1.63Zm-4-16a2,2,0,0,1,.6-1.44,2,2,0,0,1,1.47-.61,2,2,0,0,1,2,2,1.92,1.92,0,0,1-.61,1.44,2,2,0,0,1-1.44.61,2,2,0,0,1-1.45-.62A2,2,0,0,1,151.4,97Zm7.62.12a2.46,2.46,0,0,1,.48-1.63,1.94,1.94,0,0,1,1.48-.54,1.89,1.89,0,0,1,1.45.54,2.4,2.4,0,0,1,.48,1.63v15.83a2.37,2.37,0,0,1-.49,1.61,2.24,2.24,0,0,1-2.92,0,2.37,2.37,0,0,1-.49-1.61Zm10.68,11.51a4,4,0,0,0,.87,2.6,2.9,2.9,0,0,0,2.27.9,3.69,3.69,0,0,0,1.23-.2,3.15,3.15,0,0,0,1-.54c.08-.06.17-.16.28-.25a2.8,2.8,0,0,1,1.74-.9,1.5,1.5,0,0,1,1.09.42,1.39,1.39,0,0,1,.43,1,1.94,1.94,0,0,1-.23.9,3.8,3.8,0,0,1-.72.92,6.33,6.33,0,0,1-2.26,1.35,8.35,8.35,0,0,1-2.87.47,6.33,6.33,0,0,1-5-2.1,8.46,8.46,0,0,1-1.85-5.74,8.23,8.23,0,0,1,1.83-5.61,6.31,6.31,0,0,1,5-2,6.74,6.74,0,0,1,5.06,1.93,7.09,7.09,0,0,1,1.9,5.19,1.82,1.82,0,0,1-.35,1.31,2.67,2.67,0,0,1-1.74.36H169.7Zm5.72-2.54a3.39,3.39,0,0,0-.79-2.24,2.73,2.73,0,0,0-2.08-.76,2.62,2.62,0,0,0-2,.76,3.58,3.58,0,0,0-.85,2.24Z" transform="translate(-18.57 -84.69)"/><path class="cls-1" d="M145,88.18a11.84,11.84,0,0,1,16.78,0l-2,2a9,9,0,0,0-12.71,0Z" transform="translate(-18.57 -84.69)"/><path class="cls-1" d="M158.87,91.12,157,93a5,5,0,0,0-7.12,0l-1.91-1.91a7.71,7.71,0,0,1,10.93,0Z" transform="translate(-18.57 -84.69)"/><path class="cls-2" d="M41.33,109.23l.06,5.62H36.51c0-1.86,0-3.89-.07-5.78,0-.43,0-.85,0-1.31s-.07-.66-.11-1c-.29-2.25-2-2.71-3.45-2a2.64,2.64,0,0,0-1.39,1.87,5.86,5.86,0,0,0-.25,2.34l0,5.82H26.47L26.31,101c1.49,0,2.94-.11,4.43-.13,0,.88,0,1.72,0,2.58A5.27,5.27,0,0,1,37,100.9c2.86.78,4,3.47,4.16,6.08a15.78,15.78,0,0,1,.16,2.25" transform="translate(-18.57 -84.69)"/><path class="cls-2" d="M88.29,101.12l-.37,3a19.12,19.12,0,0,0-3.82-.66,3.81,3.81,0,0,0-1,.06c-.93.23-1.18,1.09-.28,1.77,1.14.91,2.82,1.15,4.11,1.9A9.08,9.08,0,0,1,88,108a4,4,0,0,1,.79,4.45c-1,2.32-3.93,2.55-6.6,2.35a30.61,30.61,0,0,1-4.25-.65l.17-3.37a12.14,12.14,0,0,0,4.71.72c.74-.06,1.79,0,1.57-1a3.51,3.51,0,0,0-2-1.54,12.38,12.38,0,0,1-3.51-1.7,3.94,3.94,0,0,1-1.13-2.25,2.94,2.94,0,0,1,.21-2.19c1.61-3.4,6.71-2.42,10.34-1.61" transform="translate(-18.57 -84.69)"/><path class="cls-2" d="M60.7,100.8l4.87-.06c0,1.73,0,3.46,0,5.25a9.11,9.11,0,0,0,.45,3.82,1.76,1.76,0,0,0,1.28,1.09,2.23,2.23,0,0,0,2.05-.33c1.4-1.21,1.42-3.24,1.43-5.16v-4.67H75.6l.05,14.11c-1.39,0-2.81-.06-4.23,0,0-.79-.06-1.93-.07-2.72-.39.46-.74,1-1.16,1.38a4.9,4.9,0,0,1-2.2,1.18,6.36,6.36,0,0,1-3.39-.18A5.76,5.76,0,0,1,61.79,112a7.3,7.3,0,0,1-.94-3.93c-.15-2.41-.15-4.86-.15-7.28" transform="translate(-18.57 -84.69)"/><path class="cls-2" d="M53.87,94.66l-.06,8.82a6.42,6.42,0,0,0-3.71-2.54,5,5,0,0,0-.76-.1,6.66,6.66,0,0,0-3.76.71c-3,1.77-3.5,6.76-1.37,10.29A6.59,6.59,0,0,0,47.83,115a5.05,5.05,0,0,0,3.44.1,5.39,5.39,0,0,0,1-.39,7.51,7.51,0,0,0,2.15-2c0,.72-.08,1.47-.11,2.22H58.7l-.07-20.22Zm-1.24,16.53a2.4,2.4,0,0,1-1,.46,3.21,3.21,0,0,1-2.43-.59,2.42,2.42,0,0,1-.82-1A5.54,5.54,0,0,1,48,107a3.05,3.05,0,0,1,1.13-2.16,2.27,2.27,0,0,1,1-.4,2.88,2.88,0,0,1,1.7.2,3.06,3.06,0,0,1,1.69,1.8l.2.78C54,108.74,53.81,110.31,52.63,111.19Z" transform="translate(-18.57 -84.69)"/><polygon class="cls-2" points="0 9.96 4.95 9.96 5.12 30.13 0.11 30.13 0 9.96"/></g></svg>