<svg xmlns="http://www.w3.org/2000/svg" viewBox="0 0 149.89 161.24"><defs><style>.cls-1,.cls-2,.cls-3{fill:none;stroke-miterlimit:10;}.cls-1{stroke:#832626;}.cls-1,.cls-2{stroke-width:3px;}.cls-2{stroke:#f8971d;}.cls-3{stroke:#f6a31d;stroke-width:2px;}</style></defs><title>doorstep_banking</title><g id="Layer_236" data-name="Layer 236"><path class="cls-1" d="M88.52,85.73V26.62a5.32,5.32,0,0,1,5.31-5.32h74.78a5.32,5.32,0,0,1,5.31,5.32V172.71a5.32,5.32,0,0,1-5.31,5.32H93.83a5.32,5.32,0,0,1-5.31-5.32V103.77" transform="translate(-25.53 -19.8)"/><polyline class="cls-2" points="76.3 63.55 76.3 14.39 134.16 14.39 134.16 74.17 86.75 74.17"/><circle class="cls-2" cx="80.78" cy="91.64" r="4.71"/><circle class="cls-1" cx="30.82" cy="26.33" r="13.6"/><path class="cls-1" d="M41.4,167.22V117.44s-.15,6-3.78,7.55-7.1.76-8.91-2.72A11.8,11.8,0,0,1,27,117.14V80.58S26,66.22,41.85,62.3H67.68s5.14-.76,9.82,7L87.93,85s1.36,2.26,5.74,1.06l10.27-2.72s5.14-.76,6.8,3.62c0,0,2.57,8.31-2.11,10.28L90.5,102.63a6.65,6.65,0,0,1-5.44-.9c-2.87-1.82-11.48-14.2-11.48-14.2s-1.88-2.66-1.88-1.14-.24,3.55-.24,3.55l.23,77.21" transform="translate(-25.53 -19.8)"/><line class="cls-1" x1="15.78" y1="63.7" x2="15.87" y2="97.64"/><line class="cls-1" x1="30.89" y1="100.36" x2="30.98" y2="147.8"/><path class="cls-1" d="M56.53,167.15c0,6.8-3.26,12.38-7.51,12.38S41.4,174,41.4,167.22" transform="translate(-25.53 -19.8)"/><path class="cls-1" d="M71.69,167.15c0,6.8-3.26,12.38-7.52,12.38s-7.62-5.51-7.62-12.31" transform="translate(-25.53 -19.8)"/><polygon class="cls-3" points="33.9 47.13 28.07 47.13 28.67 54.9 33.04 54.9 33.9 47.13"/><polyline class="cls-3" points="27.02 85.52 28.62 57.98 33.2 57.83 35.75 85.23"/><line class="cls-3" x1="26.55" y1="85.2" x2="35.82" y2="85.01"/></g></svg>