<svg xmlns="http://www.w3.org/2000/svg" viewBox="0 0 159.83 134.4"><defs><style>.cls-1,.cls-3{fill:none;stroke-miterlimit:10;stroke-width:3px;}.cls-1{stroke:#832626;}.cls-2{fill:#832626;}.cls-3{stroke:#f6a31d;}</style></defs><title>easy_online_application</title><g id="online_process" data-name="online process"><path class="cls-1" d="M127.81,102v5.78s.28,2.25-3,2.25H77.13s-3,.35-3-4.37V46.8s-.42-3.1,4.51-3.1h45.89a2.79,2.79,0,0,1,3.24,3.1V67.91" transform="translate(-20.08 -32.99)"/><path class="cls-2" d="M97.71,74.78h22a1.25,1.25,0,0,0,0-2.5h-22a1.25,1.25,0,0,0,0,2.5Z" transform="translate(-20.08 -32.99)"/><path class="cls-2" d="M97.71,80.87h14.1a1.25,1.25,0,0,0,0-2.5H97.71a1.25,1.25,0,0,0,0,2.5Z" transform="translate(-20.08 -32.99)"/><path class="cls-2" d="M91.58,78.59c-2,4.06-7.81,4.75-9.87.29-2.19-4.71,2.65-8.67,7.09-7.13,1.53.53,2.18-1.88.67-2.41-6.41-2.22-13,4-10.08,10.52,2.8,6.22,11.46,5.91,14.35,0,.7-1.44-1.46-2.71-2.16-1.26Z" transform="translate(-20.08 -32.99)"/><path class="cls-2" d="M84.31,77l1.83,1.51a1.31,1.31,0,0,0,1.77,0l6.53-5.12c1.26-1-.52-2.75-1.77-1.77L86.14,76.7h1.77l-1.83-1.5c-1.23-1-3,.74-1.77,1.76Z" transform="translate(-20.08 -32.99)"/><path class="cls-3" d="M123.77,93.62l2-19.71s.47-2.25,2.91-.57L144.8,84.51s2.34,1.88,0,2.54l-5.07.94s-2.44.93-1.5,2.91l3.94,8.54s1.31,2-.19,2.62l-3,1.41s-1.41.56-2.44-1.41l-4.23-9.38a1.44,1.44,0,0,0-2.06-.47l-4.13,3.57S124.15,96.71,123.77,93.62Z" transform="translate(-20.08 -32.99)"/><path class="cls-1" d="M31.44,34.49H168s10.42-.56,10.42,11.26v80.81s.28,11.55-10.42,11.55H33.41s-11.82,1.4-11.82-12.67V46S21,34.49,31.44,34.49Z" transform="translate(-20.08 -32.99)"/><line class="cls-1" x1="2.91" y1="87.66" x2="156.93" y2="87.66"/><circle class="cls-2" cx="138.91" cy="97.09" r="3.52"/><path class="cls-2" d="M134.77,130.77h16.48a1.25,1.25,0,0,0,0-2.5H134.77a1.25,1.25,0,0,0,0,2.5Z" transform="translate(-20.08 -32.99)"/><line class="cls-1" x1="70.21" y1="105.49" x2="70.21" y2="132.34"/><line class="cls-1" x1="89.92" y1="105.87" x2="89.92" y2="131.4"/><path class="cls-2" d="M71.71,167.39H128a1.88,1.88,0,0,0,0-3.75H71.71a1.88,1.88,0,0,0,0,3.75Z" transform="translate(-20.08 -32.99)"/></g></svg>