<svg xmlns="http://www.w3.org/2000/svg" viewBox="0 0 167.67 132.62"><defs><style>.cls-1,.cls-2,.cls-3,.cls-4,.cls-5{fill:none;stroke-width:3px;}.cls-1,.cls-4{stroke:#832626;}.cls-1{stroke-linecap:round;}.cls-1,.cls-3{stroke-linejoin:round;}.cls-2{stroke:#832826;}.cls-2,.cls-4,.cls-5{stroke-miterlimit:10;}.cls-3,.cls-5{stroke:#f6a31d;}</style></defs><title>multiple_payment_mode</title><g id="Layer_208" data-name="Layer 208"><path class="cls-1" d="M138.17,72.82h31s.92.55-.26-.63L150.49,53.81s-.7-1.36-2.06,0L137.06,65.08" transform="translate(-16.17 -33.69)"/><path class="cls-1" d="M143.71,59.68s6.45,5.34,11.92-.13" transform="translate(-16.17 -33.69)"/><path class="cls-1" d="M138.53,63.81s3.93,4.84,2.36,8.91" transform="translate(-16.17 -33.69)"/><path class="cls-1" d="M164,72.39s-6.1-6.68-12.32-.2l-.59.79" transform="translate(-16.17 -33.69)"/><path class="cls-2" d="M136.73,69.33v81.06a14.41,14.41,0,0,1-14.41,14.42H72.5a14.41,14.41,0,0,1-14.42-14.42V49.61A14.41,14.41,0,0,1,72.5,35.19h49.82a14.41,14.41,0,0,1,14.41,14.42V70" transform="translate(-16.17 -33.69)"/><line class="cls-2" x1="68.26" y1="12.2" x2="93.75" y2="12.2"/><line class="cls-2" x1="41.83" y1="21.16" x2="119.7" y2="21.16"/><line class="cls-2" x1="42.31" y1="104.46" x2="119.94" y2="104.46"/><line class="cls-2" x1="70.15" y1="115.55" x2="55.99" y2="115.55"/><line class="cls-2" x1="105.78" y1="115.55" x2="91.62" y2="115.55"/><path class="cls-2" d="M103.7,150.65a6.3,6.3,0,1,1-6.29-6.29A6.3,6.3,0,0,1,103.7,150.65Z" transform="translate(-16.17 -33.69)"/><polyline class="cls-3" points="78.62 65.23 66.41 65.21 87.47 90.47"/><line class="cls-3" x1="64.3" y1="52.57" x2="98" y2="52.57"/><line class="cls-3" x1="64.3" y1="39.93" x2="98" y2="39.93"/><path class="cls-3" d="M94.79,73.62a12.65,12.65,0,0,1,0,25.29" transform="translate(-16.17 -33.69)"/><path class="cls-4" d="M58.08,70.06H25a7.31,7.31,0,0,0-7.36,7.16v45.5A7.36,7.36,0,0,0,25,129.94H57.8" transform="translate(-16.17 -33.69)"/><line class="cls-4" x1="8.08" y1="81.88" x2="20.06" y2="81.88"/><line class="cls-4" x1="27.24" y1="81.88" x2="39.22" y2="81.88"/><rect class="cls-5" x="10.48" y="50.74" width="21.56" height="14.37" rx="2"/><path class="cls-1" d="M163.64,90.14h16.64a2.05,2.05,0,0,1,2.05,2v15.59a2.06,2.06,0,0,1-2.05,2.06H163.64a8.76,8.76,0,0,1-8.73-8.73V98.87a8.76,8.76,0,0,1,8.73-8.73Z" transform="translate(-16.17 -33.69)"/><path class="cls-3" d="M164.69,95.88a4.12,4.12,0,1,1-4.12,4.12,4.12,4.12,0,0,1,4.12-4.12Z" transform="translate(-16.17 -33.69)"/><path class="cls-1" d="M137.17,72.84H172.4a5.35,5.35,0,0,1,5.34,5.33V89.86" transform="translate(-16.17 -33.69)"/><path class="cls-1" d="M177.74,110v11.85a5.36,5.36,0,0,1-5.34,5.33h-35" transform="translate(-16.17 -33.69)"/></g></svg>