<svg xmlns="http://www.w3.org/2000/svg" viewBox="0 0 136.4 162.08"><defs><style>.cls-1,.cls-2,.cls-3,.cls-4{fill:none;stroke-miterlimit:10;}.cls-1,.cls-2{stroke:#832626;}.cls-1,.cls-3,.cls-4{stroke-width:3px;}.cls-2{stroke-width:4px;}.cls-3{stroke:#f2a31f;}.cls-4{stroke:#842727;}.cls-5{isolation:isolate;font-size:24.77px;fill:#f2a31f;font-family:Rupee;}</style></defs><title>flexibility_of_amount_loading</title><g id="Layer_292" data-name="Layer 292"><rect class="cls-1" x="1.5" y="73.48" width="133.4" height="87.1" rx="12"/><line class="cls-2" x1="2.15" y1="114.28" x2="133.6" y2="114.28"/><line class="cls-1" x1="82.45" y1="160.58" x2="82.45" y2="73.16"/><line class="cls-3" x1="16.07" y1="131.76" x2="44.56" y2="131.76"/><line class="cls-3" x1="15.75" y1="143.74" x2="61.4" y2="143.74"/><ellipse class="cls-1" cx="99.87" cy="119.97" rx="9.11" ry="16.81" transform="translate(-88.03 100.05) rotate(-50.08)"/><ellipse class="cls-1" cx="128.37" cy="119.97" rx="16.81" ry="9.11" transform="translate(-78.62 87.07) rotate(-38.69)"/><line class="cls-1" x1="63.34" y1="133.71" x2="81.48" y2="115.25"/><line class="cls-1" x1="100.58" y1="132.74" x2="82.77" y2="115.25"/><g id="Layer_293" data-name="Layer 293"><g id="deposit"><path class="cls-4" d="M70.53,92.69a20.37,20.37,0,0,1-.77-28.09" transform="translate(-31.8 -19.52)"/><path class="cls-4" d="M75.51,60.17a20.34,20.34,0,0,1,23,33.15" transform="translate(-31.8 -19.52)"/><path class="cls-4" d="M139.13,44.4s-21.21.5-26.9,2a4.75,4.75,0,0,0-4.74,2.66l-3.22,6.44a5.81,5.81,0,0,1-1.7,2.84L98,62.9" transform="translate(-31.8 -19.52)"/><path class="cls-4" d="M146.79,22.28l-31.15,4L91.57,21.58s-4.36-1.13-7.58-.19L66.93,28.22s-3.6,1.27-3.18,3.69a2.51,2.51,0,0,0,1.14,2s1.5,1.17,4.49-.08L78,30.65" transform="translate(-31.8 -19.52)"/><path class="cls-4" d="M66.74,34.47s-6.19,2.56-6.83,3.2c0,0-3,2.27-1.84,4.55,0,0,1.34,3,5,1.76l16-7.47" transform="translate(-31.8 -19.52)"/><path class="cls-4" d="M61.1,44.45l-6.38,3.1s-2.34,1.76-1.2,3.84c0,0,.85,2.84,3,2.13l15.71-6.61,1.37-.62s1.56-.15.85.64L71,52.12a15.83,15.83,0,0,0-1.64,11s.71,3.52,1.75,4.55c0,0,2.35,1.64,3.84-1.63,0,0,1.35-3.13.71-4.41l-.49-4.1a5.42,5.42,0,0,1,1.42-3.27s4.68-6,6.44-6.89c0,0,5.9-3.7,10.45-.36a6.41,6.41,0,0,1,1.85,7.11s-1.76,4.1-3.06,5.19" transform="translate(-31.8 -19.52)"/><text class="cls-5" transform="translate(46.82 68.08) scale(0.98 1)">`</text></g></g></g></svg>