<svg xmlns="http://www.w3.org/2000/svg" viewBox="0 0 161.11 161.94"><defs><style>.cls-1,.cls-2,.cls-3{fill:none;stroke-miterlimit:10;}.cls-1,.cls-2{stroke:#832626;}.cls-1,.cls-3{stroke-width:3px;}.cls-2{stroke-width:4px;}.cls-3{stroke:#f2a31f;}.cls-4{fill:#832626;}</style></defs><title>flexibility_of_use</title><g id="Complete_Online_Journey_copy" data-name="Complete Online Journey copy"><rect class="cls-1" x="31.61" y="41.45" width="94.17" height="61.48" rx="12"/><line class="cls-2" x1="32.06" y1="70.25" x2="124.86" y2="70.25"/><line class="cls-1" x1="88.75" y1="102.93" x2="88.75" y2="41.22"/><line class="cls-3" x1="41.89" y1="82.59" x2="62.01" y2="82.59"/><line class="cls-3" x1="41.66" y1="91.05" x2="73.89" y2="91.05"/><ellipse class="cls-1" cx="97.96" cy="79.71" rx="6.43" ry="11.87" transform="translate(-45.4 84.46) rotate(-50.08)"/><ellipse class="cls-1" cx="118.08" cy="79.71" rx="11.87" ry="6.43" transform="translate(-43.28 72.09) rotate(-38.69)"/><line class="cls-1" x1="75.26" y1="83.96" x2="88.06" y2="70.93"/><line class="cls-1" x1="101.55" y1="83.27" x2="88.98" y2="70.93"/><polyline class="cls-1" points="85.2 8.27 79.05 2.12 72.9 8.27"/><polyline class="cls-1" points="95.32 19.7 98.81 11.73 90.84 8.25"/><line class="cls-1" x1="79.46" y1="4.12" x2="79.46" y2="26.15"/><path class="cls-1" d="M99,47.89V45.16s8.44-12.67,17.17-12.39" transform="translate(-19.36 -19.22)"/><polyline class="cls-1" points="69.93 9.94 61.42 11.74 63.23 20.25"/><path class="cls-1" d="M99,47.89V45.16S90.52,32.49,81.79,32.77" transform="translate(-19.36 -19.22)"/></g><g id="Layer_294" data-name="Layer 294"><path class="cls-1" d="M30.8,47.21H168.47S179,46.64,179,58.56V140s.28,11.64-10.5,11.64H32.79s-11.92,1.42-11.92-12.77v-80S20.3,47.21,30.8,47.21Z" transform="translate(-19.36 -19.22)"/><line class="cls-1" x1="2.92" y1="114.84" x2="158.19" y2="114.84"/><path class="cls-4" d="M162.93,143.57a3.55,3.55,0,1,1-3.54-3.55A3.55,3.55,0,0,1,162.93,143.57Z" transform="translate(-19.36 -19.22)"/><path class="cls-4" d="M135,144.25h16.61a1.25,1.25,0,0,0,0-2.5H135a1.25,1.25,0,0,0,0,2.5Z" transform="translate(-19.36 -19.22)"/><line class="cls-1" x1="70.76" y1="132.81" x2="70.76" y2="159.87"/><line class="cls-1" x1="90.63" y1="133.19" x2="90.63" y2="158.93"/><path class="cls-4" d="M71.39,181.16h56.77a1.88,1.88,0,0,0,0-3.75H71.39a1.88,1.88,0,0,0,0,3.75Z" transform="translate(-19.36 -19.22)"/></g></svg>