<svg xmlns="http://www.w3.org/2000/svg" viewBox="0 0 118.13 131.77"><defs><style>.cls-1,.cls-2,.cls-4{fill:none;stroke-width:3px;}.cls-1,.cls-2{stroke:#842726;}.cls-1{stroke-linejoin:round;}.cls-2,.cls-4{stroke-miterlimit:10;}.cls-3{fill:#f6a31d;}.cls-4{stroke:#f6a31d;}</style></defs><title>forgot_password</title><g id="Layer_186" data-name="Layer 186"><path class="cls-1" d="M136.83,102.92V86s-1.51-3.39-7.17-3.39H47.08s-4.52-.38-4.52,6.41v48.64s-1.89,10.94,9,10.94H95.73" transform="translate(-40.94 -34.12)"/><rect class="cls-2" x="44.04" y="72.4" width="9.99" height="20.71" rx="4.97"/><path class="cls-2" d="M54.31,82.12a38.6,38.6,0,0,1-1-8.8c0-20.82,16.46-37.7,36.76-37.7s36.76,16.88,36.76,37.7a38.68,38.68,0,0,1-1.32,10.05" transform="translate(-40.94 -34.12)"/><circle class="cls-2" cx="90.23" cy="103.87" r="26.39"/><rect class="cls-3" x="88.57" y="113.82" width="3.43" height="3.78"/><path class="cls-4" d="M122.59,133.59s1.84-8.06,9-8.06c0,0,5.8,0,7.07,5.37,0,0,.43,4.24-3,5.94a8.25,8.25,0,0,0-4.52,7.07,11.53,11.53,0,0,1,0,2.54" transform="translate(-40.94 -34.12)"/></g></svg>