<svg xmlns="http://www.w3.org/2000/svg" viewBox="0 0 140.61 159.28"><defs><style>.cls-1,.cls-2{fill:none;stroke-miterlimit:10;stroke-width:3px;}.cls-1{stroke:#842726;}.cls-2{stroke:#f6a31d;}.cls-3{isolation:isolate;font-size:44.15px;fill:#832626;font-family:MyriadPro-Regular, Myriad Pro;}</style></defs><title>freedom_of_choice</title><g id="freedom_of_choice" data-name="freedom of choice"><path class="cls-1" d="M103,171.44H39.4s-8.2.19-8.2-9.7V48s.55-10.07,9.14-10.07h15.1S58.24,22.22,66.26,22c0,0,9.89-3,12.5,16,0,0,.37,15.3-13.06,17.54" transform="translate(-29.7 -20.36)"/><path class="cls-1" d="M78.76,38.07H103.3s2-12.5,6.43-14.92c0,0,8.58-4.66,13,4.1,0,0,4.85,6.72,2,17.16,0,0-3,11-11.75,10.82" transform="translate(-29.7 -20.36)"/><path class="cls-1" d="M126.89,38.26h16.6s6.71.56,6.71,8.39l.56,62.86" transform="translate(-29.7 -20.36)"/><line class="cls-1" x1="15.86" y1="48.86" x2="105.21" y2="48.86"/><circle class="cls-2" cx="109.66" cy="128.33" r="29.45"/><rect class="cls-1" x="22.02" y="74.79" width="16.04" height="15.67" rx="5.27"/><rect class="cls-1" x="22.02" y="112.65" width="16.04" height="15.67" rx="5.27"/><rect class="cls-1" x="53.17" y="74.79" width="16.04" height="15.67" rx="5.27"/><rect class="cls-1" x="53.17" y="112.92" width="16.04" height="15.67" rx="5.27"/><rect class="cls-1" x="84.69" y="74.79" width="16.04" height="15.67" rx="5.27"/><text class="cls-3" transform="translate(98.68 141.57)">3</text></g></svg>