<svg xmlns="http://www.w3.org/2000/svg" viewBox="0 0 158.55 90.79"><defs><style>.cls-1,.cls-2,.cls-3{fill:none;stroke-linejoin:round;stroke-width:2px;}.cls-1,.cls-3{stroke:#832626;}.cls-1,.cls-2{stroke-linecap:round;}.cls-2{stroke:#f6a31d;}</style></defs><title>gift_payment</title><g id="Layer_235" data-name="Layer 235"><path class="cls-1" d="M21.08,134.85h141V61.32h-141v73.53Zm25.68-3.24a22.13,22.13,0,0,0-22.13-22.13M136.4,131.61a22.13,22.13,0,0,1,22.13-22.13M46.76,64.56A22.13,22.13,0,0,1,24.63,86.69M136.4,64.56a22.13,22.13,0,0,0,22.13,22.13m-102.89,16A4.64,4.64,0,1,0,51,98.08a4.64,4.64,0,0,0,4.64,4.64Zm71.81,0a4.64,4.64,0,1,0-4.64-4.64,4.63,4.63,0,0,0,4.64,4.64Z" transform="translate(-20.08 -60.32)"/><path class="cls-2" d="M91.74,120.77c9.91,0,18-10.72,18-23.93s-8-23.94-18-23.94S73.79,83.62,73.79,96.84s8,23.93,17.95,23.93Z" transform="translate(-20.08 -60.32)"/><polyline class="cls-3" points="69.79 38.7 64.44 38.69 73.67 49.76"/><line class="cls-3" x1="63.52" y1="33.16" x2="78.28" y2="33.16"/><line class="cls-3" x1="63.52" y1="27.62" x2="78.28" y2="27.62"/><path class="cls-3" d="M89.87,87.94a5.54,5.54,0,0,1,0,11.08" transform="translate(-20.08 -60.32)"/><polyline class="cls-1" points="149.56 10.63 149.56 81.81 7.78 81.81"/><polyline class="cls-1" points="157.55 17.7 157.55 89.79 14.84 89.79"/></g></svg>