<svg xmlns="http://www.w3.org/2000/svg" viewBox="0 0 152.53 159.88"><defs><style>.cls-1,.cls-2,.cls-3{fill:none;stroke-width:3px;}.cls-1{stroke:#832826;stroke-linecap:round;}.cls-1,.cls-2{stroke-linejoin:round;}.cls-2{stroke:#f6a31d;}.cls-3{stroke:#832626;stroke-miterlimit:10;}</style></defs><title>higher_loan_amount</title><g id="Loan_copy" data-name="Loan copy"><line class="cls-1" x1="77.74" y1="36.69" x2="86.9" y2="14.6"/><line class="cls-1" x1="69.03" y1="36.43" x2="67.26" y2="24.39"/><path class="cls-1" d="M112.48,55.73l.37-.24c2.68-5.09,11.14-14.47,13.6-22,8-24.65-35.59-2.16-60.65-7.29-2.43-.5,11.45,15.59,17.37,29.56" transform="translate(-23.73 -20.17)"/><path class="cls-1" d="M82.68,58.16h31.49c10.5,0,25.43,12.16,37.74,26.65,17.78,20.93,38.54,72.2,5,89.05-11.83,5.94-30.29,4.56-56.84,4.56-28.3,0-46.76,1.19-58.15-5.2C11.22,156,29,104.36,46.55,83.39c11.5-13.78,25.63-25.23,36.13-25.23Z" transform="translate(-23.73 -20.17)"/><polyline class="cls-2" points="74.01 114.91 64.23 114.89 81.1 135.13"/><line class="cls-2" x1="62.54" y1="104.76" x2="89.54" y2="104.76"/><line class="cls-2" x1="62.54" y1="94.64" x2="89.54" y2="94.64"/><path class="cls-2" d="M97.75,114.81a10.14,10.14,0,0,1,0,20.27" transform="translate(-23.73 -20.17)"/><polyline class="cls-3" points="87.29 70.9 76.36 59.97 65.43 70.9"/><line class="cls-3" x1="76.36" y1="59.97" x2="76.36" y2="86.38"/></g></svg>