<svg xmlns="http://www.w3.org/2000/svg" viewBox="0 0 160.55 135.87"><defs><style>.cls-1,.cls-2,.cls-4,.cls-5{fill:none;stroke-miterlimit:10;stroke-width:2px;}.cls-1{stroke:#f3a220;}.cls-2{stroke:#832928;}.cls-3{fill:#832928;}.cls-4{stroke:#f4a31f;}.cls-5{stroke:#832726;}</style></defs><title>home_loan_range</title><g id="Wide_range_of_Home_Loans" data-name="Wide range of Home Loans"><g id="Home_loan_range" data-name="Home loan range"><path class="cls-1" d="M143.43,165.67v-20s.37-2.22,2.3-2.22h9.42s1.93.67,1.93,2.3v20" transform="translate(-19.87 -32.06)"/><path class="cls-2" d="M125.8,134.51l24.68-28.25s.74-.85,1.36,0l24.68,28.25" transform="translate(-19.87 -32.06)"/><path class="cls-2" d="M133.31,126.32v38.09s0,2.5,1.53,2.5h32.69s1.69.43,1.69-2.06V126.66" transform="translate(-19.87 -32.06)"/><path class="cls-3" d="M146.85,124.15h8.74a1.13,1.13,0,0,0,0-2.25h-8.74a1.13,1.13,0,0,0,0,2.25Z" transform="translate(-19.87 -32.06)"/><rect class="cls-2" x="103.05" y="106.86" width="10.19" height="23.15"/><rect class="cls-2" x="149.36" y="106.86" width="10.19" height="23.15"/></g><line class="cls-2" x1="1.33" y1="132.13" x2="30.33" y2="132.13"/><line class="cls-2" x1="4.65" y1="131.59" x2="4.65" y2="90.23"/><line class="cls-2" x1="26.77" y1="131.59" x2="26.77" y2="90.23"/><path class="cls-2" d="M20.58,126.09l13.65-13.65s1-1.15,2.44.26l13.6,13.6" transform="translate(-19.87 -32.06)"/><rect class="cls-2" x="12.85" y="93.82" width="5.71" height="7.16"/><rect class="cls-2" x="12.85" y="110.62" width="5.71" height="11.04"/><line class="cls-2" x1="57.02" y1="132.13" x2="86.02" y2="132.13"/><line class="cls-2" x1="60.34" y1="131.59" x2="60.34" y2="90.23"/><line class="cls-2" x1="82.46" y1="131.59" x2="82.46" y2="90.23"/><path class="cls-2" d="M76.27,126.09l13.65-13.65s1-1.15,2.44.26L106,126.3" transform="translate(-19.87 -32.06)"/><rect class="cls-2" x="68.55" y="93.82" width="5.71" height="7.16"/><rect class="cls-2" x="68.55" y="110.62" width="5.71" height="11.04"/><path class="cls-1" d="M41.62,107.52h5.16a2.56,2.56,0,0,1,2.56,2.56v15.37A1.56,1.56,0,0,1,47.79,127H40.62a1.56,1.56,0,0,1-1.56-1.56V110.08A2.56,2.56,0,0,1,41.62,107.52Z"/><line class="cls-2" x1="27.6" y1="100.57" x2="59.57" y2="100.57"/><line class="cls-2" x1="27.39" y1="127.25" x2="59.89" y2="127.25"/><polyline class="cls-2" points="23.07 87.17 62.48 87.17 63.73 87.17"/><polyline class="cls-2" points="40.47 86.44 40.47 75.96 46.08 75.96 46.08 85.93 46.08 86.65"/><path class="cls-4" d="M94.89,93.94V80.55a2.32,2.32,0,0,1,2.32-2.32h5.47A2.32,2.32,0,0,1,105,80.55V93.94" transform="translate(-19.87 -32.06)"/><line class="cls-5" x1="25.47" y1="62.33" x2="134.87" y2="62.33"/><line class="cls-5" x1="52.53" y1="61.44" x2="52.53" y2="23.96"/><line class="cls-5" x1="107.43" y1="61.44" x2="107.43" y2="24.65"/><path class="cls-5" d="M115.33,37.77h7.55a3.43,3.43,0,0,1,3.43,3.43L129.76,53a3.43,3.43,0,0,1-3.43,3.43H74.14A3.43,3.43,0,0,1,70.72,53L73.48,41.2a3.43,3.43,0,0,1,3.43-3.43h6.3" transform="translate(-19.87 -32.06)"/><line class="cls-5" x1="68.49" y1="5.7" x2="90.49" y2="5.7"/><path class="cls-5" d="M83.11,42.6V34.75a1.69,1.69,0,0,1,1.68-1.69H87a1.69,1.69,0,0,1,1.69,1.69V42.6" transform="translate(-19.87 -32.06)"/><path class="cls-5" d="M110.2,42.6V34.75a1.69,1.69,0,0,1,1.68-1.69h2.18a1.69,1.69,0,0,1,1.69,1.69V42.6" transform="translate(-19.87 -32.06)"/><rect class="cls-5" x="60.02" y="32.05" width="6.33" height="6.03" rx="1.28"/><rect class="cls-5" x="60.02" y="48.84" width="6.33" height="6.03" rx="1.28"/><rect class="cls-5" x="93.72" y="48.84" width="6.33" height="6.03" rx="1.28"/><rect class="cls-5" x="76.89" y="32.05" width="6.33" height="6.03" rx="1.28"/><rect class="cls-5" x="93.83" y="32.05" width="6.33" height="6.03" rx="1.28"/><path class="cls-5" d="M72.31,78.62s-3-3.8-6.23-2.24c0,0-6.62,3.89-.3,8.76" transform="translate(-19.87 -32.06)"/><path class="cls-5" d="M62.77,81.83S57.12,83,57.9,88.54c0,0,.58,4.58,4.87,5.84" transform="translate(-19.87 -32.06)"/><path class="cls-5" d="M127.16,78.62s3-3.8,6.23-2.24c0,0,6.62,3.89.29,8.76" transform="translate(-19.87 -32.06)"/><path class="cls-5" d="M136.7,81.83s5.65,1.17,4.87,6.71c0,0-.59,4.58-4.87,5.84" transform="translate(-19.87 -32.06)"/></g></svg>