<svg xmlns="http://www.w3.org/2000/svg" viewBox="0 0 154.11 156.55"><defs><style>.cls-1,.cls-2{fill:none;stroke-miterlimit:10;stroke-width:3px;}.cls-1{stroke:#f6a31d;}.cls-2{stroke:#832626;}</style></defs><title>innovation</title><g id="Innovation"><polyline class="cls-1" points="70.45 127.16 70.45 98.5 83.61 98.3 83.61 126.46"/><path class="cls-2" d="M118.86,148.52c0-10.7,8.25-20.31,8.25-20.31,8.08-7.32,13.15-18.89,13.15-30.65a40,40,0,1,0-80,0c0,11.11,4.53,22.16,11.85,29.41,0,0,8.75,9.45,8.75,21.55" transform="translate(-22.95 -22.48)"/><line class="cls-2" x1="130.27" y1="45.05" x2="143.41" y2="37.92"/><line class="cls-2" x1="138.53" y1="75.08" x2="154.11" y2="75.08"/><line class="cls-2" x1="130.46" y1="105.68" x2="143.6" y2="112.81"/><line class="cls-2" x1="77.15" x2="77.15" y2="14.83"/><line class="cls-2" x1="115.81" y1="10.14" x2="108.12" y2="22.9"/><line class="cls-2" x1="38.29" y1="10.14" x2="46.36" y2="22.9"/><line class="cls-2" x1="10.32" y1="37.73" x2="23.28" y2="45.05"/><line class="cls-2" y1="75.27" x2="15.58" y2="75.27"/><line class="cls-2" x1="10.14" y1="113" x2="23.28" y2="105.49"/><path class="cls-2" d="M118.86,164.25V148.52h-38v17s-1.08,8.45,10.56,12h15.77S118.86,175.83,118.86,164.25Z" transform="translate(-22.95 -22.48)"/><line class="cls-2" x1="57.95" y1="134.29" x2="95.92" y2="134.29"/><line class="cls-2" x1="57.95" y1="141.05" x2="95.92" y2="141.05"/><line class="cls-2" x1="57.95" y1="147.52" x2="95.92" y2="147.52"/><path class="cls-1" d="M106.56,120.78H114s4.08-1,4.08-4.22.28-6.9-2.95-6.9c0,0-5.35-.43-7.18,1.12a4.13,4.13,0,0,0-1.55,4C106.42,115.71,106.56,120.78,106.56,120.78Z" transform="translate(-22.95 -22.48)"/><path class="cls-1" d="M93.4,121l-7.46-.26s-4-1.12-3.93-4.36,0-6.9,3.19-6.79c0,0,5.37-.24,7.14,1.38a4.09,4.09,0,0,1,1.41,4C93.72,115.91,93.4,121,93.4,121Z" transform="translate(-22.95 -22.48)"/></g></svg>