<svg xmlns="http://www.w3.org/2000/svg" viewBox="0 0 156.93 162.33"><defs><style>.cls-1,.cls-2{fill:none;stroke-linecap:round;stroke-linejoin:round;stroke-width:3px;}.cls-1{stroke:#832626;}.cls-2{stroke:#f6a31d;}</style></defs><title>minimum_investment</title><g id="investment"><line class="cls-1" x1="78.47" y1="38.57" x2="78.47" y2="158.55"/><line class="cls-2" x1="1.5" y1="160.83" x2="155.43" y2="160.83"/><path class="cls-1" d="M118.33,52.65c0,10.55-8.21,19.11-18.33,19.11S81.67,63.2,81.67,52.65,100,19.4,100,19.4,118.33,42.1,118.33,52.65Z" transform="translate(-21.53 -17.9)"/><path class="cls-1" d="M76,86.4a19.66,19.66,0,0,1,2.64,26.88A17.82,17.82,0,0,1,52.84,116c-7.85-6.66-14-36.53-14-36.53S68.13,79.74,76,86.4Z" transform="translate(-21.53 -17.9)"/><line class="cls-1" x1="41.82" y1="80.6" x2="78.47" y2="114.98"/><path class="cls-1" d="M124,86.4a19.66,19.66,0,0,0-2.64,26.88A17.82,17.82,0,0,0,147.16,116c7.85-6.66,14-36.53,14-36.53S131.87,79.74,124,86.4Z" transform="translate(-21.53 -17.9)"/><line class="cls-1" x1="115.12" y1="80.6" x2="78.47" y2="114.98"/></g></svg>