<svg xmlns="http://www.w3.org/2000/svg" viewBox="0 0 116.2 161.03"><defs><style>.cls-1,.cls-2{fill:none;stroke-miterlimit:10;stroke-width:3px;}.cls-1{stroke:#832626;}.cls-2{stroke:#f6a31d;}</style></defs><title>instant_approval</title><g id="Layer_213" data-name="Layer 213"><line class="cls-1" x1="70.4" y1="52.74" x2="70.4" y2="97.69"/><path class="cls-1" d="M100.32,58.58H57.77a8.92,8.92,0,0,0-1.16.08c-2.79.42-12.9,2.66-12.9,13.38v41.1s.37,10.25,9.56,14.22a10.46,10.46,0,0,0,4.21.85h43.89" transform="translate(-42.21 -19.74)"/><path class="cls-1" d="M96.8,109.14l44.92,20.44a1.68,1.68,0,0,1,.88.95l.05.14a1.68,1.68,0,0,1-.43,1.8l-7.44,6.9s-1.82,1.33-.2,3.52l21.71,25.25-12.22,10.51L122.36,153.4a2.07,2.07,0,0,0-3.51-.33l-8,6.34a1.28,1.28,0,0,1-1.19.2l-.54-.19a1.22,1.22,0,0,1-.81-.87L95.83,110.16S95.2,108.26,96.8,109.14Z" transform="translate(-42.21 -19.74)"/><path class="cls-2" d="M52,75.55l23.41,32.18s2.34,4.39,5,0L136.3,20.55" transform="translate(-42.21 -19.74)"/></g></svg>