<svg xmlns="http://www.w3.org/2000/svg" viewBox="0 0 156.17 150.26"><defs><style>.cls-1{fill:#f6a31d;}.cls-2{fill:#832626;}.cls-3,.cls-4{fill:none;stroke-miterlimit:10;stroke-width:3px;}.cls-3{stroke:#8a2625;}.cls-4{stroke:#832626;}</style></defs><title>ATM</title><g id="atm"><rect class="cls-1" x="19.8" y="85.4" width="8.59" height="8.59" rx="1.57"/><rect class="cls-1" x="33.95" y="85.4" width="8.59" height="8.59" rx="1.57"/><rect class="cls-1" x="48.17" y="85.4" width="8.59" height="8.59" rx="1.57"/><rect class="cls-1" x="19.8" y="99.55" width="8.59" height="8.59" rx="1.57"/><rect class="cls-1" x="33.95" y="99.55" width="8.59" height="8.59" rx="1.57"/><rect class="cls-1" x="48.17" y="99.55" width="8.59" height="8.59" rx="1.57"/><rect class="cls-1" x="19.8" y="113.7" width="8.59" height="8.59" rx="1.57"/><rect class="cls-1" x="33.95" y="113.7" width="8.59" height="8.59" rx="1.57"/><rect class="cls-1" x="48.17" y="113.7" width="8.59" height="8.59" rx="1.57"/><path class="cls-2" d="M83.81,77.67A8.06,8.06,0,0,1,84.14,79a.75.75,0,0,1-.18.7,1.43,1.43,0,0,1-.87.29c-.42,0-1,.06-1.73.06S80,80,79.57,80a5.56,5.56,0,0,1-1-.13.93.93,0,0,1-.47-.29,1.47,1.47,0,0,1-.22-.47l-2-5.83H65.05l-1.83,5.67a1.73,1.73,0,0,1-.24.53.92.92,0,0,1-.47.34,3.43,3.43,0,0,1-.91.17c-.4,0-.92,0-1.57,0a13.49,13.49,0,0,1-1.61-.07,1.22,1.22,0,0,1-.81-.32.9.9,0,0,1-.16-.73,7.62,7.62,0,0,1,.34-1.26l8.95-25.74a2.39,2.39,0,0,1,.31-.62,1.31,1.31,0,0,1,.58-.36,5.07,5.07,0,0,1,1.08-.15c.46,0,1.08,0,1.84,0s1.59,0,2.11,0a6.38,6.38,0,0,1,1.22.15,1.17,1.17,0,0,1,.63.38,2,2,0,0,1,.33.67l9,25.72ZM70.48,56.39h0l-4.1,12.33h8.22l-4.1-12.33Zm33.11-3.12a8.9,8.9,0,0,0-.07-1.14,2.84,2.84,0,0,0-.16-.75,1,1,0,0,0-.28-.41.63.63,0,0,0-.37-.12H82.25a.59.59,0,0,0-.37.12,1,1,0,0,0-.28.41,3.23,3.23,0,0,0-.17.75c0,.31-.05.69-.05,1.14s0,.8.05,1.11a3.4,3.4,0,0,0,.17.74,1,1,0,0,0,.28.41.55.55,0,0,0,.37.14h7.28V79.06a.58.58,0,0,0,.14.4.92.92,0,0,0,.48.29,4.16,4.16,0,0,0,.91.18,14.44,14.44,0,0,0,2.84,0,3.92,3.92,0,0,0,.91-.18,1,1,0,0,0,.49-.29.58.58,0,0,0,.14-.4V55.67h7.27a.59.59,0,0,0,.37-.14,1,1,0,0,0,.28-.41,2.94,2.94,0,0,0,.16-.74,8.64,8.64,0,0,0,.07-1.11Zm37.24,25.79a.68.68,0,0,1-.12.4.82.82,0,0,1-.45.29,3.88,3.88,0,0,1-.86.18A10.42,10.42,0,0,1,138,80a10.19,10.19,0,0,1-1.35-.07,3.55,3.55,0,0,1-.85-.18.9.9,0,0,1-.45-.29.62.62,0,0,1-.13-.4V55.45h0L126.79,79a1.07,1.07,0,0,1-.29.48,1.58,1.58,0,0,1-.55.3,3.8,3.8,0,0,1-.89.15q-.53,0-1.29,0a12,12,0,0,1-1.3-.06,4.27,4.27,0,0,1-.89-.17,1.89,1.89,0,0,1-.55-.31.9.9,0,0,1-.27-.42l-8.12-23.59h0V79.06a.62.62,0,0,1-.13.4.78.78,0,0,1-.46.29,3.78,3.78,0,0,1-.85.18,10.32,10.32,0,0,1-1.37.07,10.13,10.13,0,0,1-1.34-.07,3.64,3.64,0,0,1-.86-.18.82.82,0,0,1-.45-.29.61.61,0,0,1-.12-.4V53.21a2.37,2.37,0,0,1,.6-1.76,2.2,2.2,0,0,1,1.62-.6h3.85a7.58,7.58,0,0,1,1.77.17,3.33,3.33,0,0,1,1.28.56,3.12,3.12,0,0,1,.9,1,7.42,7.42,0,0,1,.63,1.58L124,71.48H124l6.5-17.25a9.88,9.88,0,0,1,.64-1.59,3.82,3.82,0,0,1,.8-1,2.72,2.72,0,0,1,1.09-.57,5.37,5.37,0,0,1,1.46-.17h4a3.28,3.28,0,0,1,1.05.15,1.77,1.77,0,0,1,.71.47,2,2,0,0,1,.43.73,3.12,3.12,0,0,1,.14,1Z" transform="translate(-21.92 -24.87)"/><rect class="cls-3" x="1.5" y="1.5" width="153.17" height="147.26" rx="8.16"/><rect class="cls-4" x="20.08" y="15.3" width="115.72" height="50.68" rx="8.77"/><path class="cls-2" d="M114.39,117h45.86c3.22,0,3.23-5,0-5H114.39c-3.22,0-3.22,5,0,5Z" transform="translate(-21.92 -24.87)"/><path class="cls-2" d="M114.39,145.86h45.86c3.22,0,3.23-5,0-5H114.39c-3.22,0-3.22,5,0,5Z" transform="translate(-21.92 -24.87)"/></g></svg>