<svg xmlns="http://www.w3.org/2000/svg" viewBox="0 0 159.25 159.37"><defs><style>.cls-1{fill:#832626;}.cls-2{fill:#f6a31d;}</style></defs><title>content_calculator</title><g id="Layer_92" data-name="Layer 92"><path class="cls-1" d="M54.05,45H66.71c.08,0,.11.05.11.11v1.2c0,.08,0,.11-.11.11H62v.11a3.71,3.71,0,0,1,1.58,2.25l0,.38h3.13c.08,0,.11,0,.11.11v1.21c0,.07,0,.1-.11.1h-3q0,2-2.47,3.94a7.85,7.85,0,0,1-3.12,1.26s0,.05-.11.05l6.8,8.81v.1H62.22s-2.66-3.4-7.89-10.22v0h.82q4.34,0,5.21-3.12a5.47,5.47,0,0,0,0-.61v-.16H54.05c-.07,0-.1,0-.1-.1V49.25c0-.07,0-.11.1-.11h6.31a3.52,3.52,0,0,0-1.37-2,5.81,5.81,0,0,0-2.63-.76H54.05c-.07,0-.1,0-.1-.11v-1.2C54,45,54,45,54.05,45Z" transform="translate(-20.38 -20.32)"/><path class="cls-1" d="M97.13,124.65h10.15q.09,0,.09.09v1a.08.08,0,0,1-.09.09h-3.82v.09a2.94,2.94,0,0,1,1.27,1.8l0,.31h2.51q.09,0,.09.09v1a.08.08,0,0,1-.09.09h-2.41a4.16,4.16,0,0,1-2,3.15,6.24,6.24,0,0,1-2.5,1s0,0-.08,0l5.45,7.06v.09h-2.07s-2.13-2.74-6.32-8.2v0H98c2.32,0,3.71-.84,4.18-2.5,0-.2,0-.36,0-.49v-.12h-5.1s-.08,0-.08-.09v-1c0-.06,0-.09.08-.09h5.06a2.86,2.86,0,0,0-1.1-1.59,4.56,4.56,0,0,0-2.11-.61H97.13s-.08,0-.08-.09v-1C97.05,124.68,97.08,124.65,97.13,124.65Z" transform="translate(-20.38 -20.32)"/><path class="cls-1" d="M112.11,40.91l6.42,19.2c.41-.69.7-1.16,1-1.64q9.74-18.4,19.46-36.81a2.1,2.1,0,0,1,2.18-1.34c8.89.05,17.77,0,26.66,0h1.53v5.14h-1.74c-7.82,0-15.63,0-23.45,0a2.11,2.11,0,0,0-2.19,1.32Q130.26,49,118.51,71.1c-.28.51-.57,1-1,1.79-.73-2.12-1.39-4-2-5.86q-3.28-9.86-6.51-19.72A1.56,1.56,0,0,0,107.2,46c-4.38.07-8.77,0-13.28,0,2.15,9.16.5,17.58-4.26,25.58A35.31,35.31,0,0,1,93.6,72,7.61,7.61,0,0,1,100,79.76c0,5.25,0,10.5,0,15.74v1.91h79.58v71.91H100c0,.85,0,1.52,0,2.19a7.82,7.82,0,0,1-8.19,8.16q-21,0-42.08,0H28.89c-5.26,0-8.51-3.24-8.51-8.49V80.29c0-5.34,3.24-8.54,8.62-8.55h4.14C32,69.2,30.81,66.83,30,64.35c-6.64-19.11,5.8-40,25.74-43.41a33.22,33.22,0,0,1,36,18.67,2,2,0,0,0,2.18,1.32C99.87,40.89,105.91,40.91,112.11,40.91ZM43.48,82c-2-1.7-3.71-3.23-5.5-4.66a2.77,2.77,0,0,0-1.59-.46c-2.46,0-4.93,0-7.39,0-2.8,0-3.48.68-3.48,3.49q0,44.66,0,89.3c0,4.86.83,5,5.05,4.88a1.63,1.63,0,0,0,1.72-1.06c1.31-2.74,2.73-5.44,4-8.18A1.58,1.58,0,0,1,38,164.24q22.25,0,44.49,0a1.59,1.59,0,0,1,1.66,1.11,68.52,68.52,0,0,1,3.08,6.34c.9,2.52,2.46,3.22,5,2.9,1.8-.24,2.73-1,2.73-2.84v-92c0-1.86-.9-2.79-2.71-2.82s-3.86,0-5.78,0a1.91,1.91,0,0,0-1.07.18c-1.9,1.57-3.76,3.2-5.83,5H89.66v20.41H30.74V82Zm131,20.67H100.13v7.74c12,2.08,20.08,10.9,20.44,22.31A22.43,22.43,0,0,1,116,147.13a23.24,23.24,0,0,1-15.88,9.25v7.79H174.5ZM89.76,53.89C90,38.5,77.25,25.8,62.19,25.46A28.31,28.31,0,1,0,61,82.06C76.83,82.34,89.89,69.23,89.76,53.89ZM35.87,97.33H84.5V87.25H35.87Zm64.22,53.76c6.69-.42,16.29-7.31,15.36-19.51-.59-7.81-8.78-16.27-15.36-15.71ZM37.54,174.42H83c-.67-1.34-1.36-2.49-1.83-3.72s-1.11-1.33-2.2-1.32q-17.1,0-34.21,0c-5.17,0-5.17,0-7.25,4.76A2,2,0,0,0,37.54,174.42Z" transform="translate(-20.38 -20.32)"/><path class="cls-1" d="M156.44,37.22l4.45,2.34c-5.87,11.09-11.7,22.1-17.62,33.3l-4.46-2.35Z" transform="translate(-20.38 -20.32)"/><path class="cls-1" d="M138.66,48.5V43.57h5V48.5Z" transform="translate(-20.38 -20.32)"/><path class="cls-1" d="M161.64,61.56v4.93h-5V61.56Z" transform="translate(-20.38 -20.32)"/><path class="cls-1" d="M72,138.69c0-2.72-.32-5.49.07-8.15a8.76,8.76,0,0,1,9.25-7.37,9,9,0,0,1,8.42,8.91c.09,4.29.08,8.57,0,12.85a9,9,0,1,1-18,0c0-2.09,0-4.18,0-6.27Zm12.62,0c0-2.14,0-4.28,0-6.42a3.85,3.85,0,1,0-7.7,0q0,6.33,0,12.68a3.85,3.85,0,1,0,7.7,0C84.64,142.87,84.62,140.79,84.62,138.7Z" transform="translate(-20.38 -20.32)"/><path class="cls-1" d="M35.91,110.37h4.94v4.94H35.91Z" transform="translate(-20.38 -20.32)"/><path class="cls-1" d="M66.6,149v4.89h-5V149Z" transform="translate(-20.38 -20.32)"/><path class="cls-1" d="M53.75,148.94v4.91h-5v-4.91Z" transform="translate(-20.38 -20.32)"/><path class="cls-1" d="M35.9,148.92h5v4.94h-5Z" transform="translate(-20.38 -20.32)"/><path class="cls-1" d="M61.6,136.07h5V141h-5Z" transform="translate(-20.38 -20.32)"/><path class="cls-1" d="M53.69,141.05H48.77v-5h4.92Z" transform="translate(-20.38 -20.32)"/><path class="cls-1" d="M40.87,136.08V141h-5v-4.94Z" transform="translate(-20.38 -20.32)"/><path class="cls-1" d="M48.72,115.33v-5h4.94v5Z" transform="translate(-20.38 -20.32)"/><path class="cls-1" d="M61.63,123.18h4.88v5H61.63Z" transform="translate(-20.38 -20.32)"/><path class="cls-1" d="M48.72,128.2v-4.94h5v4.94Z" transform="translate(-20.38 -20.32)"/><path class="cls-1" d="M40.85,128.21H35.91v-5h4.94Z" transform="translate(-20.38 -20.32)"/><path class="cls-1" d="M74.42,115.34v-4.93h5v4.93Z" transform="translate(-20.38 -20.32)"/><path class="cls-1" d="M61.57,115.34v-4.93h5v4.93Z" transform="translate(-20.38 -20.32)"/><path class="cls-1" d="M169.35,107.84v12.65h-5v-7.61h-7.69v-5Z" transform="translate(-20.38 -20.32)"/><path class="cls-1" d="M164.24,146.34h5.09V159H156.7v-5h7.54Z" transform="translate(-20.38 -20.32)"/><path class="cls-2" d="M50.41,39.38l-2.9-3.74c7.44-6.51,20.54-7.07,29.48,1C86.21,45.08,86.9,59,79.66,67.77l-3.86-3a18.05,18.05,0,0,0,3.3-15,17.54,17.54,0,0,0-5.5-9.4C68.29,35.55,59.16,33.37,50.41,39.38Z" transform="translate(-20.38 -20.32)"/><path class="cls-2" d="M43.35,39.73l3.84,3a18,18,0,0,0-3.52,13.78,17.62,17.62,0,0,0,5.51,10.42c5,4.78,14.25,7.44,23.39,1.22l2.93,3.73c-7.86,6.74-21.28,7-30.11-1.63S36.31,48.21,43.35,39.73Z" transform="translate(-20.38 -20.32)"/></g></svg>