<svg xmlns="http://www.w3.org/2000/svg" viewBox="0 0 142.87 157.34"><defs><style>.cls-1,.cls-2,.cls-4,.cls-5{fill:none;stroke-miterlimit:10;}.cls-1{stroke:#888032;}.cls-2,.cls-4{stroke:#832626;}.cls-2{stroke-width:3px;}.cls-3{fill:#f6a31d;}.cls-4,.cls-5{stroke-width:2px;}.cls-5{stroke:#f6a31d;}.cls-6{fill:#832626;}</style></defs><title>loan_against_resi_commercial</title><g id="Layer_306" data-name="Layer 306"><path class="cls-1" d="M46.11,135" transform="translate(-32.47 -22.22)"/><path class="cls-2" d="M51.38,136.7l20.41,26.19s1.53,2.55-.17,4.25l-10.71,10s-2.11,2.7-4.94-1.36L35.06,148.43s-2.55-2.38.17-3.91l10.88-6.91S49.81,134.6,51.38,136.7Z" transform="translate(-32.47 -22.22)"/><path class="cls-2" d="M53.76,137.89s8.68-4,12.5-10.88c0,0,13-12.76,30.11-6.89,0,0,11,6.12,18.87,6.12,0,0,25.09-3.66,18.12,11.48,0,0-8.68,7-18.37,3.83,0,0-13.52-2.81-18.88,1" transform="translate(-32.47 -22.22)"/><path class="cls-2" d="M71.11,161.36s8.42-6.55,17.6-3.74c0,0,27.3,8.16,42.61,1.53,0,0,13.52-7.65,18.36-13.78,0,0,17.95-16,22.37-19.28a3.61,3.61,0,0,0,1.14-1.37c.93-2,1.83-7.32-4.54-7.12-.24,0-.48,0-.72,0-2.64.26-18.37,2.36-27.33,15.59" transform="translate(-32.47 -22.22)"/><path class="cls-3" d="M65.3,166.06A3.29,3.29,0,1,1,62,162.77,3.29,3.29,0,0,1,65.3,166.06Z" transform="translate(-32.47 -22.22)"/><line class="cls-4" x1="2.56" y1="85.76" x2="126.43" y2="85.76"/><line class="cls-4" x1="64.58" y1="65.46" x2="64.58" y2="85.11"/><circle class="cls-4" cx="97.21" cy="83.92" r="9.7" transform="translate(-39.27 137.03) rotate(-76.72)"/><path class="cls-4" d="M97.05,70.63V59.76s-.09-3.6,3.17-3.6h22.83s3-.5,3,3.43v47.74" transform="translate(-32.47 -22.22)"/><path class="cls-4" d="M106.69,55.33V26.79s.22-3.57,3.12-3.57h33.66s3.24-.22,3.24,3.79v80.88" transform="translate(-32.47 -22.22)"/><line class="cls-4" x1="104.48" y1="58.02" x2="104.48" y2="68"/><line class="cls-4" x1="104.48" y1="41.52" x2="104.48" y2="51.5"/><line class="cls-4" x1="104.48" y1="24.47" x2="104.48" y2="34.44"/><line class="cls-5" x1="104.48" y1="8.53" x2="104.48" y2="18.5"/><line class="cls-5" x1="94.28" y1="8.53" x2="94.28" y2="18.5"/><line class="cls-5" x1="83.3" y1="8.53" x2="83.3" y2="18.5"/><line class="cls-4" x1="83.3" y1="24.63" x2="83.3" y2="29.26"/><line class="cls-4" x1="94.23" y1="24.63" x2="94.23" y2="29.26"/><line class="cls-4" x1="86.45" y1="72.08" x2="86.45" y2="75.99"/><line class="cls-4" x1="86.45" y1="64.46" x2="86.45" y2="68.36"/><line class="cls-4" x1="86.45" y1="56.82" x2="86.45" y2="60.73"/><line class="cls-4" x1="86.45" y1="49.21" x2="86.45" y2="53.12"/><line class="cls-5" x1="86.45" y1="41.47" x2="86.45" y2="45.37"/><line class="cls-5" x1="79.18" y1="41.47" x2="79.18" y2="45.37"/><line class="cls-5" x1="71.71" y1="41.47" x2="71.71" y2="45.37"/><line class="cls-4" x1="79.28" y1="64.46" x2="79.28" y2="68.36"/><line class="cls-4" x1="79.28" y1="56.82" x2="79.28" y2="60.73"/><line class="cls-4" x1="79.28" y1="49.21" x2="79.28" y2="53.12"/><line class="cls-4" x1="79.35" y1="72.08" x2="79.35" y2="75.99"/><line class="cls-4" x1="71.7" y1="72.08" x2="71.7" y2="75.99"/><path class="cls-4" d="M35,89.34,59,61.89s.72-.82,1.32,0l24,27.45" transform="translate(-32.47 -22.22)"/><path class="cls-4" d="M42.33,81.37v24.32s0,1.59,1.48,1.59H75.57s1.64.28,1.64-1.32V81.59" transform="translate(-32.47 -22.22)"/><path class="cls-5" d="M54.25,106.51V92.85s.28-1.65,1.7-1.65h7s1.43.49,1.43,1.7v13.67" transform="translate(-32.47 -22.22)"/><line class="cls-6" x1="23" y1="55.95" x2="31.5" y2="55.95"/><path class="cls-6" d="M55.47,79.42H64a1.25,1.25,0,0,0,0-2.5h-8.5a1.25,1.25,0,0,0,0,2.5Z" transform="translate(-32.47 -22.22)"/></g></svg>