<svg xmlns="http://www.w3.org/2000/svg" viewBox="0 0 153.22 160.55"><defs><style>.cls-1,.cls-2,.cls-3{fill:none;stroke-linejoin:round;}.cls-1,.cls-3{stroke:#832626;}.cls-1{stroke-linecap:round;stroke-width:4px;}.cls-2{stroke:#f6a31d;}.cls-2,.cls-3{stroke-width:3px;}.cls-4{fill:#832826;}</style></defs><title>loan_repayment</title><g id="loan_repayment" data-name="loan repayment"><line class="cls-1" x1="78.08" y1="37.11" x2="87.22" y2="15.07"/><line class="cls-1" x1="69.39" y1="36.86" x2="67.62" y2="24.84"/><path class="cls-1" d="M113.43,56.4l.38-.24c2.68-5.07,11.12-14.44,13.57-22,8-24.6-35.51-2.16-60.52-7.28-2.43-.49,11.42,15.56,17.33,29.5" transform="translate(-24.38 -20.42)"/><path class="cls-1" d="M83.7,58.82h31.42c10.48,0,25.38,12.15,37.66,26.6,17.74,20.88,38.47,72,5,88.86-11.8,5.93-30.23,4.55-56.72,4.55-28.23,0-46.66,1.19-58-5.18C12.39,156.49,30.18,104.93,47.65,84,59.12,70.25,73.22,58.82,83.7,58.82Z" transform="translate(-24.38 -20.42)"/><g id="Layer_7" data-name="Layer 7"><polyline class="cls-2" points="75.14 105.08 68.4 105.07 80.02 118.93"/><line class="cls-2" x1="67.24" y1="98.13" x2="85.83" y2="98.13"/><line class="cls-2" x1="67.24" y1="91.2" x2="85.83" y2="91.2"/><path class="cls-2" d="M99.52,111.61a6.94,6.94,0,0,1,0,13.88" transform="translate(-24.38 -20.42)"/><path class="cls-3" d="M95.56,153.3c-15.5-3.4-24-15.78-24-29.12a28.75,28.75,0,0,1,29.3-29.13c17,0,29.31,13.11,29.31,29.13a30.11,30.11,0,0,1-23.92,29.26" transform="translate(-24.38 -20.42)"/><path class="cls-4" d="M94.9,152.61l-3.71-4.55a.71.71,0,0,1,.3-1.18,1.45,1.45,0,0,1,1.59.4c.09.11,5.38,6.59,5.46,6.71a.74.74,0,0,1,.09.55.83.83,0,0,1-.63.56l-8,2.06a1.47,1.47,0,0,1-1.53-.58.73.73,0,0,1,.54-1.11l5-1.31" transform="translate(-24.38 -20.42)"/></g></g></svg>