<svg xmlns="http://www.w3.org/2000/svg" viewBox="0 0 133.93 159.8"><defs><style>.cls-1,.cls-2{fill:none;stroke-linejoin:round;stroke-width:3px;}.cls-1{stroke:#832826;}.cls-2{stroke:#f6a31d;}</style></defs><title>Login</title><g id="Layer_66" data-name="Layer 66"><rect class="cls-1" x="1.5" y="58.66" width="130.93" height="99.64" rx="2"/><path class="cls-1" d="M56.36,79.49V65.24A43.64,43.64,0,0,1,100,21.6h0a43.64,43.64,0,0,1,43.64,43.64V79.49" transform="translate(-33.04 -20.1)"/><path class="cls-2" d="M95.81,101.07a17.41,17.41,0,0,0-4.54,32v15.52a8.72,8.72,0,0,0,8.73,8.72h0a8.72,8.72,0,0,0,8.73-8.72V133.07a17.42,17.42,0,0,0-12.92-32Z" transform="translate(-33.04 -20.1)"/></g></svg>