<svg xmlns="http://www.w3.org/2000/svg" viewBox="0 0 160.17 140.68"><defs><style>.cls-1,.cls-2,.cls-3{fill:none;stroke-miterlimit:10;stroke-width:3px;}.cls-1{stroke:#832626;}.cls-2{stroke:#f5a31e;}.cls-3{stroke:#f6a41f;}</style></defs><title>long_term_investment</title><g id="Layer_280" data-name="Layer 280"><path class="cls-1" d="M107.39,156.27h19.49s1.73.47,1.73-1.57V100.16s-.16-6.6-5.19-6.6H109.27s-4.71-.16-4.71,6.28v53S103.77,156.27,107.39,156.27Z" transform="translate(-19.91 -29.66)"/><path class="cls-1" d="M142,156.27h19.49s1.73.47,1.73-1.57V75s-.15-6.6-5.18-6.6H143.85s-4.71-.16-4.71,6.28v78.09S138.35,156.27,142,156.27Z" transform="translate(-19.91 -29.66)"/><path class="cls-1" d="M72.49,156.27H92s1.73.47,1.73-1.57V125.28s-.15-6.6-5.18-6.6H74.38s-4.71-.16-4.71,6.28v27.85S68.88,156.27,72.49,156.27Z" transform="translate(-19.91 -29.66)"/><path class="cls-1" d="M37.6,156.27H57.09s1.73.47,1.73-1.57v-7.65s-.16-6.6-5.19-6.6H39.49s-4.72-.16-4.72,6.28v6.08S34,156.27,37.6,156.27Z" transform="translate(-19.91 -29.66)"/><line class="cls-2" x1="99.11" y1="37.75" x2="19.88" y2="92.88"/><path class="cls-3" d="M102.91,68.25l16.5-2.12s3.07-.24-1.65,8.49l-4.24,7" transform="translate(-19.91 -29.66)"/><rect class="cls-1" x="1.5" y="20.36" width="157.17" height="118.82" rx="8.56"/><rect class="cls-1" x="57.77" y="1.5" width="44.64" height="18.86" rx="2.92"/></g></svg>