<svg xmlns="http://www.w3.org/2000/svg" viewBox="0 0 160.46 146.17"><defs><style>.cls-1{fill:none;stroke:#832626;stroke-miterlimit:10;stroke-width:3px;}.cls-2{fill:#f6a31d;}</style></defs><title>mail</title><g id="Layer_226" data-name="Layer 226"><line class="cls-1" x1="0.25" y1="144.3" x2="160.46" y2="144.67"/><line class="cls-1" x1="1.61" y1="51.32" x2="1.61" y2="144.44"/><line class="cls-1" x1="158.72" y1="51.32" x2="158.72" y2="144.44"/><line class="cls-1" x1="133.94" x2="133.94" y2="66.75"/><line class="cls-1" x1="26.67" x2="26.67" y2="66.75"/><line class="cls-1" x1="27.72" y1="1.5" x2="133.21" y2="1.5"/><line class="cls-1" x1="59.77" y1="87.85" x2="100.58" y2="87.85"/><line class="cls-1" x1="1.97" y1="52.23" x2="60.83" y2="87.78"/><line class="cls-1" x1="0.86" y1="52.52" x2="26.16" y2="34.7"/><line class="cls-1" x1="159.09" y1="52.44" x2="134.62" y2="34.59"/><line class="cls-1" x1="97.7" y1="87.99" x2="158.72" y2="144.44"/><line class="cls-1" x1="62.6" y1="88.18" x2="2.24" y2="143.22"/><line class="cls-1" x1="157.63" y1="52.42" x2="99.55" y2="87.71"/><path class="cls-2" d="M119.06,101.85a1.93,1.93,0,0,0-2.14-3.21A30.91,30.91,0,1,1,100.1,42c17,.16,30.7,14.41,30.59,31.77V74c0,7.64-7,12-9.52,12h0a2.77,2.77,0,0,1-2.76-2.77l0-10.28h0l0-16.7a1.92,1.92,0,0,0-1.93-1.93h0a1.94,1.94,0,0,0-1.93,1.92v5.38a18.64,18.64,0,0,0-14.77-7.33h0a18.64,18.64,0,0,0,0,37.27h0a18.5,18.5,0,0,0,13.15-5.44,20.48,20.48,0,0,0,1.69-1.93,6.61,6.61,0,0,0,6.53,5.67h0c4.79,0,13.37-6.21,13.38-15.86V73.8c.12-19.47-15.32-35.46-34.42-35.65H99.8a34.76,34.76,0,1,0,19.26,63.7Zm-4.49-28.91A14.78,14.78,0,1,1,99.79,58.13h0a14.8,14.8,0,0,1,14.76,14.81Z" transform="translate(-19.74 -26.79)"/></g></svg>