<svg xmlns="http://www.w3.org/2000/svg" viewBox="0 0 164.65 107.7"><defs><style>.cls-1,.cls-2{fill:none;stroke-miterlimit:10;stroke-width:3px;}.cls-1{stroke:#f6a31d;}.cls-2{stroke:#832626;}</style></defs><title>partner</title><g id="Layer_174" data-name="Layer 174"><rect class="cls-1" x="26.02" y="52.09" width="19.88" height="57.16" transform="translate(2.09 -52.05) rotate(13.54)"/><rect class="cls-2" x="147.73" y="49.11" width="19.88" height="56.47" transform="translate(-35.34 43.32) rotate(-30)"/><line class="cls-1" x1="21.13" y1="64.91" x2="32.33" y2="73.94"/><path class="cls-1" d="M52.31,55.21s11.55-.84,16.24-2.4c0,0,8.4-.79,14.46,1.36L118.18,63s7,1,7.23,7.43c0,0-.4,6.45-6.26,7.62,0,0-19.53-3.91-22.46-5.47,0,0-1.76-1.37-2.54.58,0,0-5.28,10.75-9.58,11.53,0,0-8.2,4.88-21.29.59" transform="translate(-17.79 -45.87)"/><path class="cls-2" d="M71.09,96.76l-11.72,7S55.85,107.7,57,111c0,0,1.75,7.42,7.23,7a14.07,14.07,0,0,0,4.49-2l24.61-13.87" transform="translate(-17.79 -45.87)"/><path class="cls-2" d="M100.2,115.52l-30.47,17S63.28,137.4,59,134.27c0,0-4.88-3.51-3.71-7.81,0,0,1.3-5.67,9-8.4" transform="translate(-17.79 -45.87)"/><path class="cls-2" d="M107.82,129.19l-24,12.7s-3.91,3.52-8.2,1c0,0-4.89-2.15-4.3-7l1.17-4.69" transform="translate(-17.79 -45.87)"/><path class="cls-2" d="M161,105.75l-6.25,10.16s-7,8.79-10.74,10.74l-42.59,22.86s-6.84,4.89-11.14,1.17c0,0-4.89-3.51-2.35-10.15" transform="translate(-17.79 -45.87)"/></g></svg>