<svg xmlns="http://www.w3.org/2000/svg" viewBox="0 0 104.74 160.36"><defs><style>.cls-1,.cls-3{fill:none;stroke-width:3px;}.cls-1{stroke:#832626;stroke-miterlimit:10;}.cls-2{fill:#832626;}.cls-3{stroke:#f6a31d;stroke-linejoin:round;}</style></defs><title>mini_statement</title><g id="Mini_statement" data-name="Mini statement"><rect class="cls-1" x="1.5" y="1.5" width="80.34" height="10.89" rx="2.94"/><path class="cls-1" d="M59.31,34.25v82.21s0,11,7.6,11a9.18,9.18,0,0,0,5.4-1.1c2.17-1.28,4.17-3.92,4.17-9.32V71.42s1.13-8,8-8h58.42s7.89.7,7.89,9.71V177s.18,2-1.69.09-6-8.63-6-8.63-1.31-1.31-2.44-.19-5.26,8.82-5.26,8.82a2,2,0,0,1-3.38,0c-1.87-2.06-7.13-8.26-7.13-8.26a2.47,2.47,0,0,0-3.38,0c-1.59,1.6-7.69,8.26-7.69,8.26s-1.13,2.26-3,0-8.35-8.35-8.35-8.35a2,2,0,0,0-2.91,0c-1.45,1.46-7.88,8.35-7.88,8.35V71.42s-.07-5.71-2.82-6.69c0,0-2.32-1.34-3.73-1.27" transform="translate(-47.58 -20.55)"/><line class="cls-1" x1="43.12" y1="105.91" x2="24.68" y2="105.91"/><line class="cls-1" x1="70.86" y1="12.29" x2="70.86" y2="42.7"/><line class="cls-1" x1="57.91" y1="55.37" x2="89.16" y2="55.37"/><line class="cls-1" x1="57.91" y1="68.61" x2="89.16" y2="68.61"/><rect class="cls-2" x="60.44" y="79.77" width="5.26" height="5.26"/><rect class="cls-2" x="70.92" y="79.77" width="5.26" height="5.26"/><rect class="cls-2" x="81.98" y="79.77" width="5.26" height="5.26"/><polyline class="cls-3" points="71.58 114 63.17 113.98 77.68 131.39"/><line class="cls-3" x1="61.72" y1="105.28" x2="84.93" y2="105.28"/><line class="cls-3" x1="61.72" y1="96.57" x2="84.93" y2="96.57"/><path class="cls-3" d="M119.16,117.12a8.71,8.71,0,0,1,0,17.42" transform="translate(-47.58 -20.55)"/></g></svg>