<svg xmlns="http://www.w3.org/2000/svg" viewBox="0 0 161.98 159.65"><defs><style>.cls-1,.cls-2{fill:none;}.cls-1{stroke:#832626;stroke-miterlimit:10;stroke-width:3px;}.cls-2{stroke:#f5a31e;stroke-linejoin:round;stroke-width:2px;}</style></defs><title>more_earning</title><g id="Layer_282" data-name="Layer 282"><ellipse class="cls-1" cx="97.54" cy="15.39" rx="14.01" ry="13.89"/><polyline class="cls-2" points="96.85 16.05 93.52 16.04 99.26 22.93"/><line class="cls-2" x1="92.94" y1="12.6" x2="102.13" y2="12.6"/><line class="cls-2" x1="92.94" y1="9.15" x2="102.13" y2="9.15"/><path class="cls-2" d="M115.89,28.82a3.45,3.45,0,0,1,0,6.9" transform="translate(-19.05 -19.67)"/><ellipse class="cls-1" cx="33.18" cy="31.17" rx="13.45" ry="13.33"/><polyline class="cls-2" points="32.52 31.8 29.32 31.8 34.83 38.41"/><line class="cls-2" x1="28.77" y1="28.49" x2="37.59" y2="28.49"/><line class="cls-2" x1="28.77" y1="25.19" x2="37.59" y2="25.19"/><path class="cls-2" d="M51.56,44.86a3.31,3.31,0,0,1,0,6.61" transform="translate(-19.05 -19.67)"/><rect class="cls-1" x="17.63" y="90.21" width="16.89" height="67.94" rx="6.88"/><line class="cls-1" y1="102.33" x2="17.26" y2="102.33"/><line class="cls-1" y1="151.17" x2="17.26" y2="151.17"/><path class="cls-1" d="M53.93,166.34s39.11,7.16,62.24,4.41c0,0,16,.55,41.32-23.69,0,0,22.31-15.42,22-41.86,0,0-2.39-10.74-14.69,4.13,0,0-10.65,14.51-16.71,17.63,0,0-12.39,8.26-17.62,10.19,0,0-11.85,10.19-36.08,7.71" transform="translate(-19.05 -19.67)"/><path class="cls-1" d="M53.93,127.78s12.95-9.08,22.58-8.26c0,0,6.61.28,9.64,2.2,0,0,5,3.31,9.64,3,0,0,18.18.28,22.31-.27,0,0,17.63-.55,12.4,12.67" transform="translate(-19.05 -19.67)"/><path class="cls-1" d="M66.56,115.43a37.18,37.18,0,1,1,56,3.94" transform="translate(-19.05 -19.67)"/><polyline class="cls-2" points="75.02 72.28 64.34 72.26 82.75 94.34"/><line class="cls-2" x1="62.5" y1="61.21" x2="91.95" y2="61.21"/><line class="cls-2" x1="62.5" y1="50.16" x2="91.95" y2="50.16"/><path class="cls-2" d="M94.06,69.84a11.06,11.06,0,0,1,0,22.11" transform="translate(-19.05 -19.67)"/></g></svg>