<svg xmlns="http://www.w3.org/2000/svg" viewBox="0 0 159.24 133.9"><defs><style>.cls-1,.cls-3{fill:none;stroke-miterlimit:10;stroke-width:3px;}.cls-1{stroke:#832626;}.cls-2{fill:#832626;}.cls-3{stroke:#f6a31d;}</style></defs><title>net_banking</title><g id="Layer_250" data-name="Layer 250"><path class="cls-1" d="M30.7,34.74h136s10.38-.56,10.38,11.22v80.5s.28,11.5-10.38,11.5H32.67s-11.78,1.4-11.78-12.62V46.24S20.33,34.74,30.7,34.74Z" transform="translate(-19.38 -33.24)"/><line class="cls-1" x1="2.91" y1="87.33" x2="156.33" y2="87.33"/><circle class="cls-2" cx="138.38" cy="96.73" r="3.51"/><path class="cls-2" d="M133.64,130.66h16.41a1.25,1.25,0,0,0,0-2.5H133.64a1.25,1.25,0,0,0,0,2.5Z" transform="translate(-19.38 -33.24)"/><line class="cls-1" x1="69.94" y1="105.1" x2="69.94" y2="131.84"/><line class="cls-1" x1="89.58" y1="105.47" x2="89.58" y2="130.9"/><path class="cls-2" d="M70.81,167.14h56.1a1.88,1.88,0,0,0,0-3.75H70.81a1.88,1.88,0,0,0,0,3.75Z" transform="translate(-19.38 -33.24)"/><path class="cls-3" d="M99.72,108.46a37.69,37.69,0,0,1-.06-60.76m1.08,60.76a37.69,37.69,0,0,0,.06-60.76" transform="translate(-19.38 -33.24)"/><path class="cls-1" d="M100,47.19A30.81,30.81,0,1,1,69.19,78,30.8,30.8,0,0,1,100,47.19Zm0,0v61.6M69.2,78h61.6m-9-21.46c-4.71,4.25-12.71,7.05-21.8,7.05s-17-2.79-21.76-7m43.56,42.89c-4.71-4.25-12.71-7-21.8-7s-17,2.78-21.76,7" transform="translate(-19.38 -33.24)"/><path class="cls-3" d="M140.38,103.3l1.47-14.75s.35-1.68,2.18-.42l12.08,8.36s1.75,1.4,0,1.89l-3.8.7s-1.82.71-1.12,2.18l2.95,6.39s1,1.48-.14,2l-2.25,1s-1.05.42-1.82-1l-3.16-7a1.09,1.09,0,0,0-1.55-.35l-3.09,2.67S140.66,105.61,140.38,103.3Z" transform="translate(-19.38 -33.24)"/></g></svg>