<svg xmlns="http://www.w3.org/2000/svg" viewBox="0 0 161.75 85.79"><defs><style>.cls-1,.cls-2{fill:none;stroke-linecap:round;stroke-linejoin:round;stroke-width:3px;}.cls-1{stroke:#832626;}.cls-2{stroke:#f6a31d;}.cls-3{font-size:30px;fill:#832626;font-family:MyriadPro-Regular, Myriad Pro;}</style></defs><title>no_penalty</title><g id="Layer_269" data-name="Layer 269"><path class="cls-1" d="M20.63,141.39H179.37V58.61H20.63v82.78Zm28.91-3.64a24.92,24.92,0,0,0-24.92-24.92m125.84,24.92a24.92,24.92,0,0,1,24.92-24.92M49.54,62.25A24.92,24.92,0,0,1,24.62,87.17M150.46,62.25a24.92,24.92,0,0,0,24.92,24.92m-125.85,18A5.22,5.22,0,1,0,44.31,100a5.23,5.23,0,0,0,5.22,5.22Zm100.86,0a5.22,5.22,0,1,0-5.22-5.22,5.22,5.22,0,0,0,5.22,5.22Z" transform="translate(-19.13 -57.11)"/><path class="cls-2" d="M100.25,126.94c19.49,0,35.29-12.06,35.29-26.94s-15.8-26.94-35.29-26.94S65,85.12,65,100s15.8,26.94,35.29,26.94Z" transform="translate(-19.13 -57.11)"/><text class="cls-3" transform="translate(62.32 52.78) scale(1.01 1)">NIL</text></g></svg>