<svg xmlns="http://www.w3.org/2000/svg" viewBox="0 0 155.41 148.92"><defs><style>.cls-1{fill:#832626;}.cls-2,.cls-3,.cls-4,.cls-5,.cls-6{fill:none;stroke-width:3px;}.cls-2,.cls-4{stroke:#832826;}.cls-2{stroke-linecap:round;stroke-linejoin:round;}.cls-3,.cls-5{stroke:#f6a31d;}.cls-3,.cls-4{stroke-miterlimit:22.93;}.cls-5,.cls-6{stroke-miterlimit:10;}.cls-6{stroke:#832725;}.cls-7{fill:#832826;}.cls-8{fill:#f6a31d;}</style></defs><title>omnipresent_banking</title><g id="Layer_245" data-name="Layer 245"><path class="cls-1" d="M150.93,148.15h-6.22l.75-.72c2.43-2.36,5.46-5.29,5.59-8.11a3.84,3.84,0,0,0-3.46-4,5.79,5.79,0,0,0-4.41,1.16.58.58,0,1,0,.74.89,4.7,4.7,0,0,1,3.48-.91,2.66,2.66,0,0,1,2.49,2.76c-.11,2.37-3.07,5.24-5.24,7.33-.56.54-1.08,1-1.52,1.5a.72.72,0,0,0,.52,1.22h7.28a.58.58,0,0,0,0-1.16Z" transform="translate(-22.55 -23.34)"/><path class="cls-1" d="M160.72,143.93h-1.84v-7.88a.77.77,0,0,0-.54-.73.76.76,0,0,0-.85.28l-6,8.26a.77.77,0,0,0-.06.81.75.75,0,0,0,.68.42h5.58v3.64a.59.59,0,0,0,1.17,0v-3.64h1.84a.58.58,0,0,0,0-1.16Zm-3,0H152.9l4.81-6.67Z" transform="translate(-22.55 -23.34)"/><path class="cls-1" d="M163.25,148.73a.58.58,0,0,0,1.16,0v-4.92c.09-.4.75-2.77,3.06-2.77h0c2.44,0,2.85,1.41,2.94,2.46.1,1.25,0,5.18,0,5.22a.58.58,0,0,0,.57.59h0a.57.57,0,0,0,.58-.57c0-.17.06-4-.05-5.33-.24-2.9-2.35-3.52-4.08-3.53h0a3.91,3.91,0,0,0-3.06,1.42v-5.44a.58.58,0,0,0-1.16,0Z" transform="translate(-22.55 -23.34)"/><path class="cls-2" d="M108.67,130.4c5.31-.79,10.68-2.64,14.29-6.25a28.8,28.8,0,0,0,8-18.9V82.1c0-6.8-3.49-13.7-8-18.19s-11.38-8-18.19-8h-3.39c-6.8,0-13.7,3.5-18.19,8s-8,11.39-8,18.19v23.15" transform="translate(-22.55 -23.34)"/><path class="cls-3" d="M112.75,86.78a1.79,1.79,0,1,1-1.8,1.79,1.79,1.79,0,0,1,1.8-1.79Zm-19.34,0a1.79,1.79,0,1,1-1.79,1.79,1.79,1.79,0,0,1,1.79-1.79Z" transform="translate(-22.55 -23.34)"/><path class="cls-2" d="M74.4,105.61C68,105.12,62.91,99.4,62.91,92.43S68,79.73,74.4,79.23m57.28,26.38c6.43-.49,11.49-6.21,11.49-13.18s-5.06-12.7-11.49-13.2M92.35,103.77c1.1,3.9,5.47,6.82,10.69,6.82s9.59-2.92,10.69-6.82" transform="translate(-22.55 -23.34)"/><path class="cls-4" d="M103,124.85a5.61,5.61,0,1,1-5.61,5.61,5.61,5.61,0,0,1,5.61-5.61Z" transform="translate(-22.55 -23.34)"/><path class="cls-2" d="M74.72,79.91a28.08,28.08,0,0,0,19-14.11,28.05,28.05,0,0,0,33.93,4.91" transform="translate(-22.55 -23.34)"/><path class="cls-5" d="M146,154.68c-.68.57-1.36,1.12-2.06,1.66a68.43,68.43,0,0,1-42,14.42c-38.85,0-70.34-32.67-70.34-73" transform="translate(-22.55 -23.34)"/><path class="cls-6" d="M32.34,87.23C37.28,52,66.56,24.84,102,24.84c38.84,0,70.33,32.66,70.33,73,0,0,.85,16.75-6.75,32.24" transform="translate(-22.55 -23.34)"/><path class="cls-7" d="M167.43,127.5,175.9,123a1.32,1.32,0,0,1,2,.8,2.09,2.09,0,0,1-1,2.39c-.21.11-12.26,6.56-12.48,6.63a1.32,1.32,0,0,1-1,0,1.45,1.45,0,0,1-.84-1.15l-2.08-13.14a2.08,2.08,0,0,1,1.27-2.23,1.35,1.35,0,0,1,1.81,1.16l1.4,8.85" transform="translate(-22.55 -23.34)"/><path class="cls-8" d="M30.69,98l-5.46,7.9a1.33,1.33,0,0,1-2.12.19,2.11,2.11,0,0,1-.23-2.57c.14-.2,7.89-11.45,8.05-11.62a1.33,1.33,0,0,1,.86-.44,1.45,1.45,0,0,1,1.27.64l7.88,10.73a2.08,2.08,0,0,1-.1,2.56,1.34,1.34,0,0,1-2.14-.2l-5.31-7.22" transform="translate(-22.55 -23.34)"/></g></svg>