<svg xmlns="http://www.w3.org/2000/svg" viewBox="0 0 135.15 149.43"><defs><style>.cls-1{fill:#f4a21f;}.cls-2{fill:#832626;}</style></defs><title>discount</title><g id="OFFERS_DISCOUNTS" data-name="OFFERS &amp; DISCOUNTS"><path class="cls-1" d="M129.91,116.79c-6.29,0-11.4,5.7-11.4,12.7s5.11,12.69,11.4,12.69,11.4-5.7,11.4-12.69S136.19,116.79,129.91,116.79Zm0,21.63c-4.21,0-7.64-4-7.64-8.93s3.43-8.94,7.64-8.94,7.63,4,7.63,8.94S134.12,138.42,129.91,138.42Z" transform="translate(-32.56 -20.44)"/><path class="cls-1" d="M101.93,85c-6.28,0-11.39,5.69-11.39,12.69s5.11,12.69,11.39,12.69,11.4-5.69,11.4-12.69S108.22,85,101.93,85Zm0,21.62c-4.21,0-7.63-4-7.63-8.93s3.42-8.93,7.63-8.93,7.64,4,7.64,8.93S106.15,106.64,101.93,106.64Z" transform="translate(-32.56 -20.44)"/><path class="cls-1" d="M137.22,87.45,91.8,139.05a1.88,1.88,0,0,0,2.82,2.49l45.43-51.6A1.88,1.88,0,0,0,137.22,87.45Z" transform="translate(-32.56 -20.44)"/><path class="cls-2" d="M125,21a1.86,1.86,0,0,0-1.32-.55H103.59a1.86,1.86,0,0,0-1.32.55L86.2,37a103.06,103.06,0,0,0-13.1-.82c-19.65,0-40.54,5.54-40.54,15.81s20.89,15.8,40.54,15.8c13,0,26.43-2.4,34.12-7a11.49,11.49,0,0,0,6.43,2c6.93,0,12.57-6.29,12.57-14s-5.64-14-12.57-14-12.57,6.29-12.57,14a14.93,14.93,0,0,0,3.21,9.35C98,61.43,86.9,64,73.1,64c-21.67,0-36.78-6.35-36.78-12S51.43,39.91,73.1,39.91c3.3,0,6.54.16,9.68.46l-16.12,16a1.88,1.88,0,0,0,2.66,2.67L104.37,24.2h18.56l37.15,37A13,13,0,0,1,164,70.43v85.69a10,10,0,0,1-10.07,10H73.42a10,10,0,0,1-10.07-10V74.45a1.88,1.88,0,1,0-3.76,0v81.67a13.81,13.81,0,0,0,13.83,13.76h80.46a13.81,13.81,0,0,0,13.83-13.76V70.43a16.75,16.75,0,0,0-5-12Zm-11.38,17.5c4.86,0,8.81,4.6,8.81,10.25S118.51,59,113.65,59a7.7,7.7,0,0,1-3.12-.67A8.74,8.74,0,0,0,113.65,52c0-2.44-1.29-5.93-7.14-9.19A8.48,8.48,0,0,1,113.65,38.49Zm-8.54,7.81c3.09,1.8,4.77,3.78,4.77,5.66,0,1.35-.85,2.73-2.43,4.06a11.11,11.11,0,0,1-2.61-7.28A11.47,11.47,0,0,1,105.11,46.3Z" transform="translate(-32.56 -20.44)"/></g></svg>