<svg xmlns="http://www.w3.org/2000/svg" viewBox="0 0 127.7 159.83"><defs><style>.cls-1,.cls-2{fill:none;stroke-miterlimit:10;stroke-width:3px;}.cls-1{stroke:#832725;}.cls-2{stroke:#f8971d;}</style></defs><title>open_instantly_account</title><g id="Layer_269" data-name="Layer 269"><path class="cls-1" d="M52.24,34V178.42H152.66c9.66,0,9.09-11.56,9.09-11.56V41.25c0-11.37-10.23-9.47-10.23-9.47l-96.27-.19S52.24,31.4,52.24,34Z" transform="translate(-35.56 -20.08)"/><path class="cls-1" d="M146.85,22l-99.57-.22S44,20.6,44,24.58V54.7s0,.47-2.27,1.14c0,0-9.57,4.35-.29,9.47,0,0,14.59,5.59,19.14-5.49" transform="translate(-35.56 -20.08)"/><path class="cls-1" d="M43.67,70V81.28s0,.47-2.28,1.13c0,0-9.56,4.36-.28,9.48,0,0,14.59,5.58,19.13-5.5" transform="translate(-35.56 -20.08)"/><path class="cls-1" d="M43.67,96.17V107.5s0,.47-2.28,1.13c0,0-9.56,4.36-.28,9.48,0,0,14.59,5.59,19.13-5.5" transform="translate(-35.56 -20.08)"/><path class="cls-1" d="M43.67,122.32v11.32s0,.48-2.28,1.14c0,0-9.56,4.36-.28,9.47,0,0,14.59,5.59,19.13-5.49" transform="translate(-35.56 -20.08)"/><line class="cls-1" x1="8.4" y1="128.97" x2="8.4" y2="154.92"/><path class="cls-2" d="M112.56,51.12,80.79,106.57s-3.87,5.2.51,5.2h18s1.71-.72,1.51,2.65l-3.57,35s-1,6.32,3.06-.81l34.15-57.39s1.53-3-1.53-3H113.61s-2.24,1-2-2.24L114,51.32S113.85,48.57,112.56,51.12Z" transform="translate(-35.56 -20.08)"/></g></svg>