<svg id="Layer_1" data-name="Layer 1" xmlns="http://www.w3.org/2000/svg" viewBox="0 0 157.67 132.35"><defs><style>.cls-1{fill:#842726;stroke:#842727;}.cls-1,.cls-2{stroke-miterlimit:10;}.cls-2{fill:#f89a1c;stroke:#f89a1f;}</style></defs><title>partner</title><g id="Layer_7" data-name="Layer 7"><path class="cls-1" d="M40,134.09H26.26a1.17,1.17,0,1,0,0,2.33H40A1.17,1.17,0,1,0,40,134.09Zm67.78,0H94a1.17,1.17,0,1,0,0,2.33h13.74A1.17,1.17,0,1,0,107.78,134.09Zm66.78,0H160.82a1.17,1.17,0,1,0,0,2.33h13.74A1.17,1.17,0,1,0,174.56,134.09ZM110.87,66.93c.15.47.32.93.5,1.38.62,1.5-1.72,2.21-2.28.84-.2-.49-.39-1-.56-1.51C108,66.16,110.37,65.45,110.87,66.93ZM112,114.1v50.56a1.23,1.23,0,0,1-2.45,0V114.1A1.23,1.23,0,0,1,112,114.1Zm47.07,0v50.56a1.22,1.22,0,0,1-2.44,0V114.1A1.22,1.22,0,0,1,159,114.1Zm19.8,2v48.52a1.23,1.23,0,0,1-2.45,0V116.14c0-14.74-14.8-27.68-31.68-27.68H123.84c-16.74,0-31.68,13.05-31.68,27.68v48.52a1.23,1.23,0,0,1-2.45,0V116.14c0-7.59,3.52-14.55,9-19.85a34,34,0,0,0-21.59-7.83H56.28c-16.74,0-31.67,13.05-31.67,27.68v48.52a1.23,1.23,0,0,1-2.45,0V116.14c0-16.49,16.56-30,34.12-30H77.14a36.5,36.5,0,0,1,23.33,8.59,36.78,36.78,0,0,1,23.37-8.59H144.7C162.74,86.13,178.83,100.16,178.83,116.14Zm-134.43-2v50.56a1.23,1.23,0,0,1-2.45,0V114.1A1.23,1.23,0,0,1,44.4,114.1ZM43.24,66.93q.23.7.51,1.38c.61,1.5-1.73,2.21-2.28.84-.21-.49-.39-1-.56-1.51C40.41,66.16,42.75,65.45,43.24,66.93Z" transform="translate(-21.66 -33.98)"/><path class="cls-2" d="M107.51,62.83c-1.65-16.6,11.8-28.35,26.52-28.35s26.69,11.42,26.69,25.45-12,25.44-26.69,25.44a27.32,27.32,0,0,1-21.56-10.44c-1-1.21,1-2.61,2-1.39A24.83,24.83,0,0,0,134,83c13.37,0,24.24-10.37,24.24-23.11S147.4,36.82,134,36.82,108.18,47.75,110,62.57A1.23,1.23,0,0,1,107.51,62.83Z" transform="translate(-21.66 -33.98)"/><path class="cls-2" d="M39.61,62.83C38,46.23,51.41,34.48,66.13,34.48S92.82,45.9,92.82,59.93s-12,25.44-26.69,25.44A27.32,27.32,0,0,1,44.57,74.93c-1-1.21,1-2.61,2-1.39A24.85,24.85,0,0,0,66.13,83c13.36,0,24.24-10.37,24.24-23.11S79.49,36.82,66.13,36.82,40.28,47.75,42,62.57A1.22,1.22,0,0,1,39.61,62.83Z" transform="translate(-21.66 -33.98)"/></g></svg>