<svg xmlns="http://www.w3.org/2000/svg" viewBox="0 0 75.86 159.2"><defs><style>.cls-1,.cls-2,.cls-3,.cls-4{fill:none;stroke-miterlimit:10;}.cls-1,.cls-2{stroke:#832826;}.cls-1,.cls-3,.cls-4{stroke-width:2px;}.cls-2{stroke-width:3px;}.cls-3{stroke:#f4a31f;}.cls-4{stroke:#832626;}</style></defs><title>prepaid gift card</title><g id="Prepaid_Account" data-name="Prepaid Account"><path class="cls-1" d="M104.74,30.46s6.56-6.39,8-6.39a11.35,11.35,0,0,1,5.15,0s9.78,3.23,12.5,1.21c0,0,5-3.63,5.75-5.24" transform="translate(-62.9 -19.64)"/><polyline class="cls-1" points="47.76 24.64 45.78 34.32 25.33 30.13 29.71 8.73 50.16 12.92 49.27 17.26"/><path class="cls-1" d="M108.68,50.6,98.9,48.78s-1.21-7.46-5.85-7.66l.7-4.14s6.76,1.21,8.07-3.93l10.09,2.12" transform="translate(-62.9 -19.64)"/><path class="cls-1" d="M119.27,32.55s-1.62,4.63-5.45,4.23c0,0-7.56.2-7.87,3.83,0,0-.4,5.35,6.06,3l3.73-1.72a7.29,7.29,0,0,1,3.83-.1s4.74.1,8.17-2.11l10.49-6.66" transform="translate(-62.9 -19.64)"/><rect class="cls-2" x="1.5" y="40.26" width="71.26" height="117.44" rx="17.2"/><line class="cls-3" x1="25.37" y1="48.12" x2="48.46" y2="48.12"/><line class="cls-2" x1="1.43" y1="54.42" x2="71.98" y2="54.42"/><line class="cls-2" x1="1.86" y1="133.54" x2="72.19" y2="133.54"/><line class="cls-2" x1="27.08" y1="143.59" x2="14.26" y2="143.59"/><line class="cls-2" x1="59.37" y1="143.59" x2="46.54" y2="143.59"/><path class="cls-2" d="M105.74,164.51a5.71,5.71,0,1,1-5.7-5.7A5.7,5.7,0,0,1,105.74,164.51Z" transform="translate(-62.9 -19.64)"/><polyline class="cls-3" points="20.19 73.31 20.19 68.04 50.8 68.04 50.8 73.43"/><path class="cls-4" d="M118.11,126.5V128a5.38,5.38,0,0,1-5.38,5.39H83.09A5.39,5.39,0,0,1,77.7,128V98.33A5.38,5.38,0,0,1,83.09,93h29.64a5.38,5.38,0,0,1,5.38,5.38v16.78" transform="translate(-62.9 -19.64)"/><path class="cls-4" d="M112.08,93H118a5.38,5.38,0,0,1,5.38,5.38v16.78" transform="translate(-62.9 -19.64)"/><path class="cls-4" d="M123.38,126.5V128a5.38,5.38,0,0,1-5.38,5.39H88.35" transform="translate(-62.9 -19.64)"/><path class="cls-4" d="M123.38,115.48s2.94,0,2.94,2.69v6.13a2.75,2.75,0,0,1-2.82,2.2H106s-5.26-1-5.26-6c0,0,.36-5.14,5.38-5.14Z" transform="translate(-62.9 -19.64)"/><circle class="cls-3" cx="43.5" cy="101.35" r="2.29"/></g></svg>