<svg xmlns="http://www.w3.org/2000/svg" viewBox="0 0 160.36 116.73"><defs><style>.cls-1,.cls-2,.cls-4{fill:none;stroke-miterlimit:10;stroke-width:3px;}.cls-1{stroke:#832725;}.cls-2{stroke:#f6a31d;}.cls-3{fill:#842726;}.cls-4{stroke:#832626;}</style></defs><title>card_protected2</title><g id="purchase_protection" data-name="purchase protection"><path class="cls-1" d="M99,62.4h62.82s16.74-2.59,16.74,16.41v64.83S177.09,157,165,157H55.44s-14.86.13-14.86-16V124.13" transform="translate(-19.7 -41.81)"/><circle class="cls-2" cx="124.81" cy="49.26" r="17.27"/><path class="cls-3" d="M59.66,138.28a1.91,1.91,0,1,0,0,3.8H85.73a1.91,1.91,0,1,0,0-3.8Z" transform="translate(-19.7 -41.81)"/><path class="cls-3" d="M98.37,140.18a2,2,0,0,0,2.08,1.9h53.76a1.91,1.91,0,1,0,0-3.8H100.45A2,2,0,0,0,98.37,140.18Z" transform="translate(-19.7 -41.81)"/><path class="cls-3" d="M129.39,128.57a1.91,1.91,0,1,0,0,3.8h24.82a1.91,1.91,0,1,0,0-3.8Z" transform="translate(-19.7 -41.81)"/><path class="cls-1" d="M29,51s16.12,4.56,24.76.7c0,0,3.39-1.87,5.38-.11,0,0,8.88,2.92,15.07,1.28,0,0,7.36-1.52,8.65-1.87,0,0,2.22-.82,2.22,2.22,0,0,1.87,30.26-6.66,45.69,0,0-12.39,23.13-29.8,13.67,0,0-5.84-1.29-13.67-13.44a90.21,90.21,0,0,1-7.12-44.4S28.08,50.6,29,51Z" transform="translate(-19.7 -41.81)"/><path class="cls-1" d="M28.66,43.59s13.91,4,19.63,3a6.66,6.66,0,0,0,3.86-1.52s5.72-2.22,9.11.12c0,0,3.74,2,5.61,1.87,0,0,14.26-1.29,18.58-3.51l6.07,5s.94,16.12.24,20.21c0,0-.7,25.35-10.75,38.32,0,0-15.19,22.2-36.1,11.1,0,0-18.11-9.23-22.09-34,0,0-2.8-24.77-1.05-35.52C21.77,48.73,26.21,44.06,28.66,43.59Z" transform="translate(-19.7 -41.81)"/><path class="cls-4" d="M43.49,80.81,52.84,94s.56,1.28,1.92-1L76.2,59.54" transform="translate(-19.7 -41.81)"/></g></svg>