<svg xmlns="http://www.w3.org/2000/svg" viewBox="0 0 159.44 157.48"><defs><style>.cls-1,.cls-2{fill:none;stroke-miterlimit:10;stroke-width:3px;}.cls-1{stroke:#832626;}.cls-2{stroke:#f6a31d;}</style></defs><title>reward_points</title><g id="Layer_34" data-name="Layer 34"><path class="cls-1" d="M56.21,22.8h87.47s4.88,46.36-12.86,74.52c0,0-11.54,18.3-29,18,0,0-20.27.28-31-15.77,0,0-15.48-22-15.77-61.38C55.08,38.19,54.8,26.27,56.21,22.8Z" transform="translate(-20.28 -21.3)"/><path class="cls-1" d="M145.75,33.69h30.12s1.41.28,1.41,4.22c0,0,4.51,24.78-6.19,41.67,0,0-12.11,19.43-40.27,17.74" transform="translate(-20.28 -21.3)"/><path class="cls-1" d="M54.26,33.69H24.13s-1.4.28-1.4,4.22c0,0-4.51,24.78,6.19,41.67,0,0,12.11,19.43,40.26,17.74" transform="translate(-20.28 -21.3)"/><rect class="cls-1" x="43.25" y="134.02" width="73.21" height="21.96" rx="4.52"/><path class="cls-1" d="M88.31,112.8v23.09h23.81V114.21S96.76,117.59,88.31,112.8Z" transform="translate(-20.28 -21.3)"/><path class="cls-1" d="M75.08,154.48s2.25-16,13.23-18.59h23.81s12.23,5.63,12.23,18.87" transform="translate(-20.28 -21.3)"/><path class="cls-2" d="M95.35,56.63,99.43,44s1.06-1.26,1.48.78l3.8,12s.21.71,1.62.71l13.09-.21s1,.7-1.34,2L108,66.63s-.21-.07.21,1.05l4,12.6s-.42,1-2.46-.77l-9.65-7.25s-.42-.14-1.19.49l-9.72,7s-2,.71-.91-2.25l3.8-10.7s.28-.7-1.2-1.62L80.5,58s.21-.84,2-.63l10.84.14S95.28,57.34,95.35,56.63Z" transform="translate(-20.28 -21.3)"/></g></svg>