<svg xmlns="http://www.w3.org/2000/svg" viewBox="0 0 127 159.05"><defs><style>.cls-1,.cls-2{fill:none;stroke-miterlimit:10;stroke-width:3px;}.cls-1{stroke:#832626;}.cls-2{stroke:#f6a31d;}</style></defs><title>total_protect</title><g id="Total_Protect" data-name="Total Protect"><path class="cls-1" d="M97.56,23.22s2.27-3,4.55,0c0,0,25.8,22.58,52,23.34,0,0,9.49-1,9.49,7.78v60.14s0,6.26-3,9.29c0,0-39.08,45-52.36,51.8,0,0-6.07,5.88-14.42-.95,0,0-35.85-30-51.6-52.74,0,0-3.22-3.23-2.47-9.49V55.48S39.5,47.89,48,47.32c0,0,15.75-2.09,25.42-8.16C73.46,39.16,90.16,30.24,97.56,23.22Z" transform="translate(-38.08 -20.38)"/><path class="cls-1" d="M126.14,84.05a27.54,27.54,0,1,1-11.87-11.44" transform="translate(-38.08 -20.38)"/><path class="cls-2" d="M86.27,90.46l13.37,15.39s1.55,2.15,3.7,0l26.28-42.19" transform="translate(-38.08 -20.38)"/></g></svg>