<svg xmlns="http://www.w3.org/2000/svg" viewBox="0 0 159.8 154.36"><defs><style>.cls-1,.cls-2{fill:none;stroke-miterlimit:10;stroke-width:3px;}.cls-1{stroke:#832626;}.cls-2{stroke:#f6a31d;}</style></defs><title>safer_alternate_to_cash</title><g id="Layer_290" data-name="Layer 290"><path class="cls-1" d="M25.26,176.07v-6.83s21.45-11.05,40,.33l-.32,6.82" transform="translate(-19.42 -22.11)"/><path class="cls-1" d="M36.64,61.64,22.33,96.75s-4.22,11,2,34.78L31.44,164" transform="translate(-19.42 -22.11)"/><path class="cls-1" d="M56.79,164.37s7.07-17.46,12.89-27c0,0,3.53-7,4.1-12.88l.57-51.85s0-8.12-4.23-10.07c0,0-7.15-3.26-12,1.3a15.65,15.65,0,0,0-3.57,11.37l.67,35.44c-7.62,0-12.7-6.24-12.7-13.86V37.46A13.89,13.89,0,0,1,56.34,23.61H163.87a13.89,13.89,0,0,1,13.85,13.85V96.87a13.9,13.9,0,0,1-13.85,13.86H74.67" transform="translate(-19.42 -22.11)"/><line class="cls-2" x1="90.58" y1="38.21" x2="90.58" y2="26.71"/><rect class="cls-1" x="58.59" y="26.68" width="64.9" height="11.78" rx="3.71"/><line class="cls-2" x1="90.77" y1="38.57" x2="90.77" y2="73.44"/><path class="cls-1" d="M85.43,60.59v30s-.12,5.19,3.41,5.19h43.92s2.83.35,2.83-4V60.54Z" transform="translate(-19.42 -22.11)"/><path class="cls-1" d="M103.47,48.56s-7-7.31-4.38-10.61c0,0,3.59-3.31,11,4.91" transform="translate(-19.42 -22.11)"/><path class="cls-1" d="M108.23,48.5s4.52-16.8,15.12-16.68c0,0,4.89,1.28-1.08,10.34l-5,6.62" transform="translate(-19.42 -22.11)"/></g></svg>