<svg xmlns="http://www.w3.org/2000/svg" viewBox="0 0 160.65 160.25"><defs><style>.cls-1,.cls-2{fill:none;stroke-linecap:round;stroke-linejoin:round;stroke-width:3px;}.cls-1{stroke:#f6a31d;}.cls-2{stroke:#832826;}</style></defs><title>set_ypur_own_limits</title><g id="ATM_Limit" data-name="ATM Limit"><path class="cls-1" d="M126.37,101.54c0-10.88-11.76-19.71-26.28-19.71s-26.28,8.83-26.28,19.71,11.77,19.72,26.28,19.72,26.28-8.83,26.28-19.72Z" transform="translate(-19.77 -20.22)"/><path class="cls-1" d="M105.19,62.14a5.1,5.1,0,1,0-5.1,5.1,5.09,5.09,0,0,0,5.1-5.1Z" transform="translate(-19.77 -20.22)"/><path class="cls-2" d="M141.09,72h12.56a5,5,0,0,0,5-5V56.23a5,5,0,0,0-5-5H46.54a5.07,5.07,0,0,0-5,5v10.7a5.07,5.07,0,0,0,5,5H59.1" transform="translate(-19.77 -20.22)"/><path class="cls-2" d="M59.1,98.24H27.77a6.58,6.58,0,0,1-6.5-6.5V28.22a6.52,6.52,0,0,1,6.5-6.5H172.42a6.58,6.58,0,0,1,6.5,6.5V91.74a6.63,6.63,0,0,1-6.5,6.5H141.09" transform="translate(-19.77 -20.22)"/><polyline class="cls-1" points="39.94 45.76 39.94 158.75 120.7 158.75 120.7 45.76"/></g></svg>