<svg xmlns="http://www.w3.org/2000/svg" viewBox="0 0 112.25 157.02"><defs><style>.cls-1,.cls-2{fill:none;stroke-miterlimit:10;stroke-width:3px;}.cls-1{stroke:#832826;}.cls-2{stroke:#f6a31d;}.cls-3{fill:#832826;}</style></defs><title>simplified_documentation</title><g id="Layer_103" data-name="Layer 103"><circle class="cls-1" cx="22.05" cy="60.06" r="7.32"/><circle class="cls-2" cx="22.05" cy="92.19" r="7.32"/><circle class="cls-1" cx="22.05" cy="124.82" r="7.32"/><path class="cls-3" d="M82.43,82.58h55.46a1.88,1.88,0,0,0,0-3.75H82.43a1.88,1.88,0,0,0,0,3.75Z" transform="translate(-43.45 -21.21)"/><path class="cls-3" d="M82.43,115.24h55.46a1.88,1.88,0,0,0,0-3.75H82.43a1.88,1.88,0,0,0,0,3.75Z" transform="translate(-43.45 -21.21)"/><path class="cls-3" d="M82.43,147.65h39.95a1.88,1.88,0,0,0,0-3.75H82.43a1.88,1.88,0,0,0,0,3.75Z" transform="translate(-43.45 -21.21)"/><path class="cls-1" d="M45.23,34.25S45,22.71,54.52,22.71h58.57a10,10,0,0,1,6,2.95l32.24,31.11a8.45,8.45,0,0,1,2.81,6.62V176.72H56.77S45,177.19,45,167.43Z" transform="translate(-43.45 -21.21)"/><path class="cls-1" d="M115.71,23.93V48.52S114.78,59.4,123,59.4H152.5" transform="translate(-43.45 -21.21)"/></g></svg>