<svg xmlns="http://www.w3.org/2000/svg" viewBox="0 0 112.25 157.02"><defs><style>.cls-1{fill:#832826;}.cls-2{fill:none;stroke:#832826;stroke-miterlimit:10;stroke-width:3px;}</style></defs><title>single_script_lending</title><g id="documentation_copy" data-name="documentation copy"><path class="cls-1" d="M97.53,79.1v55.49a1.88,1.88,0,0,0,3.75,0V79.1a1.88,1.88,0,0,0-3.75,0Z" transform="translate(-43.45 -21.21)"/><path class="cls-1" d="M85.54,91.49l14.81-10.77c1.93-1.41.06-4.66-1.89-3.24L83.65,88.25c-1.93,1.41-.06,4.66,1.89,3.24Z" transform="translate(-43.45 -21.21)"/><path class="cls-1" d="M82.6,138.05h34.34a1.88,1.88,0,0,0,0-3.75H82.6a1.88,1.88,0,0,0,0,3.75Z" transform="translate(-43.45 -21.21)"/><path class="cls-2" d="M45.23,34.25S45,22.71,54.52,22.71h58.57a10,10,0,0,1,6,2.95l32.24,31.11a8.45,8.45,0,0,1,2.81,6.62V176.72H56.77S45,177.19,45,167.43Z" transform="translate(-43.45 -21.21)"/><path class="cls-2" d="M115.71,23.93V48.52S114.78,59.4,123,59.4H152.5" transform="translate(-43.45 -21.21)"/></g></svg>