<svg xmlns="http://www.w3.org/2000/svg" viewBox="0 0 128.74 157.67"><defs><style>.cls-1,.cls-2,.cls-3{fill:none;stroke-miterlimit:10;stroke-width:3px;}.cls-1{stroke:#832826;}.cls-2{stroke:#832626;}.cls-3{stroke:#f6a31d;}</style></defs><title>sms</title><g id="SMS"><path class="cls-1" d="M147.06,114.4v45.12a17.2,17.2,0,0,1-17.2,17.2H70.41a17.2,17.2,0,0,1-17.2-17.2V39.25a17.2,17.2,0,0,1,17.2-17.2h59.45a17.2,17.2,0,0,1,17.2,17.2V63.53" transform="translate(-51.71 -20.55)"/><line class="cls-1" x1="32.94" y1="14.26" x2="63.35" y2="14.26"/><line class="cls-1" x1="1.41" y1="24.96" x2="94.32" y2="24.96"/><line class="cls-1" x1="1.97" y1="124.35" x2="94.6" y2="124.35"/><line class="cls-1" x1="35.19" y1="137.59" x2="18.3" y2="137.59"/><line class="cls-1" x1="77.71" y1="137.59" x2="60.82" y2="137.59"/><circle class="cls-1" cx="100.13" cy="159.82" r="7.51" transform="translate(-133.62 89.97) rotate(-42.78)"/><polyline class="cls-2" points="85.66 92.5 70.74 105.17 70.95 91.41"/><path class="cls-2" d="M122.87,113.13h-4.35a4.91,4.91,0,0,1-4.9-4.9V70.16a4.91,4.91,0,0,1,4.9-4.89h55.53a4.9,4.9,0,0,1,4.89,4.89v38.07a4.91,4.91,0,0,1-4.89,4.9H136.71" transform="translate(-51.71 -20.55)"/><line class="cls-3" x1="71.3" y1="59.04" x2="117.66" y2="59.04"/><line class="cls-3" x1="71.3" y1="69.37" x2="117.66" y2="69.37"/><line class="cls-3" x1="71.3" y1="79.69" x2="117.66" y2="79.69"/></g></svg>