<svg xmlns="http://www.w3.org/2000/svg" viewBox="0 0 109.33 158.31"><defs><style>.cls-1,.cls-2{fill:none;stroke-miterlimit:10;stroke-width:3px;}.cls-1{stroke:#832626;}.cls-2{stroke:#f4a31f;}</style></defs><title>spend_more_win_more</title><g id="Layer_261" data-name="Layer 261"><polygon class="cls-1" points="22.49 26.57 1.72 133.25 70.35 156.69 89.27 146.69 107.59 149.13 92.12 32.68 84.05 34.42 77.05 35.94 22.49 26.57"/><line class="cls-1" x1="89.67" y1="146.32" x2="84.05" y2="34.42"/><line class="cls-1" x1="70.13" y1="156.1" x2="77.05" y2="35.94"/><path class="cls-1" d="M96.34,45.24V39.33s-.62-15.67,13.23-16.89c0,0,15.68-1.43,16.08,15.67V50.33" transform="translate(-45.34 -20.91)"/><path class="cls-2" d="M85.75,56.44V38.32A18.86,18.86,0,0,1,89,27.73c3.86-5.7,13-5.09,13-5.09,9.77,0,12.41,12.83,12.41,12.83V63.36" transform="translate(-45.34 -20.91)"/></g></svg>