<svg xmlns="http://www.w3.org/2000/svg" viewBox="0 0 157.86 159.98"><defs><style>.cls-1,.cls-2{fill:none;stroke-width:3px;}.cls-1,.cls-3{stroke:#832826;}.cls-1{stroke-linejoin:round;}.cls-2{stroke:#f6a31d;}.cls-2,.cls-3{stroke-miterlimit:10;}.cls-3{font-size:43.34px;fill:#832826;stroke-width:0.75px;font-family:MyriadPro-Regular, Myriad Pro;letter-spacing:-0.07em;}.cls-4{letter-spacing:-0.01em;}.cls-5{letter-spacing:0em;}</style></defs><title>tax_retirement</title><g id="Layer_331" data-name="Layer 331"><path class="cls-1" d="M44.64,81.86V22.09H154.43v128s-.06,9.73,13,9.73c0,0,7.61,0,9.23-10.23V121H161.92" transform="translate(-20.28 -20.59)"/><polyline class="cls-1" points="132.49 139.8 47.75 139.8 49.32 139.8"/><line class="cls-2" x1="46.18" y1="86.15" x2="107.6" y2="86.15"/><line class="cls-2" x1="46.18" y1="100.06" x2="107.6" y2="100.06"/><line class="cls-2" x1="46.18" y1="113.35" x2="107.6" y2="113.35"/><text class="cls-3" transform="translate(46.15 51.61)">T<tspan class="cls-4" x="18.29" y="0">A</tspan><tspan class="cls-5" x="44.21" y="0">X</tspan></text><circle class="cls-1" cx="21.02" cy="76.23" r="8.23"/><path class="cls-1" d="M32.53,110.73s-10.92,4.65-10.74,30.79v9.67a1.9,1.9,0,0,0,1.47.49h3.42s.75.4.75,2V175s0,4,2.68,4h3s2.69-.4,2.69-4V152.9s-.27-1.22,1.21-1.22l3.55-.13s.61.26.61-1.62l-1.21-21.08s.14-1.74,2.28-.8l15.71,4.16s8.06.54,3-5.77L45.55,120.8a11.41,11.41,0,0,1-3.62-5.1s-1.35-6.18-4.43-6.18A12.7,12.7,0,0,0,32.53,110.73Z" transform="translate(-20.28 -20.59)"/><line class="cls-1" x1="39.63" y1="116.18" x2="39.77" y2="156.33"/></g></svg>