<svg xmlns="http://www.w3.org/2000/svg" viewBox="0 0 153.73 149.25"><defs><style>.cls-1{fill:#832626;}.cls-2,.cls-3{fill:none;stroke-miterlimit:10;stroke-width:3px;}.cls-2{stroke:#f6a31d;}.cls-3{stroke:#832626;}</style></defs><title>Thiird_party_securities</title><g id="Customers_copy" data-name="Customers copy"><rect class="cls-1" x="42.71" y="95.22" width="2.64" height="2.64" rx="1.08" transform="translate(-58.43 1.83) rotate(-20.76)"/><path class="cls-2" d="M43,92.71a20.81,20.81,0,1,1,3.09,7.91" transform="translate(-27.06 -20.05)"/><path class="cls-3" d="M90.66,119.4s-5.12-5.88-16.13-7.08H53.89s-10.48,1.28-16.73,7.38c0,0-8.29,5.88-8.44,18.84l-.16,30.75" transform="translate(-27.06 -20.05)"/><path class="cls-3" d="M37.49,119.4s5.12-5.88,16.12-7.08H74.26S84.74,113.6,91,119.7c0,0,8.29,5.88,8.44,18.84l.15,30.75" transform="translate(-27.06 -20.05)"/><line class="cls-3" x1="17.78" y1="114.12" x2="17.78" y2="149.24"/><line class="cls-3" x1="2.86" y1="133.27" x2="16.87" y2="133.27"/><rect class="cls-1" x="122.33" y="95.22" width="2.64" height="2.64" rx="1.08" transform="translate(-53.26 30.06) rotate(-20.76)"/><path class="cls-3" d="M122.64,92.71a20.81,20.81,0,1,1,3.09,7.91" transform="translate(-27.06 -20.05)"/><path class="cls-2" d="M170.28,119.4s-5.12-5.88-16.12-7.08H133.51S123,113.6,116.78,119.7c0,0-8.29,5.88-8.44,18.84l-.15,30.75" transform="translate(-27.06 -20.05)"/><path class="cls-2" d="M117.2,119.4s5.12-5.88,16.12-7.08H154s10.48,1.28,16.73,7.38c0,0,8.29,5.88,8.44,18.84l.15,30.75" transform="translate(-27.06 -20.05)"/><line class="cls-3" x1="97.4" y1="114.12" x2="97.4" y2="149.24"/><line class="cls-3" x1="83.48" y1="133.27" x2="97.5" y2="133.27"/><rect class="cls-1" x="84.08" y="48.23" width="3.06" height="3.06" rx="0.95" transform="translate(-39.14 13.53) rotate(-20.76)"/><path class="cls-3" d="M91.18,94.77" transform="translate(-27.06 -20.05)"/><path class="cls-3" d="M91.18,69.49" transform="translate(-27.06 -20.05)"/><path class="cls-3" d="M84.2,45.72a20.74,20.74,0,1,1,3.08,7.88" transform="translate(-27.06 -20.05)"/><path class="cls-3" d="M130.67,72.17s-5-5.77-15.82-7H94.59s-10.27,1.26-16.41,7.25" transform="translate(-27.06 -20.05)"/><path class="cls-3" d="M78.51,72.17s5-5.77,15.82-7h20.25s10.28,1.26,16.41,7.25" transform="translate(-27.06 -20.05)"/></g></svg>