<svg xmlns="http://www.w3.org/2000/svg" viewBox="0 0 130.08 159.49"><defs><style>.cls-1{fill:#f6a31d;}.cls-2,.cls-3{fill:none;stroke-miterlimit:10;stroke-width:3px;}.cls-2{stroke:#832626;}.cls-3{stroke:#832826;}.cls-4{fill:#832725;}</style></defs><title>transparency</title><g id="Personal_Details_copy" data-name="Personal Details copy"><path class="cls-1" d="M152.89,125.28c-.32,9.3-7.53,17.09-17.08,17.09a17.08,17.08,0,0,1-.68-34.15c9.8-.41,17.43,7.52,17.76,17.06.09,2.41,3.84,2.42,3.75,0-.39-11.33-9.19-20.84-20.83-20.84a20.84,20.84,0,0,0,0,41.68c11.64,0,20.43-9.47,20.83-20.84C156.73,122.87,153,122.87,152.89,125.28Z" transform="translate(-35.14 -20.23)"/><path class="cls-1" d="M148.3,140.09,162,154.5c1.66,1.75,4.31-.9,2.65-2.65L151,137.44c-1.67-1.75-4.32.91-2.66,2.65Z" transform="translate(-35.14 -20.23)"/><path class="cls-2" d="M125.18,120.2s1.91-4.72,5.62-5.06" transform="translate(-35.14 -20.23)"/><path class="cls-3" d="M151.38,158.9v15.2a4.12,4.12,0,0,1-4.12,4.12H40.76a4.12,4.12,0,0,1-4.12-4.12V25.86a4.12,4.12,0,0,1,4.12-4.13h106.5a4.12,4.12,0,0,1,4.12,4.13V99.72" transform="translate(-35.14 -20.23)"/><rect class="cls-4" x="19.9" y="39.96" width="80.79" height="3.53" rx="1.64"/><rect class="cls-4" x="19.9" y="58.54" width="80.79" height="3.53" rx="1.64"/><rect class="cls-4" x="19.9" y="78.07" width="57.12" height="3.53" rx="1.64"/><rect class="cls-4" x="19.9" y="99.88" width="50.66" height="3.53" rx="1.64"/><rect class="cls-4" x="19.9" y="119.07" width="57.12" height="3.53" rx="1.64"/></g></svg>