<svg xmlns="http://www.w3.org/2000/svg" viewBox="0 0 134.44 149.04"><defs><style>.cls-1,.cls-3{fill:none;stroke-miterlimit:10;stroke-width:3px;}.cls-1{stroke:#832626;}.cls-2{fill:#832626;}.cls-3{stroke:#f6a31d;}</style></defs><title>welcome_benefits</title><g id="OFFERS_DISCOUNTS" data-name="OFFERS &amp; DISCOUNTS"><path class="cls-1" d="M60.9,77.41v81.66c0,13.33,13.89,13.71,13.89,13.71h78.47c13.13,0,12.2-13.89,12.2-13.89V77.05c0-10.14-6.57-14.46-6.57-14.46l-34-34c-2.06-2.07-3.75-1.88-3.75-1.88H105.77a4.57,4.57,0,0,0-3.57,1.5L66.91,63.53" transform="translate(-32.53 -25.23)"/><ellipse class="cls-1" cx="80.93" cy="28.25" rx="10.7" ry="12.11"/><path class="cls-1" d="M105.2,49.08s12,6.38,3.19,13.14c0,0-12.39,9.38-36.22,8.63,0,0-22,0-34.35-8.07,0,0-8.64-6,.18-12.58,0,0,16-10.69,46.37-6.75l2.06.18" transform="translate(-32.53 -25.23)"/><path class="cls-2" d="M138.41,90.92,90.74,145c-1.59,1.81,1.05,4.47,2.65,2.66l47.68-54.06c1.59-1.81-1.06-4.47-2.66-2.66Z" transform="translate(-32.53 -25.23)"/><ellipse class="cls-3" cx="69.38" cy="77.53" rx="9.48" ry="10.89"/><ellipse class="cls-3" cx="97.13" cy="109.02" rx="9.48" ry="10.89"/></g></svg>