<svg xmlns="http://www.w3.org/2000/svg" viewBox="0 0 158.39 159.15"><defs><style>.cls-1{fill:#465b65;fill-rule:evenodd;}</style></defs><title>whats_app</title><g id="wats_app" data-name="wats app"><g id="WA_Logo" data-name="WA Logo"><path class="cls-1" d="M156.12,43.55A78.89,78.89,0,0,0,32,138.71L20.81,179.57l41.8-11a78.9,78.9,0,0,0,37.69,9.6h0A78.91,78.91,0,0,0,156.12,43.55ZM100.33,164.89h0a65.54,65.54,0,0,1-33.36-9.14l-2.39-1.42-24.81,6.51,6.62-24.19-1.56-2.48a65.55,65.55,0,1,1,55.53,30.72Zm36-49.09c-2-1-11.66-5.76-13.47-6.41s-3.12-1-4.43,1-5.09,6.41-6.24,7.73-2.3,1.48-4.27.49A54,54,0,0,1,92,108.81a59.27,59.27,0,0,1-11-13.65c-1.15-2-.12-3,.86-4s2-2.3,3-3.45a13.49,13.49,0,0,0,2-3.29A3.62,3.62,0,0,0,86.7,81c-.5-1-4.44-10.69-6.08-14.63S77.4,63,76.19,62.93s-2.47-.07-3.78-.07a7.24,7.24,0,0,0-5.25,2.47,22.08,22.08,0,0,0-6.9,16.44c0,9.7,7.06,19.07,8.05,20.38S82.2,123.37,102,131.91a113.81,113.81,0,0,0,11.23,4.15,27,27,0,0,0,12.41.78c3.79-.57,11.66-4.77,13.3-9.37s1.64-8.55,1.15-9.37S138.26,116.78,136.29,115.8Z" transform="translate(-20.81 -20.43)"/></g></g></svg>