<?xml version="1.0" encoding="utf-8"?>
<!-- Generator: Adobe Illustrator 22.1.0, SVG Export Plug-In . SVG Version: 6.00 Build 0)  -->
<svg version="1.1" id="Layer_1" xmlns="http://www.w3.org/2000/svg" xmlns:xlink="http://www.w3.org/1999/xlink" x="0px" y="0px"
	 viewBox="0 0 261 261" style="enable-background:new 0 0 261 261;" xml:space="preserve">
<style type="text/css">
	.st0{fill:#FFFFFF;}
</style>
<g>
	<g>
		<path class="st0" d="M123.5,163.6c1.7,1.7,5.2,1.7,7,1.7s5.2,0,3.5-1.7l52.2-52.2c3.5-3.5,3.5-8.7,0-12.2s-8.7-3.5-12.2,0
			L139.2,134V8.7c0-5.2-3.5-8.7-8.7-8.7c-5.2,0-8.7,3.5-8.7,8.7v128.8L83.5,99.2c-3.5-3.5-8.7-3.5-12.2,0s-3.5,8.7,0,12.2
			L123.5,163.6L123.5,163.6z"/>
		<path class="st0" d="M252.3,174c-5.2,0-8.7,3.5-8.7,8.7v34.8c0,13.9-12.2,26.1-26.1,26.1h-174c-13.9,0-26.1-12.2-26.1-26.1v-34.8
			c0-5.2-3.5-8.7-8.7-8.7S0,177.5,0,182.7v34.8C0,241.9,19.1,261,43.5,261h174c24.4,0,43.5-19.1,43.5-43.5v-34.8
			C261,177.5,257.5,174,252.3,174L252.3,174z"/>
	</g>
</g>
</svg>
