<svg xmlns="http://www.w3.org/2000/svg" viewBox="0 0 122.43 102.93"><defs><style>.cls-1{fill:#832626;}.cls-2{fill:#f2a221;}</style></defs><title>secure_online_purchase</title><g id="Layer_8" data-name="Layer 8"><path class="cls-1" d="M152.52,48.53h-105a8.71,8.71,0,0,0-8.7,8.7v64.4a8.71,8.71,0,0,0,8.7,8.7H91.4v18.31H79.75a1.42,1.42,0,1,0,0,2.83h40.5a1.42,1.42,0,1,0,0-2.83H109.18V130.33h43.34a8.71,8.71,0,0,0,8.7-8.7V57.23A8.72,8.72,0,0,0,152.52,48.53Zm-105,2.83h105a5.87,5.87,0,0,1,5.87,5.87v57.1H41.61V57.23A5.87,5.87,0,0,1,47.48,51.36Zm58.87,97.28H94.22V130.33h12.13Zm46.17-21.13h-105a5.88,5.88,0,0,1-5.87-5.88v-4.47H158.39v4.47A5.88,5.88,0,0,1,152.52,127.51Z" transform="translate(-38.78 -48.53)"/><path class="cls-1" d="M145.05,120.3a2.73,2.73,0,1,0,2.72,2.73A2.73,2.73,0,0,0,145.05,120.3Z" transform="translate(-38.78 -48.53)"/><path class="cls-1" d="M137.86,121.26H128a1.42,1.42,0,0,0,0,2.83h9.87a1.42,1.42,0,0,0,0-2.83Z" transform="translate(-38.78 -48.53)"/><path class="cls-2" d="M82.77,90.59c1.62,2.32,12.56,14.8,16.49,14.8,4.22,0,14.43-12.24,16.43-14.69a4,4,0,0,0,1.14-2.6V71.92a3.7,3.7,0,0,0-3.57-3.66,21,21,0,0,1-12.92-5.77,2.27,2.27,0,0,0-3.11,0c-1.38,1.26-6.32,5.43-12.22,6.1a3.7,3.7,0,0,0-3.32,3.64V88.08A4.07,4.07,0,0,0,82.77,90.59ZM84.23,72.2s.07-.11.19-.12c6-.68,12-5.33,14.33-7.25,2.29,2,8.48,6.66,15.35,7,.11,0,.19.08.19.12V88c-.07.11-.23.31-.34.45-4.83,5.91-12.81,14-14.65,14.38C97.1,102.2,87.11,92,84.68,88.56c-.08-.11-.4-.53-.45-.61Z" transform="translate(-38.78 -48.53)"/></g></svg>