<svg xmlns="http://www.w3.org/2000/svg" viewBox="0 0 160.72 159.88"><defs><style>.cls-1,.cls-2{fill:none;stroke-linejoin:round;}.cls-1{stroke:#832826;stroke-linecap:round;stroke-width:3px;}.cls-2{stroke:#f6a31d;stroke-width:4px;}</style></defs><title>faster_loan</title><g id="faster_loan" data-name="faster loan"><line class="cls-1" x1="93.26" y1="36.69" x2="101.51" y2="14.6"/><line class="cls-1" x1="85.43" y1="36.43" x2="83.83" y2="24.39"/><path class="cls-1" d="M122.71,55.73l.33-.24c2.42-5.09,10-14.47,12.25-22,7.22-24.65-32-2.16-54.58-7.29-2.19-.5,10.3,15.59,15.63,29.56" transform="translate(-19.55 -20.17)"/><path class="cls-1" d="M49.64,110.71c3.66-10.82,8.72-20.63,13.74-27.32C73.73,69.61,86.44,58.16,95.89,58.16h28.34c9.45,0,22.89,12.16,34,26.65,16,20.93,34.68,72.2,4.47,89.05-10.65,5.94-27.26,4.56-51.16,4.56-25.46,0-42.07,1.19-52.33-5.2-8.55-5.33-12.92-21.15-14.39-31.16" transform="translate(-19.55 -20.17)"/><polyline class="cls-2" points="86.87 101.41 69.58 101.38 99.4 137.17"/><line class="cls-2" x1="66.6" y1="83.49" x2="114.31" y2="83.49"/><line class="cls-2" x1="66.6" y1="65.59" x2="114.31" y2="65.59"/><path class="cls-2" d="M106.42,85.77a17.91,17.91,0,1,1,0,35.81" transform="translate(-19.55 -20.17)"/><line class="cls-1" x1="1.5" y1="105.24" x2="35.66" y2="105.24"/><line class="cls-1" x1="9.45" y1="119.83" x2="33.59" y2="119.83"/><line class="cls-1" x1="23.25" y1="91.54" x2="32.59" y2="91.54"/><line class="cls-1" x1="9.78" y1="91.54" x2="18.52" y2="91.54"/></g></svg>