<?xml version="1.0" encoding="utf-8"?>
<!-- Generator: Adobe Illustrator 23.0.2, SVG Export Plug-In . SVG Version: 6.00 Build 0)  -->
<svg version="1.1" id="Layer_1" xmlns="http://www.w3.org/2000/svg" xmlns:xlink="http://www.w3.org/1999/xlink" x="0px" y="0px"
	 viewBox="0 0 108.4 40.9" style="enable-background:new 0 0 108.4 40.9;" xml:space="preserve">
<style type="text/css">
	.st0{fill:none;stroke:#832626;stroke-width:0.75;stroke-linecap:round;stroke-linejoin:round;}
	.st1{fill:none;stroke:#F6A31D;stroke-width:0.75;stroke-linecap:round;stroke-linejoin:round;}
	.st2{fill:none;stroke:#832626;stroke-width:0.75;stroke-linejoin:round;}
</style>
<title>speedy_disbursel</title>
<g id="speedy_disbursement">
	<path class="st0" d="M32.1,40.1h75.6V0.8H32.1C32.1,0.8,32.1,40.2,32.1,40.1z M45.8,38.4c0-6.6-5.3-11.9-11.9-11.9l0,0 M93.9,38.4
		c0-6.6,5.3-11.9,11.9-11.9l0,0 M45.8,2.4c0,6.5-5.3,11.9-11.8,11.9 M93.9,2.4c0,6.6,5.3,11.9,11.9,11.9l0,0 M50.6,22.9
		c1.4,0,2.5-1.1,2.5-2.5c0-1.4-1.1-2.5-2.5-2.5c-1.4,0-2.5,1.1-2.5,2.5c0,0,0,0,0,0C48.1,21.8,49.3,22.9,50.6,22.9L50.6,22.9z
		 M89.1,22.9c1.4,0,2.5-1.1,2.5-2.5s-1.1-2.5-2.5-2.5c-1.4,0-2.5,1.1-2.5,2.5C86.6,21.8,87.7,22.9,89.1,22.9z"/>
	<path class="st1" d="M70,32.6c5.3,0,9.6-5.7,9.6-12.8S75.3,7,70,7s-9.6,5.7-9.6,12.8S64.7,32.6,70,32.6z"/>
	<polyline class="st2" points="69,21 66.1,21 71.1,26.9 	"/>
	<line class="st2" x1="65.6" y1="18" x2="73.5" y2="18"/>
	<line class="st2" x1="65.6" y1="15" x2="73.5" y2="15"/>
	<path class="st2" d="M69,15c1.6-0.2,3.2,0.9,3.4,2.5c0.2,1.6-0.9,3.2-2.5,3.4c-0.3,0-0.6,0-0.8,0"/>
	<line class="st2" x1="0" y1="1" x2="27.2" y2="1"/>
	<line class="st2" x1="5.3" y1="9.2" x2="27" y2="9.2"/>
	<line class="st2" x1="10.6" y1="17.1" x2="27.4" y2="17.1"/>
</g>
</svg>
