<svg xmlns="http://www.w3.org/2000/svg" viewBox="0 0 148.55 158.87"><defs><style>.cls-1,.cls-2,.cls-3{fill:none;stroke-linecap:round;stroke-linejoin:round;stroke-width:3px;}.cls-1{stroke:#f6a31d;}.cls-2{stroke:#832826;}.cls-3{stroke:#842726;}</style></defs><title>currency_conversion</title><g id="Cross_Currency_Mark_Up" data-name="Cross Currency Mark Up"><path class="cls-1" d="M114.3,31.69a69.26,69.26,0,0,1,12.4,3.44A68.47,68.47,0,0,1,138,40.66a69.43,69.43,0,0,1,10,7.39A69.7,69.7,0,0,1,168.21,79a68.66,68.66,0,0,1,2.73,12.45" transform="translate(-25.72 -20.56)"/><path class="cls-1" d="M85.74,168.3A69.43,69.43,0,0,1,29.1,108.56" transform="translate(-25.72 -20.56)"/><polyline class="cls-1" points="52.3 131.94 62.67 147 47.61 157.37"/><polyline class="cls-1" points="96.34 26.93 85.97 11.87 101.03 1.5"/><path class="cls-2" d="M66.47,26.87A39.25,39.25,0,1,1,27.22,66.12,39.25,39.25,0,0,1,66.47,26.87Z" transform="translate(-25.72 -20.56)"/><line class="cls-3" x1="19.31" y1="38.95" x2="49.56" y2="38.95"/><line class="cls-3" x1="17.15" y1="52.3" x2="47.41" y2="52.3"/><path class="cls-2" d="M82.21,81a17.35,17.35,0,0,1-5.46,4.51,14.35,14.35,0,0,1-13.38,0A17.4,17.4,0,0,1,57.91,81a21.84,21.84,0,0,1-3.68-6.7,25.58,25.58,0,0,1,0-16.4,21.41,21.41,0,0,1,3.68-6.7,17.4,17.4,0,0,1,5.46-4.52,14.39,14.39,0,0,1,13.38,0,17.4,17.4,0,0,1,5.46,4.52" transform="translate(-25.72 -20.56)"/><line class="cls-3" x1="107.85" y1="86.55" x2="107.85" y2="94.97"/><line class="cls-3" x1="107.85" y1="131.68" x2="107.85" y2="140.09"/><path class="cls-2" d="M133.57,94.68a39.21,39.21,0,1,1-39.2,39.21,39.22,39.22,0,0,1,39.2-39.21Z" transform="translate(-25.72 -20.56)"/><path class="cls-2" d="M145.77,119.92A54.58,54.58,0,0,0,134.89,117C116,114.9,113.56,134,133.68,133.89c19.56-.06,17.72,19-1.23,16.86a55.3,55.3,0,0,1-10.86-2.9" transform="translate(-25.72 -20.56)"/></g></svg>