<svg xmlns="http://www.w3.org/2000/svg" viewBox="0 0 160.93 118.75"><defs><style>.cls-1,.cls-2{fill:none;stroke-miterlimit:10;stroke-width:3px;}.cls-1{stroke:#842726;}.cls-2{stroke:#f6a41c;}</style></defs><title>NFC_enabled</title><g id="NFC_Enabled" data-name="NFC Enabled"><path class="cls-1" d="M77,62.46H31.15A10.05,10.05,0,0,0,21,72.29V148a10.12,10.12,0,0,0,10.12,9.91H169.34A9.7,9.7,0,0,0,179,148V72.29a9.64,9.64,0,0,0-9.63-9.83H123" transform="translate(-19.53 -40.62)"/><line class="cls-1" x1="1.5" y1="77.77" x2="159.43" y2="77.77"/><line class="cls-1" x1="1.5" y1="97.51" x2="159.43" y2="97.51"/><path class="cls-2" d="M121.62,62.65a30.15,30.15,0,0,0-42.63,0" transform="translate(-19.53 -40.62)"/><path class="cls-2" d="M111.06,69.49a15.21,15.21,0,0,0-21.51,0" transform="translate(-19.53 -40.62)"/><path class="cls-2" d="M130.44,54.45a42.08,42.08,0,0,0-59.52,0" transform="translate(-19.53 -40.62)"/></g></svg>