<svg xmlns="http://www.w3.org/2000/svg" viewBox="0 0 160.26 157.97"><defs><style>.cls-1,.cls-2,.cls-3{fill:none;stroke-width:3px;}.cls-1{stroke:#f6a31d;}.cls-1,.cls-3{stroke-miterlimit:10;}.cls-2,.cls-3{stroke:#832626;}</style></defs><title>bonus</title><g id="Layer_44" data-name="Layer 44"><line class="cls-1" x1="67.36" y1="71.54" x2="67.36" y2="42.67"/><line class="cls-1" x1="93.01" y1="70.54" x2="93.01" y2="42.67"/><rect class="cls-2" x="1.5" y="42.6" width="157.26" height="28.54" rx="3.71"/><line class="cls-1" x1="90.69" y1="71.42" x2="90.69" y2="155.9"/><line class="cls-1" x1="69.11" y1="71.42" x2="69.11" y2="155.9"/><path class="cls-3" d="M38.82,93.53v72.69s-.28,12.56,8.28,12.56H153.52s6.85.85,6.85-9.7V93.41Z" transform="translate(-19.34 -22.33)"/><path class="cls-3" d="M82.54,64.38S65.65,46.66,71.93,38.67c0,0,8.71-8,26.73,11.91" transform="translate(-19.34 -22.33)"/><path class="cls-3" d="M94.08,64.24s11-40.69,36.64-40.41c0,0,11.84,3.1-2.62,25.06l-12.22,16" transform="translate(-19.34 -22.33)"/><path class="cls-3" d="M104.18,62.93c-.82,2.94,5.67-17.68,16-21.12" transform="translate(-19.34 -22.33)"/></g></svg>