<svg xmlns="http://www.w3.org/2000/svg" viewBox="0 0 126.18 159.47"><defs><style>.cls-1,.cls-2{fill:none;stroke-width:3px;}.cls-1{stroke:#832626;stroke-miterlimit:10;}.cls-2{stroke:#f6a31d;stroke-linejoin:round;}</style></defs><title>minimum_investment</title><g id="Layer_317" data-name="Layer 317"><path class="cls-1" d="M161.59,138.52a6,6,0,0,1-.62,2.64c-2.83,6-15.07,10.46-29.74,10.46-16.77,0-30.37-5.87-30.37-13.1s13.6-13.1,30.37-13.1S161.59,131.29,161.59,138.52Z" transform="translate(-36.91 -21.28)"/><path class="cls-1" d="M160.8,141.56V166.5s.59,3.38-6.55,7.94c0,0-24.21,9.72-45,0a12.81,12.81,0,0,1-8.34-11.11V137.72" transform="translate(-36.91 -21.28)"/><path class="cls-1" d="M101.19,156.45s29.64,21.36,58.81-1.06" transform="translate(-36.91 -21.28)"/><path class="cls-1" d="M99.14,110a6,6,0,0,1-.62,2.64c-2.83,6-15.07,10.46-29.75,10.46-16.77,0-30.36-5.86-30.36-13.1S52,96.87,68.77,96.87,99.14,102.74,99.14,110Z" transform="translate(-36.91 -21.28)"/><path class="cls-1" d="M38.74,129s30.69,22.42,59.87,0" transform="translate(-36.91 -21.28)"/><path class="cls-1" d="M38.74,141.66s30.69,22.42,59.87,0" transform="translate(-36.91 -21.28)"/><path class="cls-1" d="M38.74,156.14s30.69,22.43,59.87,0" transform="translate(-36.91 -21.28)"/><path class="cls-1" d="M38.41,110v55.34s1.85,7.74,12,10.72c0,0,20,9.52,44.05-4.17a9.5,9.5,0,0,0,4.77-8.34l-.8-49,.11-1.9" transform="translate(-36.91 -21.28)"/><path class="cls-1" d="M121.61,57.3c6.22,2.4,10.14,5.89,10.14,9.77a6.14,6.14,0,0,1-.61,2.64c-2.83,6-15.08,10.46-29.75,10.46C84.62,80.17,71,74.31,71,67.07c0-3.61,3.4-6.89,8.9-9.26" transform="translate(-36.91 -21.28)"/><path class="cls-1" d="M71.36,86.06s30.69,22.42,59.86,0" transform="translate(-36.91 -21.28)"/><path class="cls-1" d="M96.9,108.37a45.77,45.77,0,0,0,34.32-9.61" transform="translate(-36.91 -21.28)"/><path class="cls-1" d="M99.46,121a45.77,45.77,0,0,0,31.76-9.86" transform="translate(-36.91 -21.28)"/><path class="cls-1" d="M131.82,124.86,131,71.61l.11-1.9" transform="translate(-36.91 -21.28)"/><path class="cls-1" d="M83,133.13" transform="translate(-36.91 -21.28)"/><line class="cls-1" x1="34.12" y1="45.79" x2="34.12" y2="75.56"/><circle class="cls-1" cx="63.09" cy="24.72" r="23.22"/><polyline class="cls-2" points="61.67 28.42 54.96 28.41 66.53 42.21"/><line class="cls-2" x1="53.8" y1="21.5" x2="72.31" y2="21.5"/><line class="cls-2" x1="53.8" y1="14.6" x2="72.31" y2="14.6"/><path class="cls-2" d="M98.58,35.88a6.91,6.91,0,0,1,0,13.82" transform="translate(-36.91 -21.28)"/></g></svg>