<svg xmlns="http://www.w3.org/2000/svg" viewBox="0 0 161.96 161.8"><defs><style>.cls-1,.cls-2{fill:none;stroke-linecap:round;stroke-linejoin:round;stroke-width:4px;}.cls-1{stroke:#832826;}.cls-2{stroke:#f6a31d;}</style></defs><title>phone</title><g id="Layer_225" data-name="Layer 225"><path class="cls-1" d="M150.3,174.7l13-13a12.16,12.16,0,0,0-1.13-18.21l-20.3-15.8a12.15,12.15,0,0,0-15,.06l-4.52,3.56a12.17,12.17,0,0,1-16.15-.94L69.84,94.08a12.16,12.16,0,0,1-1-16.14l3.57-4.52a12.18,12.18,0,0,0,.06-15L56.71,38.1A12.17,12.17,0,0,0,38.51,37l-13,13c-8.94,8.94-8.9,34,40.93,83.82S142.08,182.92,150.3,174.7Z" transform="translate(-19.02 -19.1)"/><path class="cls-2" d="M179,97A75.94,75.94,0,0,0,103,21.1" transform="translate(-19.02 -19.1)"/><path class="cls-2" d="M103,39.33A57.71,57.71,0,0,1,160.75,97" transform="translate(-19.02 -19.1)"/><path class="cls-2" d="M103,57.55A39.49,39.49,0,0,1,142.53,97" transform="translate(-19.02 -19.1)"/><path class="cls-2" d="M103,75.78A21.26,21.26,0,0,1,124.3,97" transform="translate(-19.02 -19.1)"/></g></svg>