<svg xmlns="http://www.w3.org/2000/svg" viewBox="0 0 152.53 159.88"><defs><style>.cls-1,.cls-2{fill:none;stroke-linejoin:round;}.cls-1{stroke:#832826;stroke-linecap:round;stroke-width:3px;}.cls-2{stroke:#f6a31d;stroke-width:4px;}</style></defs><title>loan_amount</title><g id="Loan"><line class="cls-1" x1="77.74" y1="36.69" x2="86.9" y2="14.6"/><line class="cls-1" x1="69.03" y1="36.43" x2="67.26" y2="24.39"/><path class="cls-1" d="M112.48,55.73l.37-.24c2.68-5.09,11.14-14.47,13.6-22,8-24.65-35.59-2.16-60.65-7.29-2.43-.5,11.45,15.59,17.37,29.56" transform="translate(-23.73 -20.17)"/><path class="cls-1" d="M82.68,58.16h31.49c10.5,0,25.43,12.16,37.74,26.65,17.78,20.93,38.54,72.2,5,89.05-11.83,5.94-30.29,4.56-56.84,4.56-28.3,0-46.76,1.19-58.15-5.2C11.22,156,29,104.36,46.55,83.39c11.5-13.78,25.63-25.23,36.13-25.23Z" transform="translate(-23.73 -20.17)"/><polyline class="cls-2" points="72.68 101.41 55.39 101.38 85.21 137.17"/><line class="cls-2" x1="52.41" y1="83.49" x2="100.12" y2="83.49"/><line class="cls-2" x1="52.41" y1="65.59" x2="100.12" y2="65.59"/><path class="cls-2" d="M96.42,85.77a17.91,17.91,0,1,1,0,35.81" transform="translate(-23.73 -20.17)"/></g></svg>